<?xml version="1.0" encoding="UTF-8"?>
<svg version="1.1" xmlns="http://www.w3.org/2000/svg" width="1200" height="1102">
<path d="M0 0 C1.58687622 0.00090637 1.58687622 0.00090637 3.20581055 0.00183105 C20.13298458 0.02799854 36.89962132 0.44145877 53.75 2.1875 C54.97332031 2.31108887 56.19664062 2.43467773 57.45703125 2.56201172 C139.71421552 11.15651235 219.52837155 38.20749918 298.75 88.1875 C299.51441406 88.69071777 300.27882813 89.19393555 301.06640625 89.71240234 C323.54035568 104.59342103 344.55843591 121.36081209 364.75 139.1875 C365.26191895 139.63867188 365.77383789 140.08984375 366.30126953 140.5546875 C374.54333578 147.86865553 382.32476247 155.65988335 390.125 163.4375 C390.64746307 163.95728424 391.16992615 164.47706848 391.70822144 165.01260376 C397.60837385 170.88980334 403.36568632 176.82735489 408.75 183.1875 C409.76989093 184.3640988 410.79070678 185.53989658 411.8125 186.71484375 C412.7921337 187.85116003 413.771297 188.98788202 414.75 190.125 C415.26981445 190.72546143 415.78962891 191.32592285 416.32519531 191.94458008 C419.22527079 195.31820187 421.91658703 198.74874143 424.5 202.375 C427.18998006 205.93793032 429.20152363 206.77191804 433.5234375 208.0234375 C438.52983644 210.640818 441.9083029 215.98872364 445.32128906 220.38818359 C446.73514611 222.16879303 448.20817682 223.87615454 449.7109375 225.58203125 C456.72293792 233.73742343 456.72293792 233.73742343 456.796875 237.69921875 C456.61640625 238.47910156 456.4359375 239.25898438 456.25 240.0625 C455.42388273 243.77705605 455.62501549 244.95103506 457.44921875 248.40234375 C459.15011635 250.94415042 460.95154781 253.412585 462.73828125 255.89453125 C508.05280364 319.04546389 532.93467034 403.7267587 541.75 480.1875 C541.89953125 481.44401367 542.0490625 482.70052734 542.203125 483.99511719 C546.88241293 524.94897126 546.80530428 567.27105582 541.75 608.1875 C541.66278687 608.89829712 541.57557373 609.60909424 541.48571777 610.34143066 C538.98208426 630.51777134 535.44081908 650.39701578 530.75 670.1875 C530.50056641 671.25887207 530.25113281 672.33024414 529.99414062 673.43408203 C520.07796069 715.53960955 504.18278783 755.63843247 484.75 794.1875 C484.25580566 795.17169922 483.76161133 796.15589844 483.25244141 797.16992188 C463.21933761 836.83797429 436.94565895 873.85879521 407.015625 906.67578125 C405.81066423 908.01162569 404.61084367 909.35295277 403.45288086 910.72973633 C397.63114787 917.59228813 391.21261354 923.87529677 384.84399414 930.22387695 C382.8173702 932.24514268 380.79614453 934.27169574 378.77539062 936.29882812 C372.60465899 942.47302948 366.44610713 948.57751592 359.75 954.1875 C358.66608151 955.13586817 357.58401306 956.08635543 356.50390625 957.0390625 C347.55964984 964.84007855 338.25058215 972.07950701 328.75 979.1875 C328.13044434 979.65510742 327.51088867 980.12271484 326.87255859 980.60449219 C299.88978849 1000.95695902 270.94989813 1018.08293039 240.75 1033.1875 C239.31720703 1033.91380615 239.31720703 1033.91380615 237.85546875 1034.65478516 C177.86020841 1064.98124366 111.47000518 1081.29477843 44.75 1087.1875 C43.63189941 1087.290625 42.51379883 1087.39375 41.36181641 1087.5 C28.26989851 1088.54900186 15.12522523 1088.43133134 2 1088.4375 C0.70932617 1088.43817474 -0.58134766 1088.43884949 -1.91113281 1088.43954468 C-22.520552 1088.42246593 -42.80244555 1087.78713764 -63.25 1085.1875 C-63.9492157 1085.10028687 -64.6484314 1085.01307373 -65.36883545 1084.92321777 C-85.55617461 1082.39390869 -105.444217 1078.88194526 -125.25 1074.1875 C-126.32137207 1073.93806641 -127.39274414 1073.68863281 -128.49658203 1073.43164062 C-170.60210955 1063.51546069 -210.70093247 1047.62028783 -249.25 1028.1875 C-250.23419922 1027.69330566 -251.21839844 1027.19911133 -252.23242188 1026.68994141 C-291.90047429 1006.65683761 -328.92129521 980.38315895 -361.73828125 950.453125 C-363.09162004 949.23238395 -364.45230567 948.01865495 -365.8515625 946.85083008 C-370.37294889 943.03561285 -374.49597031 938.93253539 -378.5859375 934.66796875 C-379.74460463 933.46922023 -380.90346195 932.27065551 -382.0625 931.07226562 C-383.85215183 929.22091014 -385.63471315 927.36467877 -387.39941406 925.48950195 C-395.72756801 916.16659139 -395.72756801 916.16659139 -407.234375 912.45141602 C-409.25 912.1875 -409.25 912.1875 -411.73828125 910.1484375 C-412.34027344 909.29507813 -412.94226563 908.44171875 -413.5625 907.5625 C-414.29082031 906.58023438 -415.01914062 905.59796875 -415.76953125 904.5859375 C-416.15963379 904.04420898 -416.54973633 903.50248047 -416.95166016 902.94433594 C-419.42742722 899.5942758 -422.10850645 896.40718926 -424.75 893.1875 C-425.85717512 891.81933749 -426.96395138 890.45085209 -428.0703125 889.08203125 C-430.05597772 886.63560062 -432.065946 884.21589436 -434.1171875 881.82421875 C-434.94476563 880.85097656 -435.77234375 879.87773438 -436.625 878.875 C-437.35460937 878.03324219 -438.08421875 877.19148437 -438.8359375 876.32421875 C-439.30257812 875.61910156 -439.76921875 874.91398438 -440.25 874.1875 C-439.92 873.1975 -439.59 872.2075 -439.25 871.1875 C-437.93 871.1875 -436.61 871.1875 -435.25 871.1875 C-435.97703125 870.16914062 -436.7040625 869.15078125 -437.453125 868.1015625 C-454.3487687 844.35625679 -469.65618055 819.9812414 -483.25 794.1875 C-483.745 793.2495459 -484.24 792.3115918 -484.75 791.34521484 C-517.67489295 728.46424253 -536.6514662 657.84202386 -542.25 587.1875 C-542.3442627 586.04055664 -542.43852539 584.89361328 -542.53564453 583.71191406 C-543.46504622 570.96630885 -543.49247133 558.21210183 -543.5 545.4375 C-543.50100708 544.24763489 -543.50201416 543.05776978 -543.50305176 541.83184814 C-543.49145042 521.47183943 -542.65054339 501.40381582 -540.25 481.1875 C-540.10546387 479.96111816 -539.96092773 478.73473633 -539.81201172 477.47119141 C-532.50117422 417.64862406 -515.11796041 360.52497747 -489.25 306.1875 C-488.60708008 304.8257666 -488.60708008 304.8257666 -487.95117188 303.43652344 C-471.5175339 268.82552559 -450.08320287 236.14451194 -426.25 206.1875 C-425.8065625 205.62627441 -425.363125 205.06504883 -424.90625 204.48681641 C-422.41063442 201.33753835 -419.85150259 198.24968533 -417.25 195.1875 C-416.7859375 194.6399707 -416.321875 194.09244141 -415.84375 193.52832031 C-404.23573771 179.86965789 -392.02567015 166.88451769 -379.375 154.1875 C-378.49521484 153.30304199 -377.61542969 152.41858398 -376.70898438 151.50732422 C-371.71571739 146.52636059 -366.61204664 141.76687893 -361.25 137.1875 C-360.07023573 136.1539155 -358.89182379 135.11878515 -357.71484375 134.08203125 C-309.18252886 91.58556497 -253.35585979 58.49693777 -193.25 35.1875 C-192.33541016 34.82849609 -191.42082031 34.46949219 -190.47851562 34.09960938 C-130.15120098 10.57150679 -64.56056193 -0.06837433 0 0 Z " fill="#E21D38" transform="translate(550.25,1.8125)"/>
<path d="M0 0 C7.70412124 -0.05394226 15.37160604 0.06833429 23.06640625 0.4453125 C24.63197517 0.52051872 24.63197517 0.52051872 26.22917175 0.59724426 C29.67396474 0.76691668 33.11826182 0.94442329 36.5625 1.125 C37.76241577 1.18769073 38.96233154 1.25038147 40.1986084 1.31497192 C82.63272837 3.58055774 125.09734467 7.42659038 167.28027344 12.54980469 C170.98992555 12.9987807 174.70170792 13.4255867 178.4140625 13.8515625 C199.86253191 16.39129078 221.07722624 20.19688396 242.33251953 23.99072266 C248.29028024 25.05311827 254.2498226 26.10502997 260.2109375 27.1484375 C261.12774292 27.31013428 262.04454834 27.47183105 262.98913574 27.63842773 C269.35270059 28.7491359 275.7303118 29.71239831 282.125 30.625 C283.85552457 30.88113354 285.58600144 31.13758988 287.31640625 31.39453125 C290.18002991 31.79786663 292.8747809 32.03166218 295.77734375 32.13671875 C302.10327103 32.47520475 305.44161699 33.87398428 309.65600586 38.48022461 C311.72283772 40.95297657 313.63799517 43.52121737 315.54052734 46.12158203 C316.9627974 47.95211829 318.46885624 49.55258419 320.11328125 51.18359375 C326.8673808 58.1431032 326.8673808 58.1431032 327.09277344 62.99853516 C326.58996765 67.71206729 325.1598951 72.1599962 323.71679688 76.65820312 C322.59366158 80.32751979 321.85426364 84.04830083 321.125 87.8125 C320.96700928 88.5972168 320.80901855 89.38193359 320.64624023 90.19042969 C318.53606134 100.92028999 316.89054696 111.73884608 315.19384766 122.5402832 C310.83437281 150.16562719 310.83437281 150.16562719 309 152 C307.53860077 151.96307635 306.07935929 151.84326559 304.625 151.6953125 C303.61566406 151.59379883 302.60632813 151.49228516 301.56640625 151.38769531 C297.56404555 150.95260846 293.56308106 150.5057752 289.5625 150.0546875 C262.72464766 147.03047293 235.84911488 144.62685157 208.9375 142.375 C208.06180359 142.30161156 207.18610718 142.22822311 206.28387451 142.15261078 C195.18463372 141.22281707 184.08426365 140.30753753 172.98272705 139.40557861 C169.68580881 139.13765765 166.3890664 138.86771707 163.09246826 138.59588623 C141.6303965 136.82776035 120.16890179 135.30400543 98.66650391 134.11962891 C94.97455479 133.91622811 91.28311979 133.70471877 87.59174347 133.49120712 C66.73495997 132.2897019 45.88501678 131.50581639 25 131 C18.46320577 150.43504537 12.02034508 169.89442977 5.8125 189.4375 C5.52710358 190.33298553 5.24170715 191.22847107 4.94766235 192.15109253 C4.1352032 194.70262806 3.32664688 197.25536356 2.51953125 199.80859375 C2.278396 200.56543457 2.03726074 201.32227539 1.78881836 202.10205078 C0.65382436 205.71103497 -0.35723352 209.26938883 -1 213 C-0.38745361 213.03440186 0.22509277 213.06880371 0.85620117 213.10424805 C17.37659356 214.07250367 33.80296995 215.63122761 50.25 217.4375 C51.68755142 217.59235367 51.68755142 217.59235367 53.15414429 217.75033569 C63.58606127 218.87959659 73.88961028 220.20533533 84.18359375 222.24780273 C88.1421511 223.02801737 92.10783806 223.72348078 96.0859375 224.39453125 C121.5369351 228.72587766 146.4041431 234.04407836 171 242 C172.18174805 242.37672852 173.36349609 242.75345703 174.58105469 243.14160156 C190.75078003 248.30907376 206.56012194 253.89826516 222 261 C222.84788086 261.38091797 223.69576172 261.76183594 224.56933594 262.15429688 C243.83324904 270.81693195 262.19034906 281.17437267 279 294 C279.57121582 294.42990234 280.14243164 294.85980469 280.73095703 295.30273438 C289.64484847 302.02927322 297.9623415 309.2518999 306 317 C306.55606934 317.53415527 307.11213867 318.06831055 307.68505859 318.61865234 C314.99647956 325.67831707 321.81221767 332.91491856 328 341 C328.64533691 341.83869629 328.64533691 341.83869629 329.30371094 342.69433594 C339.92785134 356.57584231 348.53608654 371.20750113 356 387 C356.52335937 388.093125 357.04671875 389.18625 357.5859375 390.3125 C369.32217838 416.14464923 375.13654722 445.29624159 375.16796875 473.59765625 C375.17129715 474.67139999 375.17462555 475.74514374 375.17805481 476.85142517 C375.18308546 479.11115088 375.18546434 481.37088393 375.18530273 483.63061523 C375.18747872 487.02926359 375.2056476 490.42758116 375.22460938 493.82617188 C375.2724535 511.54647144 373.89834083 528.27947652 370.1875 545.625 C369.78785034 547.51061646 369.78785034 547.51061646 369.38012695 549.43432617 C367.41616623 558.49645967 365.16398676 567.27542458 362 576 C361.68160156 576.89493164 361.36320312 577.78986328 361.03515625 578.71191406 C349.26172125 611.64950006 333.26282238 641.46480538 309 667 C307.82619437 668.34798324 306.65902568 669.70178771 305.5 671.0625 C298.91594939 678.62253929 291.68797466 685.57478446 284 692 C283.46165527 692.45745605 282.92331055 692.91491211 282.36865234 693.38623047 C237.27034538 731.60942779 176.38324084 757.84716604 118.09375 767.31640625 C114.14344756 767.9583304 110.23374292 768.7615144 106.3125 769.5625 C87.16138453 773.10854525 67.85843617 773.33694137 48.4375 773.25 C47.20332336 773.24689819 45.96914673 773.24379639 44.6975708 773.24060059 C17.55851613 773.16062086 -8.75484116 771.36528151 -35.63818359 767.48046875 C-38.64851804 767.05023359 -41.66046196 766.64346701 -44.67578125 766.25 C-57.27394537 764.58264787 -69.69054883 762.21697882 -82.12451172 759.60107422 C-84.69610118 759.06352512 -87.27066559 758.54601343 -89.84765625 758.03515625 C-98.15049155 756.34633655 -106.19418472 754.1308971 -114.25 751.5 C-115.13204102 751.21527832 -116.01408203 750.93055664 -116.92285156 750.63720703 C-128.37468064 746.76320928 -128.37468064 746.76320928 -131.43115234 741.56689453 C-133.08562307 738.19295406 -134.588313 734.76742858 -136.0625 731.3125 C-136.6506744 729.97011352 -137.24024014 728.62833596 -137.83105469 727.28710938 C-139.52533637 723.42361743 -141.19290253 719.5490699 -142.85455322 715.67144775 C-144.07867514 712.8165113 -145.3072803 709.96353275 -146.53662109 707.11083984 C-150.15773765 698.70449132 -153.77304713 690.29570812 -157.36352539 681.8762207 C-157.99980614 680.38436249 -157.99980614 680.38436249 -158.64894104 678.86236572 C-159.4932273 676.88096533 -160.33636901 674.89907683 -161.17832947 672.91668701 C-163.35360675 667.80635759 -165.56357153 662.71488284 -167.83007812 657.64428711 C-168.29037415 656.60808228 -168.75067017 655.57187744 -169.22491455 654.50427246 C-170.10123709 652.5359756 -170.9851626 650.57103894 -171.87811279 648.61022949 C-174.93170061 641.73206691 -177.1039648 635.54015493 -175 628 C-173.43872091 624.80721128 -171.51411313 622.49196235 -169 620 C-168.43539063 619.41992188 -167.87078125 618.83984375 -167.2890625 618.2421875 C-166.15489998 617.09776107 -165.0084842 615.96532502 -163.84912109 614.84643555 C-162.19386784 613.19358628 -160.69192459 611.50363508 -159.1875 609.71484375 C-153.85826407 603.58907474 -148.13657746 597.83858896 -142.42358398 592.07348633 C-141.10660031 590.73998977 -139.79499575 589.40115776 -138.48901367 588.05688477 C-117.62982959 566.59278172 -117.62982959 566.59278172 -107.25097656 565.66479492 C-103.83279469 566.01724038 -102.53675629 566.6126284 -100.31005859 569.20214844 C-97.26811923 573.37673686 -94.54246081 577.74268561 -91.8125 582.125 C-90.38241009 584.39075984 -88.9506713 586.65535655 -87.515625 588.91796875 C-87.14627335 589.50113358 -86.77692169 590.0842984 -86.39637756 590.68513489 C-82.38416387 597.00226846 -78.23018575 603.22230598 -74.0625 609.4375 C-72.5500641 611.69613515 -71.03845231 613.95532037 -69.52734375 616.21484375 C-69.15324875 616.77419617 -68.77915375 617.33354858 -68.39372253 617.90985107 C-59.26723686 631.5704979 -50.27227747 645.31975262 -41.5625 659.25 C-33.67362336 671.81004384 -25.42494315 683.41262856 -15 694 C-13.75863281 695.27810547 -13.75863281 695.27810547 -12.4921875 696.58203125 C13.18143024 721.50977936 49.15058847 729.44129954 83.80371094 729.26074219 C86.26261682 729.2499446 88.72080235 729.26075781 91.1796875 729.2734375 C128.9046283 729.30794627 163.85359994 714.08921078 190.50732422 687.54980469 C210.31643089 666.98254772 222.4502512 640.56371415 222.3125 611.875 C222.30831055 610.68374512 222.30412109 609.49249023 222.29980469 608.26513672 C222.18337393 599.15009441 221.33295384 590.81674762 219 582 C218.73316406 580.92621094 218.46632813 579.85242188 218.19140625 578.74609375 C212.53853323 558.27013149 200.95301806 541.68910787 187 526 C186.41863281 525.34515625 185.83726562 524.6903125 185.23828125 524.015625 C179.50521175 517.95041294 172.63705226 513.02301388 166 508 C165.43361816 507.56751953 164.86723633 507.13503906 164.28369141 506.68945312 C140.08953252 488.32989847 111.54536176 476.45267894 83.17773438 466.15478516 C81.15457657 465.41957185 79.13463086 464.67541323 77.11914062 463.91943359 C70.57827449 461.47886416 63.9818513 459.46885793 57.25 457.625 C56.16654297 457.32609863 55.08308594 457.02719727 53.96679688 456.71923828 C50.64610243 455.80696489 47.32320811 454.90306735 44 454 C42.51983398 453.59297852 42.51983398 453.59297852 41.00976562 453.17773438 C26.1235067 449.09389343 11.16376722 445.86784695 -4 443 C-5.94201731 442.62805599 -7.8840328 442.25610227 -9.82597351 441.88375854 C-13.23736646 441.23087341 -16.6499043 440.58406336 -20.0625 439.9375 C-21.29025146 439.70417969 -22.51800293 439.47085937 -23.78295898 439.23046875 C-27.85208327 438.46795473 -31.92484185 437.72940868 -36 437 C-36.83661163 436.84825317 -37.67322327 436.69650635 -38.53518677 436.54016113 C-55.37315304 433.5102662 -72.27928189 431.44727049 -89.28131104 429.59698486 C-92.6757387 429.22601418 -96.06925548 428.84688905 -99.46289062 428.46875 C-113.30337518 426.92998872 -127.148389 425.43516097 -141 424 C-140.37979953 418.12962683 -138.8026686 412.90116307 -136.89453125 407.328125 C-136.42109535 405.9204763 -136.42109535 405.9204763 -135.93809509 404.48439026 C-135.25708054 402.46126955 -134.57340169 400.43904411 -133.8873291 398.41763306 C-132.04906884 393.00008903 -130.23117631 387.57570167 -128.41015625 382.15234375 C-128.03845306 381.0471489 -127.66674988 379.94195404 -127.28378296 378.80326843 C-123.70788934 368.16056076 -120.21572064 357.4915116 -116.75 346.8125 C-116.46341522 345.93040863 -116.17683044 345.04831726 -115.88156128 344.13949585 C-113.13093462 335.67305478 -110.38858258 327.20394477 -107.65039062 318.73347473 C-106.63184324 315.58313342 -105.61233342 312.43310377 -104.59289551 309.28305054 C-103.92997076 307.23253221 -103.26901269 305.18139051 -102.60839844 303.13012695 C-98.14613059 289.30703176 -93.52148443 275.53746986 -88.92224884 261.75953484 C-85.25922706 250.78396803 -81.60597406 239.80514795 -77.95142782 228.82675701 C-74.94258818 219.78836933 -71.93202271 210.7505564 -68.9215107 201.71272564 C-66.53637086 194.55216508 -64.15181405 187.39141129 -61.76855469 180.23022461 C-51.19912436 148.47244301 -40.60903065 116.72363374 -29.71425629 85.07556534 C-28.79483898 82.40382029 -27.87722785 79.73145664 -26.95960903 77.05909348 C-24.39775667 69.59912145 -21.82618582 62.14253258 -19.25 54.6875 C-18.8512265 53.53281219 -18.452453 52.37812439 -18.04159546 51.18844604 C-12.13365702 34.08707607 -6.16956965 17.00897587 0 0 Z " fill="#FEFEFE" transform="translate(680,176)"/>
<path d="M0 0 C4.62209801 -0.09409435 9.23622168 -0.05475363 13.85742188 0.04589844 C14.79344238 0.06378418 15.72946289 0.08166992 16.69384766 0.10009766 C39.5008173 0.59145712 57.3594204 1.81666653 75.85742188 16.04589844 C76.89125 16.83480469 77.92507813 17.62371094 78.99023438 18.43652344 C81.73444504 20.53586956 84.46857098 22.64798633 87.20019531 24.76367188 C89.91458271 26.86384315 92.63631681 28.95444347 95.35742188 31.04589844 C96.44079152 31.87918456 97.52412483 32.71251793 98.60742188 33.54589844 C99.41179687 34.16464844 99.41179687 34.16464844 100.23242188 34.79589844 C101.85742188 36.04589844 103.48242188 37.29589844 105.10742188 38.54589844 C105.64423584 38.95880127 106.1810498 39.3717041 106.73413086 39.79711914 C107.81188873 40.626226 108.88952647 41.45548904 109.96704102 42.28491211 C112.7596884 44.43424039 115.55469275 46.58039754 118.35351562 48.72167969 C118.92972656 49.16318359 119.5059375 49.6046875 120.09960938 50.05957031 C121.694028 51.28110071 123.28936595 52.50143088 124.88476562 53.72167969 C133.60391594 60.53888657 133.60391594 60.53888657 134.85742188 63.04589844 C135.12358622 67.05499887 134.76197565 70.65407016 132.54492188 74.06542969 C130.71999806 76.13959078 128.81274178 78.09425395 126.85742188 80.04589844 C120.67672465 86.67969189 114.97802857 93.58329822 109.43554688 100.74902344 C101.21158124 111.32491864 101.21158124 111.32491864 95.85742188 113.04589844 C80.87545765 114.91604654 68.3834442 107.51469076 55.49017334 100.91775513 C51.73692203 98.99970147 47.97126456 97.10636568 44.20507812 95.21386719 C43.4710376 94.84486801 42.73699707 94.47586884 41.98071289 94.09568787 C33.39548425 89.79291733 24.69225054 85.80791521 15.85742188 82.04589844 C14.9019043 81.63791016 13.94638672 81.22992188 12.96191406 80.80957031 C6.84417396 78.20734932 0.70884966 75.65221417 -5.44824219 73.14453125 C-7.10345523 72.46960748 -8.75688611 71.79026791 -10.40722656 71.10351562 C-30.45588829 62.78269719 -59.58463366 54.50467053 -81.14257812 61.54589844 C-94.93376532 67.69429149 -104.01766664 78.33082032 -110.07226562 91.98730469 C-113.34593173 101.34234324 -114.70334481 110.09326486 -115.16992188 119.98730469 C-115.2434485 121.36271976 -115.31800957 122.73807986 -115.39350891 124.11338806 C-115.59469542 127.83505862 -115.78081674 131.55734359 -115.96400452 135.27993774 C-116.15986212 139.20888189 -116.36953796 143.1370924 -116.57714844 147.06542969 C-117.07107684 156.47526648 -117.54076281 165.88625031 -118.00640106 175.2975235 C-118.14517651 178.09834003 -118.2846637 180.89912026 -118.42437744 183.69989014 C-119.69377497 209.14712886 -120.93288955 234.59575284 -122.14257812 260.04589844 C-121.51813781 260.03559097 -120.89369749 260.02528351 -120.25033474 260.0146637 C-104.75077384 259.75913368 -89.251138 259.50878914 -73.75141048 259.26359558 C-66.25456206 259.14488758 -58.75774474 259.02466337 -51.26098633 258.90039062 C-12.88315958 258.26519105 25.47317318 257.90544328 63.85742188 258.04589844 C63.85742188 271.90589844 63.85742188 285.76589844 63.85742188 300.04589844 C44.19870633 309.67189019 44.19870633 309.67189019 34.88867188 314.15917969 C28.53476618 317.22458941 22.2314097 320.34031238 16.0546875 323.75366211 C7.66849038 327.77918182 0.14659896 329.76401103 -9.14648438 330.28417969 C-10.97568672 330.39782364 -10.97568672 330.39782364 -12.84184265 330.51376343 C-32.89158076 331.64271771 -53.02764669 331.26499357 -73.09936523 331.18322754 C-78.75893632 331.16243392 -84.41852638 331.15356363 -90.078125 331.14355469 C-101.09965778 331.12237389 -112.12110843 331.08843208 -123.14257812 331.04589844 C-123.03376328 355.47854883 -122.92077367 379.91117713 -122.80323887 404.34378719 C-122.74871583 415.69655027 -122.69542136 427.04931634 -122.64526367 438.40209961 C-122.28755348 538.80066313 -122.28755348 538.80066313 -119.52294922 639.15527344 C-119.3480161 643.48702991 -119.18176585 647.81898992 -119.02294922 652.15136719 C-120.37094851 699.46918486 -120.37094851 699.46918486 -107.14257812 743.04589844 C-98.7629895 750.80147514 -86.29183814 754.45946597 -75.39257812 756.98339844 C-74.3390918 757.22791748 -73.28560547 757.47243652 -72.20019531 757.72436523 C-60.04596648 760.34421376 -47.72354681 761.83319823 -35.39257812 763.35839844 C-34.34928345 763.48745575 -33.30598877 763.61651306 -32.2310791 763.7494812 C-29.18671695 764.12196793 -26.14155541 764.48659363 -23.09570312 764.84667969 C-21.75282227 765.00721329 -21.75282227 765.00721329 -20.3828125 765.17098999 C-12.96536701 766.02465387 -5.61251372 766.51233161 1.85742188 767.04589844 C1.85742188 779.25589844 1.85742188 791.46589844 1.85742188 804.04589844 C-20.55891039 804.33514143 -42.85665516 803.29209901 -65.23931885 802.18841553 C-68.11371913 802.04731509 -70.98822993 801.90873776 -73.86279297 801.77099609 C-78.37940376 801.55432522 -82.89580853 801.3338287 -87.41204834 801.10955811 C-89.08913673 801.02635778 -90.76626029 800.94386303 -92.44342041 800.86212158 C-94.76648776 800.74813807 -97.08931095 800.63006616 -99.41210938 800.51074219 C-100.71768799 800.44491943 -102.0232666 800.37909668 -103.3684082 800.3112793 C-105.82847005 800.13829998 -108.28483701 799.89327069 -110.72924805 799.56665039 C-116.26708605 798.83832695 -121.83998113 798.64965721 -127.41435242 798.35951996 C-146.71493429 797.33023803 -165.90690054 795.41979753 -185.12304688 793.37939453 C-188.78770997 792.99043102 -192.45299003 792.60856986 -196.11914062 792.23388672 C-220.35295876 789.75715905 -244.44130352 786.72191667 -268.52207279 783.04092216 C-274.67251168 782.10475273 -280.83159205 781.25079585 -286.99835205 780.42961121 C-290.39147269 779.97517596 -293.78087444 779.49844997 -297.16992188 779.01464844 C-301.50709888 778.39780549 -305.84537619 777.83765515 -310.19599915 777.3278656 C-312.93776425 776.99666229 -315.67315919 776.62498805 -318.40859985 776.24539185 C-320.3225912 775.99264053 -322.24283442 775.78870398 -324.1628418 775.58666992 C-330.97604947 774.60346977 -334.65516607 773.25744545 -339.09570312 767.86230469 C-340.46783571 765.93983381 -341.8184405 764.00173628 -343.14257812 762.04589844 C-344.26175306 760.6370091 -345.39564013 759.23958602 -346.54882812 757.85839844 C-348.13379573 755.90672946 -349.71705815 753.95373793 -351.29736328 751.99829102 C-353.83485239 748.86306738 -356.38384483 745.7443487 -359.00976562 742.68261719 C-359.83734375 741.709375 -360.66492188 740.73613281 -361.51757812 739.73339844 C-362.2471875 738.89164063 -362.97679687 738.04988281 -363.72851562 737.18261719 C-364.19515625 736.4775 -364.66179687 735.77238281 -365.14257812 735.04589844 C-364.81257813 734.05589844 -364.48257813 733.06589844 -364.14257812 732.04589844 C-363.24732422 732.09810547 -363.24732422 732.09810547 -362.33398438 732.15136719 C-349.313763 732.55764453 -335.33133107 730.65495753 -324.43945312 723.19433594 C-320.84509252 718.26737225 -321.48881934 713.48705698 -321.64257812 707.54589844 C-321.66030273 706.29397705 -321.67802734 705.04205566 -321.69628906 703.75219727 C-321.93709709 692.93139368 -322.98630776 682.26365104 -324.21679688 671.51855469 C-325.4269861 660.92285666 -326.30642091 650.29671805 -327.20507812 639.67089844 C-327.29121368 638.65619476 -327.37734924 637.64149109 -327.46609497 636.59603882 C-328.82527486 620.51687184 -330.00301134 604.43634108 -330.94091797 588.3269043 C-331.07408905 586.16021408 -331.22000389 583.99426502 -331.37939453 581.8293457 C-332.32595162 568.89643511 -332.69770061 555.94132493 -333.14257812 542.98339844 C-333.26732641 539.38738296 -333.39280562 535.79139618 -333.51953125 532.19544983 C-333.59759387 529.97677362 -333.67454961 527.75805796 -333.75 525.53929138 C-333.92797507 520.44751158 -334.12136992 515.358631 -334.39181519 510.27087402 C-335.17182094 495.28675422 -335.28925354 480.33723669 -335.27539062 465.33496094 C-335.27606706 462.7077941 -335.27703988 460.08062732 -335.27828979 457.45346069 C-335.28009305 451.97564174 -335.27775701 446.4978364 -335.27294922 441.02001953 C-335.26813432 435.47183347 -335.26811275 429.92367431 -335.27294922 424.37548828 C-335.32369396 364.81573502 -335.32369396 364.81573502 -334.14257812 339.04589844 C-334.7568718 339.1027179 -335.37116547 339.15953735 -336.0040741 339.21807861 C-350.1212666 340.51792746 -364.23599569 341.43999292 -378.39257812 342.17089844 C-379.65112106 342.23733551 -379.65112106 342.23733551 -380.93508911 342.30511475 C-390.34405909 342.79809196 -399.71683211 343.19339521 -409.14257812 343.04589844 C-408.66568138 329.33100579 -407.71214599 315.66259997 -406.64257812 301.98339844 C-406.57686615 301.12881042 -406.51115417 300.27422241 -406.44345093 299.39373779 C-406.25333501 296.93241095 -406.05821505 294.47153568 -405.86132812 292.01074219 C-405.8040303 291.26671646 -405.74673248 290.52269073 -405.68769836 289.75611877 C-405.41557842 286.43341776 -405.11177075 283.24517002 -404.14257812 280.04589844 C-392.47825988 278.69169954 -380.81184492 277.35678868 -369.14257812 276.04589844 C-368.41675537 275.96430481 -367.69093262 275.88271118 -366.94311523 275.79864502 C-362.36505313 275.28548592 -357.78555542 274.78712925 -353.20507812 274.29589844 C-351.48768433 274.10483521 -351.48768433 274.10483521 -349.7355957 273.90991211 C-342.5106754 273.1489732 -335.40581994 272.89852119 -328.14257812 273.04589844 C-328.09069336 271.85085693 -328.03880859 270.65581543 -327.98535156 269.42456055 C-327.45222953 257.6983371 -326.68634868 246.01018279 -325.6328125 234.3190918 C-325.47286831 232.51435566 -325.31985289 230.70899185 -325.17382812 228.90307617 C-323.77882618 211.66639482 -320.91841733 194.55675624 -314.45507812 178.42089844 C-313.95524414 177.14388062 -313.95524414 177.14388062 -313.4453125 175.84106445 C-303.75786209 151.78908035 -289.07463985 130.65752419 -271.14257812 112.04589844 C-270.50900391 111.38509277 -269.87542969 110.72428711 -269.22265625 110.04345703 C-260.56917943 101.06455381 -251.79801279 92.70001496 -241.77490234 85.27246094 C-240.1770108 84.07177187 -238.61424843 82.8247804 -237.05273438 81.57714844 C-227.90243629 74.28460318 -218.15318591 68.0881808 -208.14257812 62.04589844 C-207.32789063 61.55331543 -206.51320313 61.06073242 -205.67382812 60.55322266 C-144.69677031 23.99834484 -71.18746626 1.52498219 0 0 Z " fill="#FEFEFE" transform="translate(475.142578125,140.9541015625)"/>
<path d="M0 0 C8.12670164 6.09170107 14.21361114 14.79507317 16.38671875 24.7890625 C17.69397765 38.39779311 16.19433659 49.31953761 8.13671875 60.6640625 C0.91647921 69.28780433 -9.44022566 74.4152016 -20.55078125 75.6640625 C-32.18303919 76.24344699 -42.78115772 73.2638105 -51.97265625 65.8984375 C-61.33179085 56.96151949 -65.68853575 47.23024863 -65.98828125 34.2890625 C-65.6843646 22.18102317 -61.98301471 12.16948343 -53.28515625 3.45703125 C-37.74092595 -9.71645952 -17.13827868 -10.9232985 0 0 Z M-51.61328125 13.7890625 C-57.82761258 22.711474 -58.36315133 31.13873384 -57.61328125 41.7890625 C-55.97118549 49.52887693 -51.61333154 55.71805226 -45.61328125 60.7890625 C-36.27642277 66.48694024 -27.92406085 69.26597815 -17.01953125 67.328125 C-7.97173617 64.95447506 -0.88124537 59.49560942 4.38671875 51.7890625 C9.37252126 42.53426615 10.59365618 34.5686664 7.82421875 24.4140625 C4.63019951 14.72071491 -0.25510102 9.00416989 -9.0859375 3.98046875 C-25.11863764 -3.57745017 -40.16748564 1.08504113 -51.61328125 13.7890625 Z " fill="#E21C37" transform="translate(1156.61328125,849.2109375)"/>
<path d="M0 0 C19 0 19 0 24 4 C25.27563384 6.55126768 25.20373295 8.46322086 25.25 11.3125 C25.27578125 12.25738281 25.3015625 13.20226562 25.328125 14.17578125 C25 17 25 17 23.24609375 19.375 C22.83488281 20.24125 22.42367188 21.1075 22 22 C23.12750969 24.86260504 24.22966184 27.1012779 25.8125 29.6875 C30 36.85338499 30 36.85338499 30 39 C27.69 39 25.38 39 23 39 C22.59007812 38.15695312 22.18015625 37.31390625 21.7578125 36.4453125 C21.21898437 35.34960938 20.68015625 34.25390625 20.125 33.125 C19.59132813 32.03445313 19.05765625 30.94390625 18.5078125 29.8203125 C17.15464063 26.96117453 17.15464063 26.96117453 15 25 C12.57284794 24.32059533 12.57284794 24.32059533 9.875 23.875 C8.26625 23.58625 6.6575 23.2975 5 23 C5 28.28 5 33.56 5 39 C3.35 39 1.7 39 0 39 C0 26.13 0 13.26 0 0 Z M5 4 C5 8.95 5 13.9 5 19 C11.86546801 19.02559006 11.86546801 19.02559006 18 17 C19.52491998 13.95016004 19.23562548 11.3576631 19 8 C17.59089331 5.88633996 16.58835165 5.23113815 14.25 4.3125 C11.19423981 3.88808886 8.0850924 4 5 4 Z " fill="#E21C37" transform="translate(1119,863)"/>
</svg>
