<?xml version="1.0" encoding="UTF-8"?>
<svg version="1.1" xmlns="http://www.w3.org/2000/svg" width="2500" height="1316">
<path d="M0 0 C1.30952637 0.01885254 1.30952637 0.01885254 2.64550781 0.03808594 C33.58043721 0.56095987 64.67627615 3.89286295 95 10 C96.11552246 10.22413574 97.23104492 10.44827148 98.38037109 10.67919922 C185.07403044 28.41853717 277.06397088 68.72105728 339.4375 133.43359375 C341.17704977 135.1774924 343.00521083 136.77180186 344.875 138.375 C351.45562134 144.06462812 357.48131854 150.25490763 363.13671875 156.859375 C365.28886777 159.33186486 367.51980719 161.72271357 369.75 164.125 C375.05048523 169.93947167 379.88693817 176.05631628 384.67822266 182.29296875 C385.88717832 183.85429458 387.12015565 185.3969437 388.35546875 186.9375 C401.48383954 203.47440927 412.87555692 221.49010115 423 240 C423.47888672 240.86882812 423.95777344 241.73765625 424.45117188 242.6328125 C445.08933561 280.31289298 468 332.05134075 468 376 C468.81855469 375.76925781 469.63710937 375.53851563 470.48046875 375.30078125 C501.60902178 367.00202054 534.72570429 362.91391208 566.92578125 362.796875 C568.21964752 362.78986069 569.51351379 362.78284637 570.84658813 362.77561951 C575.00189707 362.7562085 579.1571503 362.7511854 583.3125 362.75 C584.02002033 362.74955814 584.72754066 362.74911629 585.45650101 362.74866104 C606.45455704 362.74178025 627.1708783 363.0145118 648 366 C649.30163086 366.17692383 650.60326172 366.35384766 651.94433594 366.53613281 C740.50009401 378.63584354 825.38635437 413.18935389 894 471 C894.5170752 471.4321582 895.03415039 471.86431641 895.56689453 472.30957031 C910.18829478 484.54653106 924.73150294 497.4048093 937.16796875 511.890625 C939.15311587 514.17629546 941.2003983 516.39701378 943.25 518.625 C1006.96644091 589.44496303 1035.21751788 679.234259 1039 773 C1040.17691406 773.55945313 1041.35382812 774.11890625 1042.56640625 774.6953125 C1068.56957548 787.25723 1092.33442087 802.91508542 1114 822 C1114.78632813 822.67546875 1115.57265625 823.3509375 1116.3828125 824.046875 C1128.85483549 834.95461036 1140.99531242 846.7709656 1151 860 C1151.92516442 861.18537752 1152.85099391 862.37023614 1153.77734375 863.5546875 C1186.77161171 906.16556435 1209.91721881 960.29918405 1210.203125 1014.79296875 C1210.21364647 1016.14378036 1210.21364647 1016.14378036 1210.22438049 1017.5218811 C1210.24177902 1020.41047226 1210.2482324 1023.29885837 1210.25 1026.1875 C1210.25101212 1027.66855728 1210.25101212 1027.66855728 1210.25204468 1029.17953491 C1210.23629396 1043.67328793 1209.77370989 1057.73679444 1207 1072 C1206.8443457 1072.88107422 1206.68869141 1073.76214844 1206.52832031 1074.66992188 C1197.74896892 1124.05158298 1173.93503035 1169.66190075 1140.22265625 1206.5546875 C1138.79450584 1208.12590394 1137.38391432 1209.71336236 1135.99609375 1211.3203125 C1125.49907946 1223.39088302 1113.52238781 1234.11443304 1100.734375 1243.69824219 C1098.98998711 1245.00751531 1097.26062224 1246.33504381 1095.53125 1247.6640625 C1051.37114868 1281.2257395 998.40323999 1301.58555509 943.875 1310.25 C942.9365625 1310.40114258 941.998125 1310.55228516 941.03125 1310.70800781 C919.29413488 1313.93506612 897.48135762 1314.30486166 875.55334355 1314.30200966 C871.30722965 1314.30369412 867.06114721 1314.31696453 862.81505108 1314.32861233 C855.312586 1314.3476137 847.81013708 1314.35930819 840.30765152 1314.36621094 C828.90634518 1314.3767319 817.50507906 1314.39875213 806.10379392 1314.42264248 C785.04944306 1314.46635468 763.9950853 1314.49841311 742.9407081 1314.52617933 C723.83809876 1314.55143084 704.73550114 1314.58097984 685.63290405 1314.61422729 C684.33804568 1314.6164747 683.0431873 1314.61872211 681.70909079 1314.62103762 C677.07913161 1314.62907378 672.44917243 1314.63711249 667.81921329 1314.64517198 C609.58518065 1314.74653873 551.35112896 1314.83092225 493.11706272 1314.91029582 C485.52030253 1314.92065185 477.92354237 1314.93102475 470.32678223 1314.94140625 C469.05347933 1314.94314524 469.05347933 1314.94314524 467.75445314 1314.94491936 C439.37841375 1314.98368518 411.00237756 1315.02440928 382.62634277 1315.06640625 C381.18472711 1315.06853951 381.18472711 1315.06853951 379.71398789 1315.07071587 C370.86702111 1315.08380973 362.02005435 1315.09692206 353.17308762 1315.11004717 C248.49714087 1315.2653231 143.82118692 1315.4165297 -340.04679436 1315.96204001 C-365.51870632 1315.98667711 -390.99061739 1316.01205085 -416.46252789 1316.03814876 C-494.58234593 1316.11815399 -572.70215203 1316.18889987 -650.82200527 1316.22300434 C-656.21722246 1316.22537523 -661.61243964 1316.22775961 -667.00765682 1316.23015555 C-668.53511514 1316.23083152 -670.06257347 1316.23150313 -671.5900318 1316.23217032 C-695.52305619 1316.24263486 -719.45606215 1316.26182269 -743.38907639 1316.28593281 C-767.57998725 1316.31023169 -791.77087712 1316.32365709 -815.96180111 1316.32383865 C-829.59786982 1316.32422042 -843.23387483 1316.3324827 -856.86992854 1316.35294206 C-865.87963648 1316.36561592 -874.88930342 1316.36723165 -883.89901721 1316.3599609 C-888.98324252 1316.35614765 -894.06734509 1316.3567726 -899.15155447 1316.37108433 C-964.94614385 1316.54563531 -1029.17362665 1305.48997033 -1089 1277 C-1089.69254883 1276.67032227 -1090.38509766 1276.34064453 -1091.09863281 1276.00097656 C-1095.77825191 1273.75357295 -1100.3981035 1271.40201794 -1105 1269 C-1105.74121094 1268.61682617 -1106.48242188 1268.23365234 -1107.24609375 1267.83886719 C-1130.47285441 1255.75206287 -1151.92707646 1240.76840143 -1172 1224 C-1172.99902344 1223.18789062 -1173.99804688 1222.37578125 -1175.02734375 1221.5390625 C-1182.8589535 1215.08768645 -1190.12354089 1208.08992018 -1197.3125 1200.9375 C-1198.23135986 1200.02782471 -1199.15021973 1199.11814941 -1200.09692383 1198.1809082 C-1206.15766392 1192.09280586 -1211.63908169 1185.70609338 -1217 1179 C-1218.55950185 1177.1849197 -1220.12133812 1175.37183674 -1221.6875 1173.5625 C-1262.72798694 1124.14899255 -1289.88331334 1057.22026134 -1290.203125 992.55859375 C-1290.21364647 991.12225838 -1290.21364647 991.12225838 -1290.22438049 989.65690613 C-1290.24178001 986.58372227 -1290.24823291 983.51073131 -1290.25 980.4375 C-1290.25067474 979.38576599 -1290.25134949 978.33403198 -1290.25204468 977.25042725 C-1290.23578268 961.29390809 -1289.73323452 945.75645135 -1287 930 C-1286.83371094 928.99565918 -1286.66742187 927.99131836 -1286.49609375 926.95654297 C-1274.11276906 853.76880083 -1233.48979436 782.50421456 -1176 735 C-1175.47132324 734.5575293 -1174.94264648 734.11505859 -1174.39794922 733.65917969 C-1149.40091422 712.77318826 -1122.30520738 695.18993989 -1092.99902344 680.97509766 C-1091.04644705 680.02265627 -1089.10519177 679.04973272 -1087.1640625 678.07421875 C-1034.59370644 652.05415085 -973.58509093 640.72397036 -915.1875 640.8125 C-914.43709442 640.81310425 -913.68668884 640.8137085 -912.9135437 640.81433105 C-884.95246836 640.87470068 -857.47581556 643.83002294 -830 649 C-829.97494385 648.24928223 -829.9498877 647.49856445 -829.92407227 646.72509766 C-827.58282592 589.54130839 -794.66690162 530.1225889 -754 491 C-751.50329623 488.52346347 -749.03036951 486.03170281 -746.59765625 483.4921875 C-740.08915285 476.77308537 -733.17996701 470.96784964 -725.72900391 465.32324219 C-724.09712554 464.07433217 -722.49096919 462.792018 -720.88671875 461.5078125 C-673.21960255 423.59216479 -612.03924719 403.0262828 -552 397 C-550.67125854 396.85316772 -550.67125854 396.85316772 -549.31567383 396.70336914 C-537.31223188 395.55658202 -525.23128493 395.89258264 -513.1875 395.9375 C-510.83789158 395.94252434 -508.48828212 395.9470856 -506.13867188 395.95117188 C-500.42575831 395.96210507 -494.71288409 395.97876931 -489 396 C-488.91024902 395.21278564 -488.82049805 394.42557129 -488.72802734 393.61450195 C-481.23621691 329.10376313 -461.25548699 267.30288249 -425 213 C-424.54415527 212.31147949 -424.08831055 211.62295898 -423.61865234 210.91357422 C-411.08445793 192.04688287 -397.01449656 174.43916865 -381.62109375 157.83984375 C-379.19497394 155.21124599 -376.8120955 152.55007156 -374.4375 149.875 C-368.0558915 142.77546055 -361.36536374 136.03019098 -354.10546875 129.828125 C-351.64272972 127.6897913 -349.26512657 125.46915401 -346.875 123.25 C-341.11552936 118.00476781 -335.07387164 113.20502805 -328.89648438 108.46386719 C-326.9768524 106.98213272 -325.07358806 105.48120403 -323.171875 103.9765625 C-306.72359139 91.05837698 -289.20463758 79.30677601 -271 69 C-270.24203125 68.5683252 -269.4840625 68.13665039 -268.703125 67.69189453 C-188.48344782 22.26876364 -96.92590692 -1.21596788 0 0 Z M-267 97 C-267.84739746 97.51272461 -268.69479492 98.02544922 -269.56787109 98.55371094 C-281.89425878 106.02881762 -293.54169098 114.25898419 -305 123 C-305.96462158 123.73283203 -305.96462158 123.73283203 -306.94873047 124.48046875 C-326.15517045 139.12762298 -345.66821096 155.40480808 -361.375 173.8125 C-363.94748973 176.80230473 -366.57990115 179.72209893 -369.25 182.625 C-374.83677502 188.82622574 -379.92256779 195.38178273 -385 202 C-385.73355713 202.94818604 -385.73355713 202.94818604 -386.48193359 203.91552734 C-434.71871082 266.36085674 -465.76637228 346.51324741 -464 426 C-464.86782104 425.87153687 -464.86782104 425.87153687 -465.75317383 425.74047852 C-468.43916681 425.34470142 -471.12582034 424.95358743 -473.8125 424.5625 C-475.17665039 424.36043945 -475.17665039 424.36043945 -476.56835938 424.15429688 C-479.37641921 423.74747549 -482.18627714 423.36555273 -485 423 C-485.79132324 422.89703613 -486.58264648 422.79407227 -487.39794922 422.68798828 C-497.38313359 421.59086788 -507.46770297 421.75605939 -517.5 421.75 C-518.50276978 421.74932526 -519.50553955 421.74865051 -520.53869629 421.74795532 C-590.02807631 421.82211022 -656.15761798 444.41716956 -711 487 C-712.02351562 487.7940625 -713.04703125 488.588125 -714.1015625 489.40625 C-730.28221987 502.55570242 -745.86995282 518.03050394 -758 535 C-758.82464579 536.09799268 -759.65151663 537.19431734 -760.48046875 538.2890625 C-776.3644955 559.52929505 -788.05610827 583.76278696 -796 609 C-796.23557617 609.7321875 -796.47115234 610.464375 -796.71386719 611.21875 C-803.05864631 631.20344659 -806.07710915 652.43219465 -806.015625 673.37109375 C-806.01449707 674.10743042 -806.01336914 674.84376709 -806.01220703 675.60241699 C-806.00928744 677.40161356 -806.00480461 679.20080748 -806 681 C-806.94915283 680.77860352 -807.89830566 680.55720703 -808.8762207 680.32910156 C-828.82193891 675.69689276 -848.64296537 671.41429365 -869 669 C-869.92377441 668.88430664 -870.84754883 668.76861328 -871.79931641 668.64941406 C-965.49210724 657.3141168 -1066.25878328 683.13074915 -1141.20410156 740.69287109 C-1145.25117001 743.87244379 -1149.22296336 747.13614703 -1153.15917969 750.45166016 C-1154.94310021 751.95214079 -1156.73979462 753.4359534 -1158.5390625 754.91796875 C-1215.49805512 802.28647799 -1256.03077477 874.16772009 -1263.31640625 948.21582031 C-1270.45952834 1028.03342826 -1246.48323262 1102.80246901 -1195.31640625 1164.3125 C-1183.47993494 1178.04520196 -1170.89151577 1191.74406223 -1156.60546875 1202.94921875 C-1153.85076711 1205.11746217 -1151.21592624 1207.39674569 -1148.5625 1209.6875 C-1099.22222822 1250.7513391 -1035.89805017 1275.51096039 -973 1285.8125 C-971.80938965 1286.00763184 -970.6187793 1286.20276367 -969.39208984 1286.40380859 C-949.95487714 1289.40781378 -930.74121344 1290.29183933 -911.09048462 1290.24723816 C-908.5178483 1290.24883231 -905.94521241 1290.251302 -903.37257767 1290.2545594 C-897.79369438 1290.26021346 -892.21485199 1290.25853172 -886.63597035 1290.25187886 C-878.27887531 1290.24194663 -869.92180924 1290.24368925 -861.56471062 1290.24755246 C-847.3029711 1290.25379619 -833.04124814 1290.25049492 -818.7795105 1290.24187088 C-804.32003607 1290.2331478 -789.86056968 1290.22864345 -775.40109253 1290.22925949 C-774.48563919 1290.22929457 -773.57018585 1290.22932966 -772.6269915 1290.2293658 C-768.89733629 1290.22951925 -765.16768109 1290.22969788 -761.43802589 1290.22991005 C-723.52903425 1290.23202414 -685.6200546 1290.22068421 -647.71106703 1290.20419786 C-618.19673901 1290.19139205 -588.68241258 1290.18241382 -559.16808232 1290.17684249 C-549.57506947 1290.17502345 -539.98205664 1290.17311117 -530.38904381 1290.17119122 C-528.79785279 1290.17087308 -528.79785279 1290.17087308 -527.1745165 1290.17054851 C-415.41472425 1290.14805528 -303.65495187 1290.09178336 232.72729861 1289.58948982 C247.73319166 1289.5715222 262.73908504 1289.55386304 277.74497881 1289.53650611 C375.12253133 1289.42387185 472.50004115 1289.29786568 596.88716495 1289.06146973 C600.46094503 1289.0545343 604.03472513 1289.0476068 607.60850525 1289.04068756 C608.49113319 1289.03897828 609.37376113 1289.037269 610.28313538 1289.03550792 C623.69799607 1289.00958831 637.11285925 1288.98550359 650.52772522 1288.96248627 C688.03986022 1288.89791865 725.55194458 1288.82561079 763.0640012 1288.72446936 C766.22283937 1288.71598153 769.38167761 1288.70752149 772.5405159 1288.69907951 C773.31518168 1288.69700202 774.08984745 1288.69492452 774.88798795 1288.69278407 C787.07171213 1288.66032483 799.25543407 1288.63724991 811.43918563 1288.61809151 C823.38544473 1288.5990627 835.33163791 1288.56920218 847.2778416 1288.52802639 C853.64041678 1288.50649318 860.00291241 1288.48936611 866.36552477 1288.48526073 C907.48116577 1288.45338803 946.35422864 1285.92776847 986 1274 C986.84272461 1273.75056641 987.68544922 1273.50113281 988.55371094 1273.24414062 C1046.24632033 1255.93413287 1099.9004973 1219.38258029 1136 1171 C1136.49000488 1170.34515625 1136.98000977 1169.6903125 1137.48486328 1169.015625 C1145.29080173 1158.49730485 1151.99587248 1147.63644532 1158 1136 C1158.41491699 1135.20674316 1158.82983398 1134.41348633 1159.25732422 1133.59619141 C1187.24885082 1079.56102991 1192.46623438 1015.57358395 1174.57421875 957.4777832 C1163.98890452 925.02423161 1147.2158444 895.84497398 1125 870 C1123.90365234 868.70835937 1123.90365234 868.70835937 1122.78515625 867.390625 C1112.24622003 855.33456744 1100.76507677 843.69232789 1088 834 C1086.8135063 833.07329524 1085.62733044 832.14618345 1084.44140625 831.21875 C1050.39729157 803.90409548 1050.39729157 803.90409548 1011 790 C1011.33 789.01 1011.66 788.02 1012 787 C1012.10937256 784.39196998 1012.16368891 781.81156421 1012.16796875 779.203125 C1012.17224884 778.4264447 1012.17652893 777.6497644 1012.18093872 776.84954834 C1012.19098401 774.31630776 1012.19097877 771.78325687 1012.1875 769.25 C1012.18609512 767.95231689 1012.18609512 767.95231689 1012.18466187 766.62841797 C1012.15257541 752.99467939 1011.83487508 739.52854522 1010 726 C1009.84934082 724.88351074 1009.69868164 723.76702148 1009.54345703 722.61669922 C999.78260016 653.09051891 969.64258361 589.94256205 924 537 C923.39671875 536.29488281 922.7934375 535.58976562 922.171875 534.86328125 C912.46260934 523.62221397 902.38925057 512.51611047 891.109375 502.83203125 C888.82370454 500.84688413 886.60298622 498.7996017 884.375 496.75 C878.17016273 491.16658801 871.63462611 486.05510626 865 481 C864.2972998 480.46213867 863.59459961 479.92427734 862.87060547 479.37011719 C787.02151037 421.5691999 692.15532156 390.13074055 597 388 C595.62158936 387.96712891 595.62158936 387.96712891 594.21533203 387.93359375 C543.43823074 386.90727538 493.99695592 395.19436652 445 408 C445.01885254 407.44562256 445.03770508 406.89124512 445.05712891 406.32006836 C445.1983013 398.63858354 444.3651105 391.17204346 443.375 383.5625 C443.2876358 382.88903534 443.20027161 382.21557068 443.11026001 381.521698 C433.92374108 311.66863583 403.55713703 244.63857699 358 191 C357.1156828 189.9415755 356.23158057 188.88297137 355.34765625 187.82421875 C333.88188984 162.27812204 309.73110181 139.91206409 283 120 C282.28328125 119.4622998 281.5665625 118.92459961 280.828125 118.37060547 C209.82475601 65.26174561 123.89503513 36.16664374 28 27 C27.04561035 26.91379395 26.0912207 26.82758789 25.10791016 26.73876953 C19.73783822 26.28334549 14.38798382 26.08066677 9 26 C7.13335693 25.9693042 7.13335693 25.9693042 5.22900391 25.93798828 C-90.48741994 24.53024991 -184.91202845 46.76020517 -267 97 Z " fill="#BFBEBE" transform="translate(1290,0)"/>
<path d="M0 0 C1.17807724 -0.0049649 2.35615448 -0.00992981 3.56993103 -0.01504517 C6.79149328 -0.02711825 10.01301932 -0.03460339 13.23460007 -0.03905582 C15.25390649 -0.04199788 17.27320738 -0.04610491 19.29251099 -0.05056 C25.62927121 -0.0642236 31.96601862 -0.07389409 38.30279255 -0.07776189 C45.5818196 -0.08223082 52.86065777 -0.09972902 60.13962746 -0.12876248 C65.78833195 -0.15049922 71.4369838 -0.16047262 77.0857296 -0.16180301 C80.44862292 -0.16284313 83.81119819 -0.17006336 87.17407227 -0.18662262 C116.80128935 -0.32205767 141.28832814 4.92875988 163.25 26.16113281 C180.26969744 44.07056148 185.82427428 65.68022519 185.51953125 89.77050781 C184.87082192 111.56458477 173.78331982 131.50793376 158.33984375 146.48535156 C141.59127119 161.50972662 120.04467781 168.29873462 97.87719727 168.32226562 C96.75095444 168.32723053 95.62471161 168.33219543 94.46434021 168.33731079 C90.74835592 168.3518813 87.03241438 168.35872742 83.31640625 168.36425781 C80.71915181 168.37001531 78.12189738 168.37577297 75.52464294 168.38153076 C70.77337598 168.39068799 66.02212593 168.39699289 61.27085167 168.40002751 C54.32012364 168.40449343 47.3695937 168.42197952 40.41892582 168.45102811 C34.36358703 168.47543883 28.30832857 168.48298107 22.25294304 168.48470306 C19.69556541 168.4877098 17.13818821 168.49567051 14.58084297 168.50888824 C-14.65921641 168.64917777 -40.05364747 164.44232288 -61.77734375 143.19238281 C-78.8716045 125.96318158 -86.02011986 105.58693455 -86.0690918 81.55078125 C-85.96338319 72.49666873 -84.68746475 64.73195923 -81.75 56.16113281 C-81.399375 55.11054687 -81.04875 54.05996094 -80.6875 52.97753906 C-77.64112675 44.84329938 -72.92030469 38.0517727 -67.75 31.16113281 C-67.28078125 30.505 -66.8115625 29.84886719 -66.328125 29.17285156 C-50.89188572 9.21055447 -24.29446039 0.0245422 0 0 Z M-40.0625 49.41113281 C-48.95287688 60.03221831 -53.44965237 73.34879724 -53.03515625 87.15332031 C-51.63202827 101.95343737 -45.05608981 114.68803195 -34.0234375 124.61425781 C-25.21744653 131.63116882 -14.48558136 137.24893846 -2.99061584 137.30830383 C-2.03627655 137.31545914 -1.08193726 137.32261444 -0.09867859 137.32998657 C0.94185165 137.33267548 1.9823819 137.33536438 3.05444336 137.33813477 C4.15580627 137.34470596 5.25716919 137.35127716 6.39190674 137.35804749 C10.04121979 137.37777496 13.69049161 137.3894446 17.33984375 137.39941406 C18.58869417 137.40348959 19.83754459 137.40756512 21.12423897 137.41176414 C27.0578795 137.43047632 32.99150701 137.44503892 38.92516989 137.45337611 C45.74527816 137.46311971 52.56505939 137.48936469 59.38505262 137.52987701 C65.31383433 137.56386956 71.24253759 137.57553726 77.17141914 137.57958031 C79.68104831 137.58443213 82.19067435 137.59600566 84.70023918 137.6146183 C106.01880306 137.76284845 121.7629037 135.78954174 137.92578125 120.64160156 C148.50852013 109.34741805 152.83318287 95.36677785 152.5234375 80.14160156 C151.58394252 66.46523895 144.84406722 53.59733071 134.8984375 44.26269531 C121.46018303 33.59930164 107.1715574 30.00732358 90.26074219 30.01586914 C89.29373886 30.01251053 88.32673553 30.00915192 87.33042908 30.00569153 C84.15256443 29.99623936 80.97475281 29.99424125 77.796875 29.99316406 C75.57261128 29.9899473 73.34834776 29.98658292 71.12408447 29.983078 C66.46732086 29.97710092 61.81057577 29.97523662 57.15380859 29.97583008 C51.21161417 29.97593157 45.26953957 29.96228599 39.3273735 29.94505787 C34.73404402 29.93389244 30.14074309 29.93191227 25.54740143 29.9324398 C23.35793902 29.93126628 21.16847572 29.92688007 18.97902679 29.91910744 C-4.02880429 29.84507897 -23.28135572 31.83391907 -40.0625 49.41113281 Z " fill="#EA2227" transform="translate(689.75,658.8388671875)"/>
<path d="M0 0 C1.27976212 -0.00043808 2.55952423 -0.00087616 3.87806702 -0.00132751 C7.33800312 -0.00217712 10.79761779 0.01527753 14.25748014 0.03639436 C17.89157638 0.05533687 21.52568256 0.05692527 25.15982056 0.06047058 C32.01949712 0.06974004 38.87902771 0.09428355 45.73864043 0.12451905 C53.55741715 0.15822333 61.37620138 0.17458907 69.19503284 0.18960536 C85.25852487 0.22083863 101.32187067 0.27349814 117.38525391 0.34057617 C117.0449392 0.92743509 116.7046245 1.51429401 116.35399723 2.11893654 C113.98726691 6.27342652 111.9495506 10.14529696 110.60766602 14.75610352 C107.96840036 21.58289946 104.8415361 26.61674849 98.38525391 30.34057617 C83.68128698 34.5677447 66.57122596 32.56833875 51.47851562 32.07122803 C44.48044445 31.86182301 37.47991209 31.78961095 30.47940731 31.70541954 C25.0258719 31.63843437 19.57624563 31.54952269 14.12464905 31.38687134 C-5.01189846 30.88079167 -21.80670174 32.74010223 -37.05224609 45.59057617 C-44.25552425 52.54505689 -48.11702883 60.01333015 -51.61474609 69.34057617 C1.18525391 69.34057617 53.98525391 69.34057617 108.38525391 69.34057617 C106.07525391 72.97057617 103.76525391 76.60057617 101.38525391 80.34057617 C99.6108058 83.17177372 97.83862375 86.00406083 96.07275391 88.84057617 C95.22291867 90.20542434 94.37267454 91.57001801 93.52197266 92.93432617 C92.97609497 93.81121094 92.97609497 93.81121094 92.41918945 94.70581055 C91.43218465 96.26637351 90.40950376 97.80420139 89.38525391 99.34057617 C86.93710899 99.70971966 86.93710899 99.70971966 83.7918396 99.70133972 C82.60269455 99.70546371 81.4135495 99.70958771 80.18836975 99.71383667 C78.87710617 99.70305084 77.56584259 99.69226501 76.21484375 99.68115234 C74.82540404 99.68030647 73.43596298 99.68078043 72.04652405 99.68247986 C68.26772064 99.68334281 64.48920123 99.6656688 60.710464 99.64475799 C56.76399126 99.626041 52.81751247 99.62424469 48.8710022 99.62068176 C41.39469511 99.61134661 33.91851918 99.58671304 26.44226992 99.55663329 C17.93212584 99.52313492 9.42197559 99.50661478 0.91178203 99.49154699 C-16.59713662 99.46016469 -34.1059275 99.40737575 -51.61474609 99.34057617 C-50.3957098 101.88754531 -49.16505056 104.42774367 -47.92724609 106.96557617 C-47.58757812 107.67842773 -47.24791016 108.3912793 -46.89794922 109.12573242 C-40.87408538 121.39865127 -30.15070673 129.32774142 -17.49894905 134.14642048 C-10.48908997 136.48160182 -3.98639574 136.78196068 3.36230469 136.77294922 C5.25181099 136.78823669 5.25181099 136.78823669 7.17948914 136.80383301 C10.60236515 136.83119868 14.02507507 136.84065936 17.44804621 136.84668708 C21.03687157 136.85612454 24.62557545 136.88233186 28.21432495 136.9066925 C34.99612533 136.95021444 41.77790194 136.97884892 48.55979908 137.00201589 C56.28667754 137.02914469 64.01343291 137.07305116 71.74022317 137.11830461 C87.62183662 137.21094574 103.50347331 137.28271998 119.38525391 137.34057617 C118.54279089 141.16563953 116.98659962 143.82184926 114.85791016 147.12963867 C113.7934668 148.78866211 113.7934668 148.78866211 112.70751953 150.48120117 C112.33667236 151.05290039 111.9658252 151.62459961 111.58374023 152.21362305 C110.44946954 153.96293026 109.32395456 155.71762696 108.19970703 157.47338867 C102.6706988 166.05513128 102.6706988 166.05513128 100.38525391 168.34057617 C98.46873379 168.59505177 98.46873379 168.59505177 96.08311462 168.60127258 C95.17937607 168.60835739 94.27563751 168.6154422 93.34451294 168.6227417 C92.34983002 168.62026428 91.35514709 168.61778687 90.33032227 168.61523438 C88.76150551 168.62290077 88.76150551 168.62290077 87.16099548 168.63072205 C83.68230548 168.64468592 80.20381247 168.64365414 76.72509766 168.64135742 C74.30245388 168.64524476 71.87981079 168.64957951 69.45716858 168.65434265 C64.36180422 168.66182242 59.26650908 168.66150389 54.17114258 168.65625 C47.68215612 168.65049708 41.19345898 168.66727599 34.70452023 168.69059467 C29.68976721 168.70543679 24.67508184 168.7061888 19.66031075 168.70308495 C17.27123002 168.70359437 14.88214513 168.70876003 12.49308586 168.71889687 C-17.92523096 168.83197212 -42.58034644 163.52094973 -65.30224609 141.96557617 C-81.86820096 124.70129066 -88.23679906 102.22839269 -87.88427734 78.87182617 C-87.09467874 56.31186613 -75.65835998 36.43072539 -59.65380859 20.97729492 C-43.15171631 6.20970546 -21.88175544 -0.20092819 0 0 Z " fill="#EA2227" transform="translate(1814.61474609375,658.659423828125)"/>
<path d="M0 0 C25.1625 -0.061875 50.325 -0.12375 76.25 -0.1875 C88.14595215 -0.22846802 88.14595215 -0.22846802 100.28222656 -0.27026367 C110.00341797 -0.28381348 110.00341797 -0.28381348 114.5614624 -0.28633118 C117.72933317 -0.28911413 120.89705148 -0.30030838 124.06488037 -0.31672668 C128.11777189 -0.33745074 132.17044479 -0.3434466 136.22338438 -0.33921683 C137.70322125 -0.34010004 139.18306652 -0.34596164 140.66285753 -0.35764539 C158.80256213 -0.49410319 173.53018651 3.98907025 186.8515625 16.75 C197.45499424 27.85468488 203.01093091 41.05162367 203.375 56.4375 C202.97000057 72.32967746 197.73181917 86.06681638 186.640625 97.6484375 C173.4577345 109.38823052 159.00761997 113.70500418 141.5625 114.5625 C140.32209961 114.62727539 140.32209961 114.62727539 139.05664062 114.69335938 C137.03790451 114.79838033 135.01897049 114.89958559 133 115 C133.85980469 115.66644531 134.71960937 116.33289063 135.60546875 117.01953125 C142.22489951 122.17301502 148.73362424 127.41681444 155.10449219 132.87451172 C158.96961202 136.16931061 162.92438206 139.32529747 166.9375 142.4375 C172.48866849 146.74310471 177.84130087 151.23804008 183.14086914 155.84887695 C186.29679828 158.58311062 189.48883153 161.17479711 192.875 163.625 C193.90625 164.40875 194.9375 165.1925 196 166 C196 166.66 196 167.32 196 168 C189.29773339 168.33326188 182.59764049 168.55871717 175.88891602 168.71411133 C173.6140159 168.77896135 171.33964627 168.86728534 169.06665039 168.98071289 C148.16042403 169.99682814 148.16042403 169.99682814 140.16676331 163.51115417 C137.79356799 161.30193823 135.58181589 159.00183516 133.43992615 156.56864929 C131.33660691 154.27730245 128.9504492 152.40574691 126.5 150.5 C120.16800484 145.36873873 114.04710553 140.00143725 107.90087891 134.65087891 C99.95633072 127.75118267 91.93994734 120.93468727 83.8984375 114.1484375 C80.47260646 111.25477439 77.06474133 108.34117287 73.66577148 105.41601562 C62.62156049 95.9090651 62.62156049 95.9090651 51.19140625 86.875 C50.46824219 86.25625 49.74507812 85.6375 49 85 C49 84.34 49 83.68 49 83 C50.21807343 82.99635437 51.43614685 82.99270874 52.69113159 82.98895264 C64.19620055 82.95193745 75.70100346 82.89409329 87.20586967 82.81609726 C93.12000478 82.77666589 99.03399196 82.74445597 104.94824219 82.72900391 C110.66076054 82.71380898 116.37287208 82.67931247 122.08520889 82.63169098 C124.25953756 82.61690652 126.43392431 82.60896068 128.60830307 82.60811615 C131.66492329 82.60573595 134.7204288 82.5785709 137.77685547 82.54589844 C138.66662582 82.5509288 139.55639618 82.55595917 140.47312927 82.56114197 C147.94975348 82.43829447 154.80323266 80.6279308 160.65625 75.81640625 C161.2646875 75.07261719 161.873125 74.32882812 162.5 73.5625 C163.44359375 72.45068359 163.44359375 72.45068359 164.40625 71.31640625 C168.5016737 65.36398896 169.65639186 58.61729832 168.4375 51.5625 C166.43708657 43.89204055 162.13583388 38.11014934 155.41796875 33.97265625 C148.09646141 31.02749417 140.68406827 30.69813422 132.88061523 30.68115234 C131.24347738 30.66592246 131.24347738 30.66592246 129.57326603 30.6503849 C126.06837828 30.61994484 122.56357094 30.60264896 119.05859375 30.5859375 C116.88349726 30.56898698 114.70840736 30.55116859 112.5333252 30.5324707 C104.50145897 30.46947789 96.46946838 30.42324005 88.4375 30.375 C70.473125 30.25125 52.50875 30.1275 34 30 C34 75.54 34 121.08 34 168 C22.78 168 11.56 168 0 168 C0 112.56 0 57.12 0 0 Z " fill="#EA2227" transform="translate(892,659)"/>
<path d="M0 0 C5.57839535 3.91298904 9.00239431 8.57462934 12.4375 14.375 C13.48931705 16.09290662 14.54414883 17.80897007 15.6015625 19.5234375 C16.15489258 20.42288086 16.70822266 21.32232422 17.27832031 22.24902344 C20.18904598 26.89991068 23.25220357 31.44669675 26.3125 36 C32.94901893 45.90306946 39.52072394 55.84668283 46.0625 65.8125 C46.54828522 66.55242187 47.03407043 67.29234375 47.53457642 68.0546875 C50.02758479 71.85207136 52.52004704 75.64981322 55.01220703 79.44775391 C59.36286232 86.07736601 63.71854116 92.70367611 68.07394409 99.33016968 C69.49552252 101.49318725 70.91686812 103.65635763 72.33813477 105.81958008 C76.79751076 112.60675139 81.25804299 119.39315532 85.72229004 126.17712402 C87.8125895 129.35373095 89.90228819 132.53073288 91.99194336 135.70776367 C92.98073945 137.21072733 93.96982435 138.71350102 94.95922852 140.21606445 C97.59210424 144.21457161 100.22089093 148.21567045 102.83935547 152.22363281 C103.60165516 153.39033298 104.3649702 154.55637048 105.12939453 155.72167969 C106.14315358 157.26964887 107.14994048 158.82217769 108.15625 160.375 C108.71119141 161.22835937 109.26613281 162.08171875 109.83789062 162.9609375 C111 165 111 165 111 167 C76.33132245 170.33376153 76.33132245 170.33376153 67.91015625 165.06787109 C63.55249886 160.37221592 61.03883501 154.90958292 59.1262207 148.8359375 C57.53942357 144.84022203 55.94257779 141.19037992 53 138 C50.11710143 136.89485676 47.4446503 137.0347201 44.3894043 137.17456055 C43.53345673 137.18130798 42.67750916 137.18805542 41.79562378 137.19500732 C39.941297 137.2142589 38.08708909 137.25166725 36.23343468 137.3051815 C33.29374102 137.38757296 30.35770695 137.41730948 27.41694641 137.43281555 C19.06116956 137.48743869 10.70783485 137.64568063 2.35375977 137.81762695 C-2.76154196 137.91929261 -7.87523191 137.96715754 -12.99147606 137.9843235 C-15.88105595 138.01130119 -18.76428275 138.1017902 -21.65242004 138.19352722 C-34.30736905 138.36969139 -34.30736905 138.36969139 -38.90609741 134.64836121 C-40.97257928 131.84434051 -42.49911174 129.13551619 -44 126 C-45.0393367 124.41039308 -46.0979349 122.83295258 -47.1875 121.27734375 C-48.12819148 119.83280246 -49.06576358 118.38622437 -50 116.9375 C-50.73283203 115.82084961 -50.73283203 115.82084961 -51.48046875 114.68164062 C-51.94066406 113.97072266 -52.40085937 113.25980469 -52.875 112.52734375 C-53.28492188 111.89562256 -53.69484375 111.26390137 -54.1171875 110.61303711 C-55 109 -55 109 -55 107 C-26.62 106.67 1.76 106.34 31 106 C20.01913441 88.73766383 20.01913441 88.73766383 9 71.5 C1.64315689 60.01492835 -5.6846931 48.51156367 -13 37 C-18.0712177 43.68607474 -22.67249146 50.54028233 -27.07788086 57.67407227 C-30.14071621 62.63341806 -33.26331468 67.54868025 -36.4375 72.4375 C-36.89487549 73.14213379 -37.35225098 73.84676758 -37.82348633 74.57275391 C-38.75162098 76.00168064 -39.68008823 77.43039139 -40.60888672 78.85888672 C-42.91122278 82.40249628 -45.20520916 85.95150163 -47.5 89.5 C-48.41662617 90.91669287 -49.33329285 92.33335953 -50.25 93.75 C-50.70375 94.45125 -51.1575 95.1525 -51.625 95.875 C-56.66666667 103.66666667 -61.70833333 111.45833333 -66.75 119.25 C-67.20366943 119.95116943 -67.65733887 120.65233887 -68.12475586 121.37475586 C-69.04207439 122.79234113 -69.95955505 124.20982151 -70.87719727 125.62719727 C-73.61472862 129.85607395 -76.35210634 134.08499761 -79.06713867 138.32836914 C-79.98232244 139.73693364 -80.91631024 141.13345366 -81.8684082 142.51733398 C-84.42756308 146.27930477 -86.37838537 149.79254042 -87.953125 154.0703125 C-90.30558709 159.6861993 -92.41149318 164.11855872 -98 167 C-110.81425956 169.83837072 -125.04282806 168.06310597 -138 167 C-136.43287828 162.91357049 -134.53999455 159.62262823 -132.0625 156 C-131.15747216 154.66369536 -130.25396587 153.32635959 -129.3515625 151.98828125 C-128.83110352 151.21693848 -128.31064453 150.4455957 -127.77441406 149.65087891 C-124.11979669 144.19107766 -120.5340167 138.6856665 -116.9375 133.1875 C-116.10835349 131.92079321 -115.27917027 130.65411045 -114.44995117 129.38745117 C-111.96574552 125.59221513 -109.48278684 121.79616429 -107 118 C-106.24984498 116.85318504 -105.49968246 115.70637499 -104.74951172 114.55957031 C-100.5293843 108.10772731 -96.31073273 101.65492075 -92.09277344 95.20166016 C-87.85264486 88.71483722 -83.61125638 82.22883799 -79.37011719 75.74267578 C-75.1541036 69.29482573 -70.93870141 62.84657664 -66.72387695 56.39794922 C-64.62530063 53.18795985 -62.52556085 49.9787336 -60.42578125 46.76953125 C-57.68444578 42.57905351 -54.94742559 38.38582333 -52.21472168 34.18971252 C-50.49951396 31.55689774 -48.78210977 28.92551976 -47.06439209 26.29434204 C-46.24183842 25.03324146 -45.4202349 23.77152054 -44.59967041 22.50912476 C-30.75562463 1.21370178 -30.75562463 1.21370178 -21.75 -2.25 C-14.0188806 -3.79622388 -7.05433482 -3.74669707 0 0 Z " fill="#EA2227" transform="translate(1233,660)"/>
<path d="M0 0 C1.10208801 -0.00137466 2.20417603 -0.00274933 3.33966064 -0.00416565 C4.533685 -0.00057037 5.72770935 0.0030249 6.95791626 0.00672913 C8.86117676 0.00651009 8.86117676 0.00651009 10.80288696 0.00628662 C14.26937754 0.00600051 17.7358333 0.01186709 21.20231581 0.01886058 C24.82980134 0.02512517 28.45728773 0.02570037 32.08477783 0.02688599 C38.94820015 0.02999015 45.81160648 0.0381912 52.67502177 0.04823548 C60.49121312 0.05942503 68.30740525 0.06491422 76.12360263 0.06993091 C92.19680116 0.08037459 108.26998362 0.0979563 124.34317017 0.12025452 C122.83035827 4.0549324 121.03826904 7.31677603 118.68301392 10.82337952 C117.97209595 11.88556702 117.26117798 12.94775452 116.52871704 14.04212952 C116.1599646 14.58804749 115.79121216 15.13396545 115.4112854 15.69642639 C114.27656585 17.37633078 113.14817696 19.06034592 112.02090454 20.74525452 C106.51127661 28.95214807 106.51127661 28.95214807 105.34317017 30.12025452 C102.30197208 30.23502424 99.28257477 30.28512697 96.24038696 30.2938385 C95.28415939 30.30052551 94.32793182 30.30721252 93.34272766 30.31410217 C91.25670861 30.3281938 89.17067376 30.34007459 87.08463097 30.35004997 C83.77531182 30.36643281 80.46610755 30.38967535 77.15684509 30.41494751 C67.74399545 30.48575735 58.33109584 30.54555244 48.91812134 30.59706116 C43.16565728 30.62902288 37.41331992 30.670355 31.66095924 30.71725655 C29.47431557 30.73319087 27.28764264 30.74555157 25.10095787 30.75416374 C3.52699097 30.84027472 -15.35479599 32.3781972 -31.84432983 47.87025452 C-41.89647763 58.44199643 -46.29799907 71.36046041 -46.13168335 85.80409241 C-45.51123654 101.00933599 -38.63381224 113.84103378 -27.65682983 124.12025452 C-18.37817028 131.21809044 -7.96044876 136.19802927 3.84178162 136.2784729 C5.48023041 136.29315613 5.48023041 136.29315613 7.15177917 136.30813599 C8.93418251 136.31676918 8.93418251 136.31676918 10.75259399 136.32557678 C12.6410051 136.34042618 12.6410051 136.34042618 14.56756592 136.35557556 C18.01135477 136.38254696 21.45515722 136.4035984 24.89899278 136.42357755 C28.50115307 136.44548516 32.10327182 136.47285043 35.70539856 136.49963379 C42.52278299 136.54949622 49.34019056 136.5944589 56.15762013 136.63765615 C63.92061457 136.68708374 71.68356732 136.74198135 79.4465214 136.79733574 C95.41203244 136.91105674 111.37758186 137.0179172 127.34317017 137.12025452 C127.0318537 137.88491437 126.72053724 138.64957422 126.39978695 139.43740559 C125.29826719 142.1361175 125.29826719 142.1361175 124.43730164 145.0458374 C121.42672737 154.14035942 117.08506879 163.35075844 108.34317017 168.12025452 C92.33677746 173.28946422 73.17712477 170.79094335 56.65310669 170.08039856 C50.22936965 169.83548131 43.80366529 169.75498305 37.37637329 169.65345764 C-30.72642931 168.34200785 -30.72642931 168.34200785 -56.65682983 142.12025452 C-57.47151733 141.31587952 -58.28620483 140.51150452 -59.12557983 139.68275452 C-73.7928167 124.41275449 -80.24929303 104.48289618 -80.90682983 83.55775452 C-80.13834042 59.37294071 -70.42434612 38.04174483 -52.90682983 21.43275452 C-38.59757034 9.05059344 -19.19898171 -0.01856768 0 0 Z " fill="#EA2227" transform="translate(1406.6568298339844,658.8797454833984)"/>
<path d="M0 0 C454.41 0 908.82 0 1377 0 C1377 2.97 1377 5.94 1377 9 C922.59 9 468.18 9 0 9 C0 6.03 0 3.06 0 0 Z " fill="#000000" transform="translate(604,921)"/>
<path d="M0 0 C81.21405967 0 81.21405967 0 100.75 18.1875 C109.18460673 27.12003521 113.25103898 37.16173237 116 49 C116.1750708 49.74668945 116.3501416 50.49337891 116.53051758 51.26269531 C120.02939659 71.6628157 118.27351442 96.38826525 107 114 C95.91715962 128.53315862 82.00234311 136.18058542 64 139 C42.72690797 140.63639169 21.33593734 140 0 140 C0 93.8 0 47.6 0 0 Z M30 24 C30 54.36 30 84.72 30 116 C54.29571541 116.72654528 54.29571541 116.72654528 74.8125 105.875 C85.64799244 94.06840211 85.72922361 77.4830505 85.15234375 62.40917969 C84.39556814 50.44145263 80.85172849 39.78523485 71.93359375 31.5 C60.05350818 22.28393362 44.09119397 24 30 24 Z " fill="#000000" transform="translate(1504,1018)"/>
<path d="M0 0 C14.30972982 11.99953833 21.25354293 30.12812333 22.875 48.375 C24.04644089 71.04476035 21.55333905 94.39486361 6.625 112.625 C-4.43729425 124.48785502 -20.55792719 131.16816417 -36.640625 131.80859375 C-38.88529527 131.83197573 -41.13029949 131.83277181 -43.375 131.8125 C-44.55578125 131.80492676 -45.7365625 131.79735352 -46.953125 131.78955078 C-64.41828066 131.46160035 -78.92523311 127.02826561 -91.83984375 114.7890625 C-106.3788012 99.42995873 -110.29489599 80.34157429 -110.375 59.875 C-110.395625 58.58851562 -110.41625 57.30203125 -110.4375 55.9765625 C-110.51608467 36.44827239 -104.91786268 17.82703216 -91.5625 3.1875 C-67.75860165 -19.06297696 -25.52409169 -18.97845968 0 0 Z M-69.125 20.375 C-80.15774229 36.76149932 -80.32514965 60.10206617 -77 79 C-74.47326981 90.44047282 -70.06215335 99.73358595 -60.125 106.375 C-52.26068938 110.79399359 -41.71820714 110.74027104 -33.1484375 108.6484375 C-23.81089196 105.17859429 -18.28456795 99.30342472 -14.125 90.375 C-6.74949906 70.2855403 -6.70534162 45.04171038 -15.44140625 25.41796875 C-18.63539285 19.61309392 -22.39559406 15.69433078 -28.125 12.375 C-28.70636719 12.03597656 -29.28773437 11.69695312 -29.88671875 11.34765625 C-43.14109425 5.10861182 -59.90079485 9.44481282 -69.125 20.375 Z " fill="#000000" transform="translate(1313.125,1028.625)"/>
<path d="M0 0 C11.22 0 22.44 0 34 0 C34 45.21 34 90.42 34 137 C84.49 137 134.98 137 187 137 C184.26378519 147.94485923 177.20827173 161.09128538 168 168 C157.72638053 172.37681037 146.07637908 171.34076558 135.13935232 170.86936259 C130.86930629 170.71357393 126.59889532 170.7112288 122.32644653 170.69032288 C115.16666557 170.63451818 108.01479246 170.4813512 100.85839844 170.2565918 C90.78206818 169.94027745 80.70900761 169.80255058 70.62855315 169.69964206 C62.77010931 169.61335385 54.91229893 169.4818056 47.0546875 169.33984375 C46.21738019 169.32495557 45.38007289 169.31006738 44.51739264 169.29472804 C39.699893 169.2056175 34.88390794 169.09294247 30.06780434 168.94635201 C28.61356907 168.9045082 27.15913787 168.86890891 25.70458412 168.8401947 C17.79748579 168.67772721 11.71163008 168.38191324 5 164 C0.60106422 159.37547777 -0.12527761 155.97062264 -0.12025452 149.71687317 C-0.12162918 148.40014114 -0.12300385 147.08340912 -0.12442017 145.72677612 C-0.12088099 144.26422096 -0.11724618 142.80166604 -0.11352539 141.33911133 C-0.11324337 139.80174257 -0.11340154 138.26437368 -0.1139679 136.727005 C-0.1142553 132.54961817 -0.10836778 128.37225994 -0.10139394 124.19487977 C-0.09515091 119.83066086 -0.09455585 115.46644132 -0.09336853 111.10221863 C-0.09025802 102.83622543 -0.0820484 94.57024543 -0.07201904 86.30425805 C-0.06084922 76.89445396 -0.05534526 67.48464925 -0.05032361 58.07484019 C-0.03986556 38.71655112 -0.02152355 19.35828015 0 0 Z " fill="#EA2227" transform="translate(1548,659)"/>
<path d="M0 0 C9.9 0 19.8 0 30 0 C30.02505615 2.2790625 30.0501123 4.558125 30.07592773 6.90625 C30.15999193 14.49781712 30.24859498 22.0893266 30.33933926 29.68081665 C30.39413707 34.2764478 30.44747996 38.87208557 30.49731445 43.46777344 C30.54560455 47.91581863 30.59795575 52.3638003 30.65294075 56.81176758 C30.67307614 58.49550766 30.69183032 60.17926493 30.70907402 61.86303711 C29.6599338 87.8898329 29.6599338 87.8898329 39 111 C45.76177225 117.57394524 53.03927513 118.44557616 62.0612793 118.35327148 C69.266117 118.11769786 74.29322824 116.73641962 80.3125 112.875 C91.01809369 101.42250442 89.32752261 83.81063754 89.4140625 69.23828125 C89.43280022 67.23617274 89.45237551 65.23407191 89.4727478 63.23197937 C89.52380011 57.99606887 89.56356885 52.76013285 89.60089111 47.52410889 C89.64110055 42.16770248 89.69211513 36.8113998 89.7421875 31.45507812 C89.83862782 20.97011815 89.92213319 10.48511438 90 0 C99.9 0 109.8 0 120 0 C120.09064849 12.68346647 120.16391605 25.36671503 120.20724869 38.05043316 C120.22805429 43.94105325 120.25624294 49.83143872 120.30175781 55.72192383 C120.34546686 61.41483148 120.36918986 67.10751455 120.37950897 72.80057716 C120.38685555 74.96412499 120.40120078 77.12766162 120.42292023 79.2911129 C120.59287964 96.93472742 119.29009916 111.37751748 107.0390625 125.21484375 C94.42226197 137.43297214 77.79603438 141.59026568 60.6875 141.4375 C58.91354858 141.42722778 58.91354858 141.42722778 57.10375977 141.41674805 C48.17043791 141.25303077 40.37556174 140.29814867 32 137 C31.08734375 136.649375 30.1746875 136.29875 29.234375 135.9375 C17.02229968 130.54320906 7.7321512 120.1502403 2.859375 107.8828125 C0.60203842 100.31047432 -0.29353693 93.02530518 -0.22705078 85.14404297 C-0.22734283 84.2159935 -0.22763489 83.28794403 -0.22793579 82.33177185 C-0.22655615 79.30181115 -0.21106001 76.27210459 -0.1953125 73.2421875 C-0.19157751 71.12655776 -0.18873283 69.01092628 -0.18673706 66.89529419 C-0.17913892 61.35513445 -0.15952356 55.81508131 -0.1373291 50.27496338 C-0.11678803 44.61040692 -0.10771774 38.94583306 -0.09765625 33.28125 C-0.07627378 22.18744588 -0.04112311 11.09374853 0 0 Z " fill="#000000" transform="translate(1358,1019)"/>
<path d="M0 0 C0.92425781 0.36222656 1.84851562 0.72445312 2.80078125 1.09765625 C12.89585826 5.61669679 20.37541041 12.96270748 25 23 C27.58128265 30.07575127 28.2376139 36.37613898 29 44 C18.11 44 7.22 44 -4 44 C-4.66 40.7 -5.32 37.4 -6 34 C-8.95725921 26.44255979 -12.5081446 23.14384008 -19.75 19.6875 C-26.75119859 18.20647722 -33.89446093 17.82274218 -40.2265625 21.5703125 C-50.12330357 29.54874253 -53.03014729 44.3433277 -54.375 56.375 C-56.01383137 73.97916376 -54.85896238 93.73063144 -45 109 C-41.24365699 113.52687491 -37.45519287 116.55936887 -31.48828125 117.3203125 C-23.41829675 117.65796876 -17.54309292 115.75573894 -11.1875 110.8125 C-6.54791542 104.84731983 -5.07069737 99.4948816 -4 92 C6.89 92 17.78 92 29 92 C26.80523934 108.46070495 24.46671136 119.05282135 11.875 129.75 C-3.86466234 141.32644107 -25.66380963 142.01643453 -44.33789062 139.71142578 C-57.72965767 137.18435728 -68.91851178 128.09558777 -76.5625 117.1875 C-89.5700366 95.88912363 -91.33721178 66.90777641 -86.03515625 42.9609375 C-82.13489252 27.33664367 -75.44064509 13.64266061 -62 4 C-43.9048528 -6.73278876 -19.57191963 -7.72242624 0 0 Z " fill="#000000" transform="translate(1056,1020)"/>
<path d="M0 0 C9.9 0 19.8 0 30 0 C30 37.95 30 75.9 30 115 C49.8 115 69.6 115 90 115 C90 122.92 90 130.84 90 139 C60.3 139 30.6 139 0 139 C0 93.13 0 47.26 0 0 Z " fill="#000000" transform="translate(1102,1019)"/>
<path d="M0 0 C4.2700806 3.09081558 7.40679076 7.12599938 8.75390625 12.26953125 C9.2289919 18.16059333 8.65397621 21.96940339 5.75390625 27.26953125 C1.9648623 31.65684529 -1.66670635 34.89972661 -7.515625 35.73828125 C-19.57196864 35.84462166 -19.57196864 35.84462166 -24.625 32.01953125 C-28.71678122 27.60237948 -30.92903488 22.56820804 -31.74609375 16.64453125 C-30.68714365 9.49661807 -28.83854876 4.92992303 -22.9921875 0.45703125 C-15.94508914 -4.33562625 -7.34309826 -4.19817537 0 0 Z M-19.24609375 5.26953125 C-17.87324219 5.36041016 -17.87324219 5.36041016 -16.47265625 5.453125 C-15.28414062 5.53691406 -14.095625 5.62070312 -12.87109375 5.70703125 C-11.68773437 5.78824219 -10.504375 5.86945312 -9.28515625 5.953125 C-6.24609375 6.26953125 -6.24609375 6.26953125 -4.24609375 7.26953125 C-3.3955243 10.82645802 -3.07699568 12.76223703 -4.24609375 16.26953125 C-4.90609375 16.92953125 -5.56609375 17.58953125 -6.24609375 18.26953125 C-4.59609375 20.90953125 -2.94609375 23.54953125 -1.24609375 26.26953125 C1.67089828 23.35253922 2.70067666 22.13137309 3.75390625 18.26953125 C3.55638593 12.83772242 2.25285549 9.43044386 -1.24609375 5.26953125 C-7.21665247 1.19869576 -13.5452048 0.48078454 -19.24609375 5.26953125 Z M-22.18359375 6.76953125 C-24.91848785 10.0845544 -25.99729039 12.9776733 -26.24609375 17.26953125 C-25.46737354 21.74717245 -23.97675248 24.57451441 -20.68359375 27.70703125 C-17.27818805 29.88998362 -15.39736308 30.44784693 -11.37109375 30.51953125 C-10.50742188 30.5453125 -9.64375 30.57109375 -8.75390625 30.59765625 C-5.79584726 30.21062049 -4.45407591 29.2207713 -2.24609375 27.26953125 C-2.98859375 27.26953125 -3.73109375 27.26953125 -4.49609375 27.26953125 C-7.81440089 26.06287411 -8.04669186 25.27960606 -9.55859375 22.20703125 C-10.13875496 20.90224181 -10.70694717 19.59179577 -11.24609375 18.26953125 C-12.23609375 18.26953125 -13.22609375 18.26953125 -14.24609375 18.26953125 C-14.24609375 21.23953125 -14.24609375 24.20953125 -14.24609375 27.26953125 C-15.89609375 27.26953125 -17.54609375 27.26953125 -19.24609375 27.26953125 C-19.24609375 20.00953125 -19.24609375 12.74953125 -19.24609375 5.26953125 C-20.52268763 5.16750238 -20.52268763 5.16750238 -22.18359375 6.76953125 Z M-14.24609375 9.26953125 C-14.24609375 10.91953125 -14.24609375 12.56953125 -14.24609375 14.26953125 C-12.59609375 14.26953125 -10.94609375 14.26953125 -9.24609375 14.26953125 C-8.65539361 12.32349851 -8.65539361 12.32349851 -8.24609375 10.26953125 C-9.3125449 8.97319504 -9.3125449 8.97319504 -11.80859375 9.20703125 C-12.61296875 9.22765625 -13.41734375 9.24828125 -14.24609375 9.26953125 Z " fill="#EA2128" transform="translate(1975.24609375,660.73046875)"/>
</svg>
