<?xml version="1.0" encoding="UTF-8"?>
<svg version="1.1" xmlns="http://www.w3.org/2000/svg" width="1729" height="2000">
<path d="M0 0 C0.66 0 1.32 0 2 0 C5.90449566 11.59650352 8.50864876 23.45041136 11.1875 35.375 C11.84553957 38.28394294 12.5050327 41.19255347 13.16473389 44.10112 C13.63393072 46.17107737 14.10220062 48.24124503 14.56964111 50.31159973 C16.04936779 56.85450959 17.55244854 63.39156038 19.07519531 69.92456055 C24.23511879 92.08005105 29.14368641 114.27746965 33.8413887 136.53543472 C34.38701135 139.11938309 34.93381273 141.70307961 35.48092651 144.28671265 C44.42498236 186.53060356 53.23717236 228.79042665 60.95800781 271.27783203 C61.89000379 276.40447992 62.83270568 281.52911667 63.77696228 286.65351868 C79.55287646 372.29679638 93.43139901 458.2781492 116.97070312 743.83148193 C116.99933843 745.95103126 117.03250967 748.07047051 117.06640625 750.18994141 C117.57825412 784.15372835 116.15663657 818.27922621 112 852 C111.85836426 853.15918945 111.71672852 854.31837891 111.57080078 855.51269531 C105.95664057 900.31431412 96.29471569 946.31567903 67 982 C66.34427002 982.80219971 66.34427002 982.80219971 65.67529297 983.62060547 C59.25078434 991.44041871 52.49286399 998.92650695 45.57568359 1006.31103516 C43.98541565 1008.01563287 42.40757641 1009.73101181 40.83203125 1011.44921875 C33.92194597 1018.9593337 26.83045208 1026.27267707 19.625 1033.5 C18.37686523 1034.75502319 18.37686523 1034.75502319 17.10351562 1036.03540039 C12.76447844 1040.3635813 8.35926836 1044.54200764 3.69238281 1048.51586914 C2.08548387 1049.92503514 0.60343532 1051.39554235 -0.875 1052.9375 C-3 1055 -3 1055 -5 1055 C-5 1055.66 -5 1056.32 -5 1057 C-6.3984375 1058.41015625 -6.3984375 1058.41015625 -8.375 1060.0625 C-11.57546345 1062.77923786 -14.71306063 1065.54335219 -17.8125 1068.375 C-22.18150683 1072.32249469 -26.69992841 1076.0442459 -31.27734375 1079.74609375 C-33.94137353 1081.95146704 -36.50788442 1084.2317631 -39.0625 1086.5625 C-42.96901152 1090.11442988 -46.98237069 1093.45588487 -51.12890625 1096.72265625 C-53.29800542 1098.44317981 -55.4489427 1100.17858212 -57.58984375 1101.93359375 C-66.60085083 1109.31894435 -75.76005849 1116.47413208 -85.04394531 1123.51269531 C-87.89531275 1125.68075952 -90.72826088 1127.87208804 -93.5625 1130.0625 C-99.18050974 1134.39113045 -104.84737749 1138.6520881 -110.53344727 1142.89086914 C-113.28059095 1144.94212983 -116.0004792 1147.00038856 -118.6640625 1149.16015625 C-120.9869874 1150.98975095 -123.35088148 1152.52522533 -125.875 1154.0625 C-130.46448588 1156.94398444 -134.84066751 1160.02175014 -139.1875 1163.25 C-146.31451421 1168.53866458 -153.58642151 1173.58337778 -160.92236328 1178.57666016 C-163.1226373 1180.08401592 -165.31032072 1181.60842022 -167.49609375 1183.13671875 C-168.22900635 1183.6471875 -168.96191895 1184.15765625 -169.71704102 1184.68359375 C-171.13012299 1185.66838671 -172.54086639 1186.65654585 -173.94897461 1187.6484375 C-178.77544575 1191 -178.77544575 1191 -181 1191 C-181.33 1191.66 -181.66 1192.32 -182 1193 C-183.4224412 1194.01084119 -184.89087043 1194.95712294 -186.375 1195.875 C-187.3546875 1196.48601562 -188.334375 1197.09703125 -189.34375 1197.7265625 C-189.90964844 1198.07750977 -190.47554687 1198.42845703 -191.05859375 1198.79003906 C-193.30613097 1200.1907929 -195.54404202 1201.60624552 -197.78125 1203.0234375 C-198.61994629 1203.55469238 -199.45864258 1204.08594727 -200.32275391 1204.63330078 C-201.16499512 1205.16681152 -202.00723633 1205.70032227 -202.875 1206.25 C-211.39309259 1211.64261686 -211.39309259 1211.64261686 -214.9453125 1213.734375 C-217.11697208 1214.9628335 -217.11697208 1214.9628335 -219 1217 C-221.25566132 1218.37226544 -223.51608524 1219.69987595 -225.8125 1221 C-226.42931641 1221.35578125 -227.04613281 1221.7115625 -227.68164062 1222.078125 C-230.37182395 1223.61047172 -232.99946186 1224.99979028 -235.88671875 1226.125 C-238.17384703 1226.80160367 -238.17384703 1226.80160367 -239 1229 C-240.33333333 1229.33333333 -241.66666667 1229.66666667 -243 1230 C-243.33 1230.66 -243.66 1231.32 -244 1232 C-245.33333333 1232.33333333 -246.66666667 1232.66666667 -248 1233 C-248.33 1233.66 -248.66 1234.32 -249 1235 C-251.23054301 1236.37511225 -253.45806875 1237.67322618 -255.75 1238.9375 C-256.99505412 1239.6336454 -258.23985028 1240.33025237 -259.484375 1241.02734375 C-260.08314453 1241.35976074 -260.68191406 1241.69217773 -261.29882812 1242.03466797 C-262.8303858 1242.90375222 -264.33159237 1243.82580797 -265.828125 1244.75390625 C-268 1246 -268 1246 -270 1246 C-270.33 1246.66 -270.66 1247.32 -271 1248 C-272.56205263 1248.95927801 -274.16715425 1249.84893746 -275.7890625 1250.703125 C-276.78583008 1251.23357422 -277.78259766 1251.76402344 -278.80957031 1252.31054688 C-279.86241211 1252.86806641 -280.91525391 1253.42558594 -282 1254 C-284.05097285 1255.11705353 -286.10045254 1256.23685292 -288.1484375 1257.359375 C-290.22386065 1258.4897627 -292.29938198 1259.61997016 -294.375 1260.75 C-295.42816406 1261.32621094 -296.48132812 1261.90242188 -297.56640625 1262.49609375 C-298.58347656 1263.04910156 -299.60054687 1263.60210938 -300.6484375 1264.171875 C-301.55770996 1264.6678418 -302.46698242 1265.16380859 -303.40380859 1265.67480469 C-306 1267 -306 1267 -308.77197266 1268.05175781 C-311.16243142 1268.78497914 -311.16243142 1268.78497914 -312 1271 C-314.4406785 1272.31832269 -316.87618936 1273.55183927 -319.375 1274.75 C-325.33849399 1277.65902146 -331.1890115 1280.69043554 -336.9609375 1283.96875 C-339 1285 -339 1285 -341 1285 C-341.33 1285.66 -341.66 1286.32 -342 1287 C-342.99 1287 -343.98 1287 -345 1287 C-345.33 1287.66 -345.66 1288.32 -346 1289 C-346.99 1289 -347.98 1289 -349 1289 C-349.33 1289.66 -349.66 1290.32 -350 1291 C-352.29014001 1291.88082308 -354.61347727 1292.53303769 -356.96875 1293.21875 C-359.18562475 1293.80935836 -359.18562475 1293.80935836 -360 1296 C-365.30769231 1299 -365.30769231 1299 -369 1299 C-369.33 1299.66 -369.66 1300.32 -370 1301 C-370.99 1301 -371.98 1301 -373 1301 C-373.33 1301.66 -373.66 1302.32 -374 1303 C-376.11179439 1304.10905121 -378.26510471 1305.139927 -380.4375 1306.125 C-381.61183594 1306.66382813 -382.78617188 1307.20265625 -383.99609375 1307.7578125 C-387 1309 -387 1309 -389 1309 C-389.33 1309.66 -389.66 1310.32 -390 1311 C-391.73413086 1311.96142578 -391.73413086 1311.96142578 -393.96484375 1312.9453125 C-394.76470703 1313.29980469 -395.56457031 1313.65429688 -396.38867188 1314.01953125 C-397.6503418 1314.56673828 -397.6503418 1314.56673828 -398.9375 1315.125 C-400.19336914 1315.68380859 -400.19336914 1315.68380859 -401.47460938 1316.25390625 C-407.72624771 1319 -407.72624771 1319 -410 1319 C-410.33 1319.66 -410.66 1320.32 -411 1321 C-412.96875 1321.9296875 -412.96875 1321.9296875 -415.5 1322.875 C-419.80952678 1324.52203179 -424.00364396 1326.32312041 -428.1875 1328.265625 C-430 1329 -430 1329 -432 1329 C-432.33 1329.66 -432.66 1330.32 -433 1331 C-434.90986963 1331.8754773 -436.85390041 1332.67726969 -438.8125 1333.4375 C-442.68976221 1334.94401236 -445.7097277 1336.48390942 -449 1339 C-450.99760305 1339.34740923 -452.99787771 1339.67966043 -455 1340 C-457.00781177 1340.98422146 -459.00892752 1341.98234073 -461 1343 C-461.99 1343 -462.98 1343 -464 1343 C-464.33 1343.66 -464.66 1344.32 -465 1345 C-467.78629579 1346.35334367 -470.17834323 1347.02743742 -473.25 1347.5 C-474.61125 1347.7475 -474.61125 1347.7475 -476 1348 C-476.33 1348.66 -476.66 1349.32 -477 1350 C-478.73413086 1350.86962891 -478.73413086 1350.86962891 -480.96484375 1351.7265625 C-482.16463867 1352.190625 -482.16463867 1352.190625 -483.38867188 1352.6640625 C-484.22978516 1352.98117187 -485.07089844 1353.29828125 -485.9375 1353.625 C-486.77474609 1353.94984375 -487.61199219 1354.2746875 -488.47460938 1354.609375 C-494.71735491 1357 -494.71735491 1357 -497 1357 C-497 1357.66 -497 1358.32 -497 1359 C-500.07617188 1359.29296875 -500.07617188 1359.29296875 -503.15234375 1359.5859375 C-503.76207031 1359.72257812 -504.37179687 1359.85921875 -505 1360 C-505.33 1360.66 -505.66 1361.32 -506 1362 C-509.0625 1362.625 -509.0625 1362.625 -512 1363 C-512 1363.66 -512 1364.32 -512 1365 C-512.680625 1365.103125 -513.36125 1365.20625 -514.0625 1365.3125 C-516.92028648 1365.98134365 -519.35976812 1367.03356219 -522.0234375 1368.2421875 C-524.99636688 1369.38200628 -528.05215678 1369.9160618 -531.1796875 1370.47265625 C-532.08074219 1370.73369141 -532.08074219 1370.73369141 -533 1371 C-533.33 1371.66 -533.66 1372.32 -534 1373 C-536.37070073 1373.89566374 -538.70722988 1374.69232849 -541.125 1375.4375 C-544.95346151 1376.63673152 -548.67435154 1377.85967993 -552.36328125 1379.44921875 C-556.85221176 1381.36340287 -561.42491441 1382.86548989 -566.0625 1384.375 C-573.55697815 1386.83578535 -580.99117165 1389.39598847 -588.3828125 1392.15234375 C-591 1393 -591 1393 -594 1393 C-594.33 1393.66 -594.66 1394.32 -595 1395 C-597.64860427 1395.59355614 -600.29197322 1395.74209269 -603 1396 C-603 1396.66 -603 1397.32 -603 1398 C-604.18722656 1398.23589844 -605.37445312 1398.47179688 -606.59765625 1398.71484375 C-613.34609669 1400.21523159 -619.87075497 1402.42094946 -626.4375 1404.5625 C-627.7284067 1404.9788535 -629.01942165 1405.39487152 -630.31054688 1405.81054688 C-636.26982236 1407.61575837 -636.26982236 1407.61575837 -642 1410 C-642.66 1409.67 -643.32 1409.34 -644 1409 C-644.33 1409.66 -644.66 1410.32 -645 1411 C-645.66 1410.67 -646.32 1410.34 -647 1410 C-647 1410.66 -647 1411.32 -647 1412 C-648.5159375 1412.185625 -648.5159375 1412.185625 -650.0625 1412.375 C-653.83728996 1412.97417301 -657.33358584 1413.94238053 -661 1415 C-661.99 1415 -662.98 1415 -664 1415 C-664.33 1415.66 -664.66 1416.32 -665 1417 C-666.83032227 1417.50537109 -666.83032227 1417.50537109 -669.25390625 1417.8984375 C-675.60903481 1419.05473826 -681.73769396 1420.8296471 -687.9375 1422.625 C-690.15390767 1423.2666252 -692.37131334 1423.90481597 -694.58984375 1424.5390625 C-695.55784912 1424.81959473 -696.52585449 1425.10012695 -697.52319336 1425.38916016 C-700 1426 -700 1426 -703 1426 C-703 1426.66 -703 1427.32 -703 1428 C-704.093125 1428.103125 -705.18625 1428.20625 -706.3125 1428.3125 C-710.69594086 1428.85946714 -714.82002874 1429.96785541 -719.0625 1431.17578125 C-722.11227152 1432.03150172 -725.17441915 1432.80513822 -728.25 1433.5625 C-731.4175601 1434.34521755 -734.55141386 1435.15888196 -737.6875 1436.0625 C-749.35376532 1439.3642732 -749.35376532 1439.3642732 -755 1439 C-755 1439.66 -755 1440.32 -755 1441 C-759.29 1441.33 -763.58 1441.66 -768 1442 C-768 1442.66 -768 1443.32 -768 1444 C-769.216875 1444.103125 -770.43375 1444.20625 -771.6875 1444.3125 C-776.60273935 1444.86032853 -781.3021954 1445.94880862 -786.10546875 1447.10546875 C-791.80598064 1448.41481401 -797.54330883 1449.52608875 -803.28442383 1450.6418457 C-804.52421997 1450.88487427 -804.52421997 1450.88487427 -805.7890625 1451.1328125 C-806.52850098 1451.27605957 -807.26793945 1451.41930664 -808.02978516 1451.56689453 C-810.19579918 1452.00683813 -810.19579918 1452.00683813 -813 1453 C-814.70506534 1453.27139448 -816.41427452 1453.51693113 -818.125 1453.75 C-826.13750596 1454.93469332 -834.04952064 1456.58243334 -841.97705078 1458.23535156 C-847.33127891 1459.33540966 -852.61519739 1460.27337234 -858.05615234 1460.80493164 C-864.46497288 1461.44806749 -870.8270066 1462.73764738 -877.125 1464.0625 C-881.23290499 1464.90649974 -885.30290504 1465.40518287 -889.48046875 1465.75390625 C-893.63052234 1466.15926032 -897.74434094 1466.81182221 -901.8671875 1467.4296875 C-911.01749641 1468.78440856 -920.19217056 1469.88259577 -929.38037109 1470.94677734 C-930.4214502 1471.06875488 -931.4625293 1471.19073242 -932.53515625 1471.31640625 C-933.93326538 1471.47798218 -933.93326538 1471.47798218 -935.35961914 1471.64282227 C-937.08773099 1471.87659274 -938.80958787 1472.1644132 -940.51855469 1472.51147461 C-943.07618359 1473.01499836 -945.57073998 1473.28542029 -948.16796875 1473.5 C-949.14443359 1473.5825 -950.12089844 1473.665 -951.12695312 1473.75 C-952.64192383 1473.87375 -952.64192383 1473.87375 -954.1875 1474 C-960.73392477 1474.54518046 -967.27408762 1475.11437563 -973.80932617 1475.78125 C-976.55785114 1476.05570429 -979.30888092 1476.28311861 -982.0625 1476.5 C-985.44810977 1476.77427725 -988.81665971 1477.08352552 -992.1875 1477.5 C-997.4600481 1478.12258871 -1002.76031662 1478.35420034 -1008.0612793 1478.60742188 C-1011.51001633 1478.78635282 -1014.66377928 1479.15360151 -1018 1480 C-1019.91616618 1480.04379808 -1021.83374484 1480.03971513 -1023.75 1480 C-1027.88450791 1479.96010125 -1031.76913401 1480.18396285 -1035.8671875 1480.78125 C-1038.44814099 1481.04596318 -1040.96770347 1481.0270997 -1043.5625 1481 C-1049.86570225 1480.94857527 -1056.14040216 1481.16266534 -1062.4375 1481.4375 C-1063.82980835 1481.49647461 -1063.82980835 1481.49647461 -1065.25024414 1481.55664062 C-1070.27554129 1481.78381219 -1075.27630406 1482.10626151 -1080.2890625 1482.52734375 C-1090.49280066 1483.27225914 -1100.71204928 1483.15140876 -1110.9375 1483.125 C-1112.0033432 1483.1234491 -1113.0691864 1483.12189819 -1114.16732788 1483.12030029 C-1131.79700565 1483.09029233 -1149.38611844 1482.78385619 -1167 1482 C-1168.73990568 1481.92408083 -1170.47981475 1481.84823929 -1172.21972656 1481.77246094 C-1203.85691886 1480.38668378 -1203.85691886 1480.38668378 -1218.97265625 1479.5 C-1220.214104 1479.4278125 -1221.45555176 1479.355625 -1222.73461914 1479.28125 C-1225.57120309 1479.03693264 -1228.21928679 1478.58036447 -1231 1478 C-1233.22875754 1477.95729327 -1235.45870422 1477.95933782 -1237.6875 1478 C-1243.77923497 1478.11038251 -1243.77923497 1478.11038251 -1246 1477 C-1248.0368961 1476.76630512 -1250.08019565 1476.58694626 -1252.125 1476.4375 C-1253.28902344 1476.35113281 -1254.45304687 1476.26476563 -1255.65234375 1476.17578125 C-1258.36184933 1476.03350849 -1260.98066646 1476.02031583 -1263.6875 1476.125 C-1264.780625 1476.08375 -1265.87375 1476.0425 -1267 1476 C-1267.99 1474.515 -1267.99 1474.515 -1269 1473 C-1267.78683105 1472.75991211 -1266.57366211 1472.51982422 -1265.32373047 1472.27246094 C-1225.55573582 1464.3627828 -1186.10568837 1455.37495124 -1147.69384766 1442.26074219 C-1144.47344139 1441.16158965 -1141.24843467 1440.07836987 -1138.02050781 1439.00164795 C-1119.77779178 1432.90891701 -1101.82288611 1426.24121772 -1084 1419 C-1082.47052734 1418.38390869 -1082.47052734 1418.38390869 -1080.91015625 1417.75537109 C-1065.39416209 1411.49298268 -1050.21310191 1404.5840979 -1035.08300781 1397.44970703 C-1032.43286244 1396.2035427 -1029.77760782 1394.97011303 -1027.1171875 1393.74609375 C-1017.39768744 1389.26144549 -1007.9364018 1384.35832247 -998.49316406 1379.32080078 C-995.95897124 1377.97826424 -993.41509451 1376.65615007 -990.8671875 1375.33984375 C-975.05034019 1367.15942945 -959.49720771 1358.53925244 -944.39453125 1349.09765625 C-941.80107224 1347.49502393 -939.19769751 1345.92322164 -936.57421875 1344.37109375 C-908.23319258 1327.59468963 -880.67946873 1309.11229817 -854.15380859 1289.58447266 C-851.83243547 1287.87672933 -849.50434632 1286.17839043 -847.17578125 1284.48046875 C-839.11927286 1278.59069095 -831.12231024 1272.65249439 -823.36230469 1266.37451172 C-820.69080318 1264.23152088 -818.15147448 1262.36690459 -815 1261 C-815 1260.34 -815 1259.68 -815 1259 C-813.03125 1257.4921875 -813.03125 1257.4921875 -810.5 1255.875 C-809.6646875 1255.33617187 -808.829375 1254.79734375 -807.96875 1254.2421875 C-807.3190625 1253.83226562 -806.669375 1253.42234375 -806 1253 C-807.10988281 1253.10957031 -808.21976563 1253.21914062 -809.36328125 1253.33203125 C-818.23008007 1254.19592806 -827.09930204 1255.01678458 -835.9765625 1255.765625 C-837.14323708 1255.86426094 -837.14323708 1255.86426094 -838.33348083 1255.96488953 C-842.25174205 1256.29560807 -846.17024471 1256.62306939 -850.08911133 1256.9465332 C-851.55811175 1257.06974934 -853.02710615 1257.19303729 -854.49609375 1257.31640625 C-855.79732178 1257.42412354 -857.0985498 1257.53184082 -858.43920898 1257.64282227 C-861.66319078 1257.96621516 -864.8064122 1258.46467611 -868 1259 C-871.86868991 1259.31991821 -875.74577657 1259.42970218 -879.625 1259.5625 C-880.85234863 1259.6049585 -882.07969727 1259.64741699 -883.34423828 1259.69116211 C-908.20703226 1260.44971266 -933.1285592 1260.08061966 -958 1260 C-958 1259.01 -958 1258.02 -958 1257 C-957.12601563 1256.63350342 -956.25203125 1256.26700684 -955.3515625 1255.8894043 C-930.46299685 1245.44132167 -905.74199438 1234.89681263 -882 1222 C-880.38351562 1221.13568359 -880.38351562 1221.13568359 -878.734375 1220.25390625 C-874.51604533 1217.98567033 -870.36103114 1215.64115798 -866.26171875 1213.1640625 C-863.01554447 1211.20826871 -859.76214968 1209.26730521 -856.4921875 1207.3515625 C-840.17267984 1197.74181144 -824.32916708 1187.36151742 -808.98291016 1176.26098633 C-807 1175 -807 1175 -805 1175 C-805 1174.34 -805 1173.68 -805 1173 C-803.2265625 1171.765625 -803.2265625 1171.765625 -800.625 1170.25 C-794.20896725 1166.30039023 -788.3645267 1161.73364294 -782.45947266 1157.06347656 C-779.06844416 1154.3830981 -775.67992146 1151.74051941 -772.140625 1149.2578125 C-769.77757732 1147.55900459 -768.00065131 1146.04221188 -766 1144 C-764.40953775 1142.69149577 -762.80394312 1141.40126999 -761.1875 1140.125 C-758.24565329 1137.79729063 -755.33819105 1135.4527577 -752.5 1133 C-750 1131 -750 1131 -748 1131 C-748 1130.34 -748 1129.68 -748 1129 C-746.5234375 1127.6953125 -746.5234375 1127.6953125 -744.375 1126.125 C-740.19289583 1122.96051929 -736.16642778 1119.66316204 -732.1875 1116.25 C-731.29925537 1115.48888916 -731.29925537 1115.48888916 -730.39306641 1114.71240234 C-725.73216502 1110.69011891 -721.18684151 1106.55040891 -716.73120117 1102.30175781 C-713.21467001 1099 -713.21467001 1099 -711 1099 C-711 1098.34 -711 1097.68 -711 1097 C-709.3203125 1095.2734375 -709.3203125 1095.2734375 -707.125 1093.375 C-706.40570312 1092.74335937 -705.68640625 1092.11171875 -704.9453125 1091.4609375 C-703 1090 -703 1090 -701 1090 C-700.67 1089.01 -700.34 1088.02 -700 1087 C-699.34 1087 -698.68 1087 -698 1087 C-698 1086.34 -698 1085.68 -698 1085 C-697.34 1085 -696.68 1085 -696 1085 C-696 1084.34 -696 1083.68 -696 1083 C-695.34 1083 -694.68 1083 -694 1083 C-694 1082.34 -694 1081.68 -694 1081 C-693.34 1081 -692.68 1081 -692 1081 C-692 1080.34 -692 1079.68 -692 1079 C-691.34 1079 -690.68 1079 -690 1079 C-690 1078.34 -690 1077.68 -690 1077 C-689.34 1077 -688.68 1077 -688 1077 C-688 1076.34 -688 1075.68 -688 1075 C-684.53846154 1072 -684.53846154 1072 -682 1072 C-682 1071.34 -682 1070.68 -682 1070 C-681.34 1070 -680.68 1070 -680 1070 C-679.67 1069.01 -679.34 1068.02 -679 1067 C-677.609375 1065.6328125 -677.609375 1065.6328125 -675.75 1064.125 C-671.66042267 1060.66115035 -667.85109136 1056.97296717 -664.0625 1053.1875 C-663.48274414 1052.61209473 -662.90298828 1052.03668945 -662.30566406 1051.44384766 C-659.28338684 1048.50260601 -659.28338684 1048.50260601 -657 1045 C-656.34 1045 -655.68 1045 -655 1045 C-655 1044.34 -655 1043.68 -655 1043 C-654.34 1043 -653.68 1043 -653 1043 C-652.740979 1042.41428223 -652.48195801 1041.82856445 -652.21508789 1041.22509766 C-650.90997874 1038.83515094 -649.50660672 1037.2928166 -647.55859375 1035.3984375 C-646.89279297 1034.74359375 -646.22699219 1034.08875 -645.54101562 1033.4140625 C-644.84685547 1032.74117187 -644.15269531 1032.06828125 -643.4375 1031.375 C-642.05901463 1030.03088131 -640.68260599 1028.68462847 -639.30859375 1027.3359375 C-638.69814209 1026.74345215 -638.08769043 1026.1509668 -637.45874023 1025.54052734 C-635.90189218 1024.04565952 -635.90189218 1024.04565952 -635 1022 C-634.34 1022 -633.68 1022 -633 1022 C-632.75765625 1021.42765625 -632.5153125 1020.8553125 -632.265625 1020.265625 C-630.76591866 1017.58096551 -628.9827585 1015.86124784 -626.75 1013.75 C-623.20400936 1010.2949322 -620.21079648 1006.77910634 -617.32421875 1002.76953125 C-615.02437759 999.69629218 -612.22426707 997.16259115 -609.44921875 994.52734375 C-604.95390877 990.15604232 -601.01844167 985.45477488 -597.11328125 980.55078125 C-595 978 -595 978 -592.79296875 975.85546875 C-590.76974913 974.02896097 -590.76974913 974.02896097 -590 971 C-587.5625 968.3125 -587.5625 968.3125 -585 966 C-584.34 966 -583.68 966 -583 966 C-582.773125 965.484375 -582.54625 964.96875 -582.3125 964.4375 C-580.51782382 961.10452995 -578.50034985 957.85296329 -576 955 C-575.34 955 -574.68 955 -574 955 C-573.690625 954.38125 -573.38125 953.7625 -573.0625 953.125 C-572.375 951.75 -571.6875 950.375 -571 949 C-570.34 949 -569.68 949 -569 949 C-568.71125 948.4225 -568.4225 947.845 -568.125 947.25 C-567.75375 946.5075 -567.3825 945.765 -567 945 C-566.71125 944.319375 -566.4225 943.63875 -566.125 942.9375 C-564.77615149 940.61448312 -563.13839522 939.58655129 -561 938 C-560.67 937.01 -560.34 936.02 -560 935 C-558.86126681 933.82777466 -557.71683077 932.66034306 -556.5390625 931.52734375 C-554.70189692 929.70416674 -552.97261457 927.80673856 -551.25 925.875 C-550.65703125 925.21242188 -550.0640625 924.54984375 -549.453125 923.8671875 C-547.80100363 921.95816621 -547.80100363 921.95816621 -547 919 C-546.34 918.67 -545.68 918.34 -545 918 C-544.67 917.01 -544.34 916.02 -544 915 C-542.34804269 913.31875267 -540.67834575 911.65490517 -539 910 C-537.01450429 907.67814116 -535.13030765 905.28240198 -533.25 902.875 C-532.75628906 902.25496094 -532.26257813 901.63492188 -531.75390625 900.99609375 C-529.67989646 898.3538621 -528.07035521 896.21106564 -527 893 C-525.82886902 891.86232991 -524.65558232 890.72674929 -523.46875 889.60546875 C-521.02987497 886.93957078 -519.22728919 883.85838595 -517.33203125 880.79296875 C-516.89246094 880.20128906 -516.45289063 879.60960937 -516 879 C-515.34 879 -514.68 879 -514 879 C-513.67 877.68 -513.34 876.36 -513 875 C-512.34 875 -511.68 875 -511 875 C-510.7525 874.46375 -510.505 873.9275 -510.25 873.375 C-508.70039828 870.43075672 -506.87070582 867.75103798 -505 865 C-504.29875 863.88625 -503.5975 862.7725 -502.875 861.625 C-502.25625 860.75875 -501.6375 859.8925 -501 859 C-500.34 859 -499.68 859 -499 859 C-498.71125 858.030625 -498.4225 857.06125 -498.125 856.0625 C-497 853 -497 853 -495 852 C-494.67 851.01 -494.34 850.02 -494 849 C-493.34 849 -492.68 849 -492 849 C-491.731875 848.46375 -491.46375 847.9275 -491.1875 847.375 C-489.79166667 844.58333333 -488.39583333 841.79166667 -487 839 C-486.34 839 -485.68 839 -485 839 C-484.67 837.68 -484.34 836.36 -484 835 C-483.34 835 -482.68 835 -482 835 C-481.76539063 834.484375 -481.53078125 833.96875 -481.2890625 833.4375 C-479.54464036 830.13895632 -477.46103967 827.08796491 -475.375 824 C-474.46343994 822.64329751 -473.55198271 821.28652592 -472.640625 819.9296875 C-472.19009766 819.2603418 -471.73957031 818.59099609 -471.27539062 817.90136719 C-469.54337874 815.31926371 -467.83636974 812.72081712 -466.125 810.125 C-463.87907034 806.74480807 -461.58815713 803.40649712 -459.22265625 800.109375 C-447.73471257 784.10372282 -447.73471257 784.10372282 -438 767 C-437.34 767 -436.68 767 -436 767 C-435.78214844 766.35546875 -435.56429687 765.7109375 -435.33984375 765.046875 C-433.49006269 760.8403758 -431.04228337 757.11047433 -428.5625 753.25 C-428.03479004 752.42032715 -427.50708008 751.5906543 -426.96337891 750.73583984 C-424.27841455 746.52323714 -421.56719305 742.32860658 -418.83203125 738.1484375 C-418.33437256 737.3862793 -417.83671387 736.62412109 -417.32397461 735.83886719 C-416.37996457 734.39652801 -415.43175959 732.956923 -414.47875977 731.52050781 C-412.23909295 728.10439507 -410.33762915 724.89265111 -409 721 C-408.34 721 -407.68 721 -407 721 C-406.75507812 720.319375 -406.51015625 719.63875 -406.2578125 718.9375 C-404.75692321 715.43231755 -402.86070217 712.24376114 -400.875 709 C-400.47829102 708.34499512 -400.08158203 707.68999023 -399.67285156 707.01513672 C-397.05637253 702.7032542 -394.40402954 698.413831 -391.75 694.125 C-388.09489438 688.20170631 -384.68773141 682.19027533 -381.43359375 676.0390625 C-380.89863281 675.03617188 -380.36367187 674.03328125 -379.8125 673 C-379.07966797 671.6078125 -379.07966797 671.6078125 -378.33203125 670.1875 C-377 668 -377 668 -375 667 C-374.27544365 665.35767228 -373.62225605 663.68375165 -373 662 C-372.46474166 660.7264543 -371.9229052 659.45565616 -371.375 658.1875 C-370.694375 656.6096875 -370.694375 656.6096875 -370 655 C-369.34 655 -368.68 655 -368 655 C-367.773125 654.195625 -367.54625 653.39125 -367.3125 652.5625 C-365.92165561 648.78735093 -364.1393239 645.51830427 -362.12109375 642.05078125 C-360.87037269 639.90708975 -360.87037269 639.90708975 -360 637 C-359.34 637 -358.68 637 -358 637 C-357.74347656 636.14792969 -357.48695313 635.29585937 -357.22265625 634.41796875 C-355.93189627 630.80961418 -354.2994202 627.65929184 -352.4375 624.3125 C-349.91785895 619.78818074 -349.91785895 619.78818074 -348 615 C-347.34 615 -346.68 615 -346 615 C-345.7525 614.17757812 -345.505 613.35515625 -345.25 612.5078125 C-343.80145074 608.44282114 -341.96387256 604.71024387 -340 600.875 C-339.64421875 600.17246094 -339.2884375 599.46992187 -338.921875 598.74609375 C-338.2438225 597.40769907 -337.56423258 596.07008172 -336.8828125 594.73339844 C-335.91197475 592.8271628 -334.95271527 590.91535466 -334 589 C-333.34 589 -332.68 589 -332 589 C-332 587.68 -332 586.36 -332 585 C-331.34 585 -330.68 585 -330 585 C-329.89558594 584.30390625 -329.79117188 583.6078125 -329.68359375 582.890625 C-328.8930236 579.54764264 -327.60689095 576.81612579 -326.0625 573.75 C-325.53785156 572.69296875 -325.01320313 571.6359375 -324.47265625 570.546875 C-323 568 -323 568 -321 567 C-320.34227572 563.97065509 -320.34227572 563.97065509 -320 561 C-319.34 561 -318.68 561 -318 561 C-317.773125 560.236875 -317.54625 559.47375 -317.3125 558.6875 C-315.81980868 554.49374819 -314.00058418 550.52054114 -312.12109375 546.48828125 C-310.92733942 543.95099444 -310.92733942 543.95099444 -310 541 C-309.34 541 -308.68 541 -308 541 C-308 539.68 -308 538.36 -308 537 C-307.34 537 -306.68 537 -306 537 C-306 535.68 -306 534.36 -306 533 C-305.34 533 -304.68 533 -304 533 C-303.91492187 532.34644531 -303.82984375 531.69289063 -303.7421875 531.01953125 C-302.74305461 526.95463796 -300.96364028 523.43397671 -299.125 519.6875 C-296.4491536 514.20348513 -294.0645091 508.74556778 -292 503 C-291.34 503 -290.68 503 -290 503 C-289.4121875 501.14375 -289.4121875 501.14375 -288.8125 499.25 C-285.69274694 489.93427224 -281.61895862 481.02827333 -277.41113281 472.16357422 C-275.82298481 468.81151837 -274.37154204 465.44469597 -273 462 C-272.01437394 459.6336657 -271.02511004 457.26911599 -270.03125 454.90625 C-269.60978699 453.90253357 -269.60978699 453.90253357 -269.17980957 452.87854004 C-267.98556925 450.03448681 -266.79034675 447.19084663 -265.59521484 444.34716797 C-264.71938588 442.26283823 -263.84405723 440.17829888 -262.96875 438.09375 C-262.70098755 437.45715454 -262.4332251 436.82055908 -262.15734863 436.16467285 C-260.73975265 432.78851168 -259.35151639 429.40310378 -258 426 C-257.24127139 424.11963588 -256.48213014 422.23943823 -255.72265625 420.359375 C-254.83585255 418.15628419 -253.94913676 415.953158 -253.0625 413.75 C-252.61970703 412.65558594 -252.17691406 411.56117188 -251.72070312 410.43359375 C-249.27441009 404.34520424 -246.98065845 398.25541024 -245 392 C-242.91727694 385.55167303 -240.56505361 379.27243879 -238 373 C-236.54683749 369.42165911 -235.18783453 365.81967553 -233.875 362.1875 C-233.52179688 361.21167969 -233.16859375 360.23585938 -232.8046875 359.23046875 C-232.53914063 358.49441406 -232.27359375 357.75835937 -232 357 C-231.34 357 -230.68 357 -230 357 C-225.5404798 374.67127109 -221.60688087 392.40102984 -218 410.26416016 C-215.76135251 421.3436352 -213.43156335 432.39872632 -211 443.4375 C-210.76917725 444.48582504 -210.76917725 444.48582504 -210.53369141 445.55532837 C-209.69276558 449.37102928 -208.84820031 453.18590988 -208 457 C-207.54012695 456.07010254 -207.08025391 455.14020508 -206.60644531 454.18212891 C-203.00603806 446.91284557 -199.32802203 439.68884644 -195.58071899 432.49404907 C-188.9771184 419.81495799 -182.55239318 407.08846309 -176.453125 394.15625 C-173.83533544 388.61464177 -171.09256051 383.13908589 -168.28344727 377.69213867 C-166.55573953 374.50902551 -166.55573953 374.50902551 -166 371 C-165.34 371 -164.68 371 -164 371 C-163.731875 370.154375 -163.46375 369.30875 -163.1875 368.4375 C-161.9555527 364.87133676 -160.50860294 361.45721506 -159 358 C-158.32723284 356.3357865 -157.65793165 354.67013418 -157 353 C-156.34 353 -155.68 353 -155 353 C-154.88374268 352.28231445 -154.76748535 351.56462891 -154.64770508 350.82519531 C-153.97117893 347.87428668 -152.96450177 345.51362003 -151.63671875 342.796875 C-151.16169922 341.81589844 -150.68667969 340.83492188 -150.19726562 339.82421875 C-149.69904297 338.80972656 -149.20082031 337.79523438 -148.6875 336.75 C-147.71105123 334.74537007 -146.73577423 332.74016892 -145.76171875 330.734375 C-145.29169434 329.77080078 -144.82166992 328.80722656 -144.33740234 327.81445312 C-142.74726247 324.46813467 -141.28579699 321.07680685 -139.87036133 317.65332031 C-139 316 -139 316 -137 315 C-136.30901109 312.91630364 -135.62358792 310.83062268 -134.96386719 308.73681641 C-133.12854258 303.52557303 -130.56750636 298.63552578 -128.125 293.6875 C-124.56518954 286.44803508 -121.16212043 279.20337552 -118.12255859 271.72827148 C-115.52265239 265.40944768 -112.64131243 259.22360609 -109.5625 253.125 C-105.71219687 245.49704098 -102.03857402 237.77775866 -98.9375 229.8125 C-97.28270676 225.56222192 -95.29765594 221.55640183 -93.21875 217.5 C-92.01698421 215.03483941 -90.99064623 212.55650641 -90 210 C-88.31736991 205.66451359 -86.32816363 201.5635286 -84.21875 197.421875 C-81.29155519 191.60501353 -78.85290025 185.65596359 -76.5625 179.5625 C-74.64761702 174.49579099 -72.46065685 169.70603488 -69.91796875 164.92578125 C-68.85657036 163.05466586 -68.85657036 163.05466586 -69 161 C-68.34 161 -67.68 161 -67 161 C-66.87238281 160.26789307 -66.74476562 159.53578613 -66.61328125 158.78149414 C-66.0349668 156.15858945 -65.25542297 153.9529016 -64.1875 151.49609375 C-63.83429688 150.67302734 -63.48109375 149.84996094 -63.1171875 149.00195312 C-62.74851562 148.15568359 -62.37984375 147.30941406 -62 146.4375 C-61.26813692 144.74986469 -60.53887132 143.06110002 -59.8125 141.37109375 C-59.48894531 140.62786865 -59.16539063 139.88464355 -58.83203125 139.11889648 C-58.03686969 137.09389438 -57.47489311 135.12052964 -57 133 C-56.34 133 -55.68 133 -55 133 C-54.62875 131.576875 -54.62875 131.576875 -54.25 130.125 C-52.51048787 124.04287603 -50.11771741 118.19551634 -47.25 112.5625 C-45.78078818 110.02580306 -45.78078818 110.02580306 -46 107 C-45.34 107 -44.68 107 -44 107 C-43.84144531 106.41734375 -43.68289063 105.8346875 -43.51953125 105.234375 C-41.81366897 99.2402954 -39.66320681 93.57561694 -37.18359375 87.859375 C-35.97661588 84.94350767 -34.96426947 82.00389936 -34 79 C-33.34 79 -32.68 79 -32 79 C-31.814375 77.700625 -31.814375 77.700625 -31.625 76.375 C-31.01941879 73.10486147 -30.11693965 70.12743101 -29 67 C-28.34 67 -27.68 67 -27 67 C-26.88068115 66.28827637 -26.7613623 65.57655273 -26.63842773 64.84326172 C-25.97042933 61.86830592 -24.9865082 59.30831186 -23.78515625 56.5078125 C-23.34623047 55.47269531 -22.90730469 54.43757813 -22.45507812 53.37109375 C-21.99552734 52.29988281 -21.53597656 51.22867188 -21.0625 50.125 C-17.01158101 40.74374939 -17.01158101 40.74374939 -14 31 C-13.34 31 -12.68 31 -12 31 C-11.896875 30.154375 -11.79375 29.30875 -11.6875 28.4375 C-11.06907215 25.34536075 -10.13295964 22.80350986 -8.83203125 19.9453125 C-7.30954045 16.38568611 -6.17821699 12.68506166 -5 9 C-4.34 9 -3.68 9 -3 9 C-2.87625 8.071875 -2.7525 7.14375 -2.625 6.1875 C-2 3 -2 3 0 0 Z " fill="#0C99C7" transform="translate(1415,0)"/>
<path d="M0 0 C0.33 0 0.66 0 1 0 C6.1055683 24.56376478 10.54242521 49.19900941 14.62078857 73.95263672 C15.20722557 77.50059272 15.80089311 81.04732308 16.39445782 84.59409237 C22.09594147 118.69247715 27.34005184 152.87155836 31.5625 187.1875 C31.77703827 188.92383698 31.77703827 188.92383698 31.99591064 190.69525146 C34.39562679 210.30497316 36.27571125 229.93690179 37.875 249.625 C37.97845734 250.87824066 38.08191467 252.13148132 38.18850708 253.42269897 C40.41120206 280.67929643 41.23180761 307.96933857 41.25 335.3125 C41.25100708 336.39543335 41.25201416 337.4783667 41.25305176 338.59411621 C41.22038089 391.15385413 35.72066649 439.6805215 1 481 C0.47100098 481.63486328 -0.05799805 482.26972656 -0.60302734 482.92382812 C-7.52502724 491.2086305 -14.80654441 499.00377243 -22.5324707 506.546875 C-25.40647898 509.35891689 -28.19699748 512.1493309 -30.7421875 515.265625 C-32.61424598 517.53282385 -34.36850305 519.33359391 -36.625 521.1875 C-40.08651831 524.13305615 -43.31201498 527.26436772 -46.5 530.5 C-50.83699179 534.88335705 -55.29514291 539.01585251 -60 543 C-61.03836048 543.88992532 -62.07606369 544.78061785 -63.11328125 545.671875 C-65.49618915 547.71909547 -67.88182208 549.76306915 -70.26953125 551.8046875 C-72.75185431 553.92830088 -75.22800168 556.05878717 -77.69921875 558.1953125 C-78.30491699 558.71778564 -78.91061523 559.24025879 -79.53466797 559.77856445 C-80.67188422 560.75976876 -81.80775925 561.74253107 -82.94189453 562.72729492 C-87.49968774 566.65363666 -92.23860522 570.32515256 -97 574 C-98.38383508 575.08333045 -99.76667091 576.16793872 -101.1484375 577.25390625 C-127.70335431 598.06806358 -155.20255051 617.7122346 -183.91015625 635.45703125 C-186.72653633 637.19985752 -189.52302777 638.97006363 -192.30859375 640.76171875 C-220.38273729 658.78522751 -249.84095168 675.32603693 -279.83886719 689.94140625 C-282.56910542 691.27876651 -285.28222704 692.6486292 -287.99536133 694.02026367 C-368.20631012 734.48368762 -454.28604616 762.85024465 -573.0625 785.625 C-574.04887451 785.78991943 -575.03524902 785.95483887 -576.05151367 786.12475586 C-576.93299072 786.26147705 -577.81446777 786.39819824 -578.72265625 786.5390625 C-579.46265869 786.65459473 -580.20266113 786.77012695 -580.96508789 786.88916016 C-583.17990717 787.00979938 -584.88803712 786.64456976 -587 786 C-581.6365268 780.39815021 -576.07046579 775.30208599 -570.0234375 770.44921875 C-561.53313501 763.57141557 -553.31809628 756.35208408 -545.2265625 749.01171875 C-543.16895609 747.15265331 -541.09153237 745.32071642 -539 743.5 C-530.19493519 735.82198348 -521.58052591 727.92731149 -513 720 C-512.09870361 719.16855469 -512.09870361 719.16855469 -511.17919922 718.3203125 C-502.571978 710.36498609 -494.14956961 702.25934441 -485.93481445 693.89794922 C-482.02354943 689.93648461 -477.99364952 686.21639203 -473.77783203 682.58203125 C-471.47843979 680.5358816 -469.46146416 678.31723983 -467.4375 676 C-460.70196152 668.43970171 -453.43782335 661.38472677 -446.23608398 654.2734375 C-441.48114098 649.56599795 -436.85599135 644.81693818 -432.50683594 639.72949219 C-430.2906975 637.18588806 -427.91393429 634.85713583 -425.5 632.5 C-421.81850419 628.86775706 -418.29992256 625.15966834 -414.94140625 621.2265625 C-412.35518335 618.26047185 -409.67745959 615.38363874 -407 612.5 C-403.16859683 608.36812921 -399.38363341 604.20959872 -395.69921875 599.9453125 C-393.70593572 597.6633471 -391.66506973 595.42771426 -389.625 593.1875 C-385.77294701 588.920411 -382.13062151 584.5189675 -378.515625 580.05078125 C-375.57074449 576.47942771 -372.54264851 572.98802106 -369.5 569.5 C-365.05664147 564.39978056 -360.69109866 559.25352642 -356.43359375 553.99609375 C-354.54095316 551.66598888 -352.63711236 549.34725118 -350.72265625 547.03515625 C-344.76447462 539.83766629 -338.85848973 532.61217886 -333.1159668 525.24121094 C-329.61594341 520.7571861 -326.03689806 516.34199902 -322.4375 511.9375 C-317.3354211 505.68233346 -312.351781 499.3573751 -307.46826172 492.92919922 C-305.75600028 490.67940044 -304.036228 488.43543072 -302.31640625 486.19140625 C-295.12629985 476.79792254 -288.00727122 467.3587904 -281.01318359 457.81835938 C-277.33894294 452.80736297 -273.621088 447.83242723 -269.875 442.875 C-265.31904961 436.83222073 -260.91453333 430.69539581 -256.57202148 424.49780273 C-252.91033291 419.2740477 -249.18659332 414.09879792 -245.4375 408.9375 C-239.96337962 401.38601282 -234.63817995 393.74436396 -229.38916016 386.03515625 C-227.99878263 383.99821653 -226.6001772 381.9671742 -225.19921875 379.9375 C-209.63052959 357.34667796 -194.48998325 334.45056781 -179.57275391 311.42529297 C-178.10863073 309.16751594 -176.63931216 306.91323217 -175.16796875 304.66015625 C-167.27248972 292.54850574 -159.63319315 280.27807239 -152 268 C-151.17628906 266.67742187 -151.17628906 266.67742187 -150.3359375 265.328125 C-121.69058932 219.3262358 -94.22799539 172.60575673 -67.82958984 125.27978516 C-66.60160639 123.07846013 -65.3727536 120.87761984 -64.14306641 118.67724609 C-55.53322335 103.26838702 -47.06843192 87.78887727 -38.73388672 72.22949219 C-36.99758519 68.99550225 -35.25225306 65.7665546 -33.50390625 62.5390625 C-26.84905821 50.2442771 -20.33156701 37.88972603 -13.92919922 25.46191406 C-9.48245627 16.85851612 -4.85158544 8.38117802 0 0 Z " fill="#007CB3" transform="translate(1206,462)"/>
<path d="M0 0 C2.7075195 2.29034882 5.38025177 4.60977654 8 7 C7.43384016 10.88350268 5.66155353 12.75770314 3 15.5625 C-1.1629087 20.0435928 -5.04614578 24.67637166 -8.859375 29.45703125 C-11.10659805 32.12663381 -13.50099504 34.56652839 -16 37 C-16.85980469 36.29875 -17.71960938 35.5975 -18.60546875 34.875 C-43.63043516 14.69369062 -71.53775771 3.43492242 -104 6 C-108.07581085 6.56022101 -112.05294228 7.41039432 -116.05859375 8.34375 C-119 9 -119 9 -122 9 C-122.495 9.99 -122.495 9.99 -123 11 C-124.43653605 11.59707877 -125.90102324 12.12747472 -127.375 12.625 C-138.30943443 16.89553019 -145.77168957 23.48362702 -151 34 C-152.21833833 36.96011091 -153.2024392 39.90178305 -154 43 C-154.18304688 43.65097656 -154.36609375 44.30195312 -154.5546875 44.97265625 C-156.77856657 55.09715831 -153.94265991 66.11736776 -149 75 C-130.54603159 100.12455872 -92.75549997 110.24840401 -64.9508667 121.85540771 C-22.71481966 139.49401262 -22.71481966 139.49401262 -7 154 C-6.27683594 154.65484375 -5.55367187 155.3096875 -4.80859375 155.984375 C5.03021894 165.31911189 11.72650273 177.17950818 16 190 C16.33 146.77 16.66 103.54 17 59 C28.88 59 40.76 59 53 59 C53.495 62.50625 53.99 66.0125 54.5 69.625 C54.65662109 70.71893066 54.81324219 71.81286133 54.97460938 72.93994141 C55.62924876 77.66009918 56.195754 82.22033992 56 87 C56.43642822 86.65332275 56.87285645 86.30664551 57.32250977 85.94946289 C67.14925437 78.18434491 77.01337562 71.02982667 88 65 C88.5887793 64.67273926 89.17755859 64.34547852 89.78417969 64.00830078 C110.16497259 52.80617164 135.10270362 48.95577865 157.83984375 54.95703125 C172.68734941 59.8572587 184.60143445 66.10845467 196 77 C196.68964844 77.60328125 197.37929688 78.2065625 198.08984375 78.828125 C216.94833206 96.00615395 224.78792095 125.58525239 228 150 C228.0942627 150.67587158 228.18852539 151.35174316 228.28564453 152.0480957 C229.26108717 160.12647079 229.22162851 168.24795291 229.24023438 176.37329102 C229.24986061 178.90089863 229.28092889 181.42766304 229.3125 183.95507812 C229.5610326 222.42164661 217.26748297 260.17348532 190.25 288.0625 C186.72840475 291.46396902 183.05644375 294.26810931 179 297 C178.34 297.66 177.68 298.32 177 299 C155.6049352 311.83703888 131.78932932 318.24795376 107 313 C92.82273585 309.39535518 80.58011059 302.22373538 68 295 C68 294.34 68 293.68 68 293 C67.2575 292.731875 66.515 292.46375 65.75 292.1875 C63.12332094 291.05325222 61.24078383 289.74761987 59 288 C59.07105453 289.08356277 59.14210907 290.16712555 59.21531677 291.28352356 C60.0449241 304.80371345 60.130102 318.28229281 60.09765625 331.82421875 C60.09578595 334.15118886 60.09436495 336.47815936 60.09336853 338.80513 C60.08959146 344.8629774 60.0798036 350.92079996 60.06866455 356.9786377 C60.05834567 363.18692692 60.0538487 369.39522025 60.04882812 375.60351562 C60.0381759 387.73568963 60.02061944 399.86783884 60 412 C45.81 412 31.62 412 17 412 C16.67 356.56 16.34 301.12 16 244 C14.02 248.95 12.04 253.9 10 259 C1.22309619 275.3743633 -11.37099998 287.20672102 -27 297 C-27.66 297 -28.32 297 -29 297 C-29.33 297.66 -29.66 298.32 -30 299 C-31.63549805 299.89794922 -31.63549805 299.89794922 -33.76171875 300.8046875 C-34.54450195 301.13919922 -35.32728516 301.47371094 -36.13378906 301.81835938 C-36.97651367 302.16705078 -37.81923828 302.51574219 -38.6875 302.875 C-39.5444043 303.23142578 -40.40130859 303.58785156 -41.28417969 303.95507812 C-50.65016111 307.77692955 -59.74431245 311.30921671 -70 311 C-70.33 311.66 -70.66 312.32 -71 313 C-81.47462315 313.83796985 -91.92997504 314.13226991 -102.4375 314.1875 C-103.62118164 314.20039062 -104.80486328 314.21328125 -106.02441406 314.2265625 C-112.96248721 314.23436905 -119.26780968 313.64619503 -126 312 C-127.7160999 311.61698163 -129.43224669 311.23417333 -131.1484375 310.8515625 C-157.8024603 304.66231424 -184.00441751 294.14872385 -205 276 C-205 275.34 -205 274.68 -205 274 C-205.58136719 273.73832031 -206.16273438 273.47664063 -206.76171875 273.20703125 C-209.13360331 271.92795214 -210.86082611 270.540563 -212.8125 268.6875 C-213.43769531 268.11386719 -214.06289062 267.54023437 -214.70703125 266.94921875 C-216 265 -216 265 -216.01171875 262.62109375 C-214.68711913 259.18940902 -212.53829887 256.94732433 -210 254.375 C-208.99759086 253.32260196 -207.99763444 252.26786287 -207 251.2109375 C-206.49726563 250.67952148 -205.99453125 250.14810547 -205.4765625 249.60058594 C-200.64740531 244.36580509 -196.23685232 238.71975063 -192 233 C-188.64491156 234.46266777 -186.43494778 236.34074073 -183.8125 238.875 C-156.04964876 264.05526042 -122.23475683 275.50655257 -85.06347656 274.19970703 C-78.37375373 273.7636062 -72.32258151 272.22125137 -66 270 C-64.92878906 269.62617187 -63.85757813 269.25234375 -62.75390625 268.8671875 C-48.22036521 263.27593986 -38.72629956 255.4856518 -31.26171875 241.90625 C-28.37543873 235.25797652 -27.61181115 228.97624293 -27.625 221.8125 C-27.62516113 220.9867749 -27.62532227 220.1610498 -27.62548828 219.31030273 C-27.78397387 210.7228865 -29.6531941 202.51278658 -34 195 C-34.66 194.67 -35.32 194.34 -36 194 C-36.37125 193.29875 -36.7425 192.5975 -37.125 191.875 C-42.74259041 183.26136137 -52.13494636 178.66777813 -61 174 C-62.2360498 173.349104 -62.2360498 173.349104 -63.49707031 172.68505859 C-73.67600117 167.37196231 -83.86856999 162.43799619 -94.63452148 158.43261719 C-100.87825758 156.10350906 -106.85924527 153.36689749 -112.86328125 150.48046875 C-115.55181101 149.21153627 -118.2377878 148.09345145 -121 147 C-132.44534669 142.32172515 -143.51318101 137.59515874 -154 131 C-155.30813063 130.24240479 -156.62003722 129.49124764 -157.9375 128.75 C-158.948125 128.1725 -159.95875 127.595 -161 127 C-161.969375 126.46375 -162.93875 125.9275 -163.9375 125.375 C-164.618125 124.92125 -165.29875 124.4675 -166 124 C-166 123.34 -166 122.68 -166 122 C-167.65 121.34 -169.3 120.68 -171 120 C-171 119.34 -171 118.68 -171 118 C-171.56074219 117.77183594 -172.12148437 117.54367187 -172.69921875 117.30859375 C-185.64616076 109.9448831 -193.77140296 92.68114807 -198 79 C-203.10098074 60.01453159 -201.39165571 40.22477054 -194 22 C-193.01 21.505 -193.01 21.505 -192 21 C-191.63879779 19.673945 -191.30937064 18.33909622 -191 17 C-186.53465721 8.056057 -181.02424118 0.00587376 -173 -6 C-171.76624513 -7.1408916 -170.53722643 -8.28692193 -169.3125 -9.4375 C-121.48374367 -51.01961564 -45.32875349 -37.14269828 0 0 Z M71.72537041 112.60009193 C70.36819555 113.70125839 68.9662251 114.74722801 67.54979134 115.77104759 C62.17894854 119.96477628 62.17894854 119.96477628 59.06702805 125.86105728 C58.71612646 129.1936559 58.67041857 132.40195769 58.73779297 135.75244141 C58.72348236 137.0007222 58.70917175 138.24900299 58.69442749 139.53511047 C58.66652943 142.93591838 58.6831063 146.33057826 58.72260809 149.7308774 C58.75556387 153.30038435 58.73773101 156.86970506 58.72756958 160.43930054 C58.71854966 166.42977054 58.75013065 172.41898704 58.80615234 178.40917969 C58.87031 185.32237159 58.87019822 192.23330774 58.8357228 199.14666045 C58.80393629 205.81633542 58.81749011 212.4851879 58.85159683 219.15482712 C58.86529651 221.98501015 58.86331769 224.8145297 58.84850693 227.64470291 C58.83026115 231.59945174 58.87836505 235.55190455 58.93310547 239.50634766 C58.92005371 240.67328659 58.90700195 241.84022552 58.89355469 243.04252625 C58.98985857 249.07563623 58.98985857 249.07563623 61.75831985 254.25617599 C63.75960526 256.03279841 65.75991358 257.54132764 68 259 C68.87785156 259.6496875 69.75570313 260.299375 70.66015625 260.96875 C88.81926518 272.54333651 108.87868563 280.45722825 130.64453125 276.3046875 C139.63107206 273.7675621 149.20290035 269.5627169 156 263 C156 262.34 156 261.68 156 261 C157.32 260.34 158.64 259.68 160 259 C160 258.34 160 257.68 160 257 C160.639375 256.7525 161.27875 256.505 161.9375 256.25 C164.18741541 255.18437567 164.18741541 255.18437567 164.75 252.875 C164.8325 252.25625 164.915 251.6375 165 251 C165.66 251 166.32 251 167 251 C180.87787054 228.34084662 185.22558516 204.87346115 185.25 178.625 C185.25100708 177.87288239 185.25201416 177.12076477 185.25305176 176.34585571 C185.23125719 152.23433021 182.51137203 125.88658085 165.48046875 107.2578125 C164.06974523 105.78417557 164.06974523 105.78417557 162 106 C161.77054687 105.4121875 161.54109375 104.824375 161.3046875 104.21875 C157.21033218 97.25589424 147.20543119 93.93251084 139.84765625 91.7109375 C135.8848328 90.72159063 132.07675271 90.17173134 128 90 C127.29617188 89.96003906 126.59234375 89.92007812 125.8671875 89.87890625 C105.14417369 89.24755995 87.31506891 99.78593131 71.72537041 112.60009193 Z M17 195 C18 198 18 198 18 198 Z M17 236 C18 240 18 240 18 240 Z " fill="#139BB5" transform="translate(216,1588)"/>
<path d="M0 0 C14.19 0 28.38 0 43 0 C43.33 79.86 43.66 159.72 44 242 C50.07262458 235.37450539 50.07262458 235.37450539 55 228 C55.66 228 56.32 228 57 228 C57.4640625 227.071875 57.4640625 227.071875 57.9375 226.125 C58.625 224.75 59.3125 223.375 60 222 C60.66 222 61.32 222 62 222 C62.21527344 221.47535156 62.43054687 220.95070313 62.65234375 220.41015625 C64.52862025 217.05461248 67.0350042 214.30924535 69.5625 211.4375 C70.65460701 210.18052196 71.74574409 208.92270059 72.8359375 207.6640625 C73.37444336 207.04305664 73.91294922 206.42205078 74.46777344 205.78222656 C78.06736083 201.59532599 81.52471242 197.29000702 85 193 C89.91911112 186.92769067 94.90083062 180.92146063 100 175 C109.25600687 164.36313304 109.25600687 164.36313304 117.75 153.125 C119.95792603 150.05843607 122.33030695 147.66581268 125 145 C126.77591519 142.99536846 128.52516937 140.98468824 130.25 138.9375 C130.72453613 138.37675781 131.19907227 137.81601563 131.68798828 137.23828125 C135.64230109 132.52113377 139.32427682 127.64624805 142.9296875 122.65625 C145.10157398 119.86967867 147.45688666 117.44828539 150 115 C150.33 114.67 150.66 114.34 151 114 C152.50418739 113.90688111 154.01271356 113.88253972 155.51977539 113.88647461 C156.96115623 113.88658791 156.96115623 113.88658791 158.43165588 113.88670349 C159.99882607 113.89444542 159.99882607 113.89444542 161.59765625 113.90234375 C162.66165146 113.9037587 163.72564667 113.90517365 164.82188416 113.90663147 C168.23545083 113.91224936 171.648953 113.92480489 175.0625 113.9375 C177.37044176 113.94251269 179.67838455 113.947076 181.98632812 113.95117188 C187.65757426 113.9622246 193.32878253 113.97898013 199 114 C198.14225348 118.47022506 195.58713988 120.88883556 192.5 124.0625 C187.81055412 129.00268114 183.4122484 134.07321865 179.14453125 139.38671875 C177.00125044 141.99847623 174.7761967 144.50365302 172.5 147 C169.38541332 150.41739372 166.4081338 153.9052235 163.5 157.5 C160.5918662 161.0947765 157.61458668 164.58260628 154.5 168 C149.17936971 173.84335888 143.91934009 179.85146409 139.3671875 186.3203125 C138.91601562 186.87460938 138.46484375 187.42890625 138 188 C137.34 188 136.68 188 136 188 C135.72905518 188.58934326 135.45811035 189.17868652 135.17895508 189.78588867 C134.01489469 191.97202734 132.78094952 193.58324069 131.13671875 195.42578125 C130.57919922 196.05806641 130.02167969 196.69035156 129.44726562 197.34179688 C128.57618164 198.31729492 128.57618164 198.31729492 127.6875 199.3125 C123.4790874 204.03564483 119.59330648 208.78869436 116 214 C116.53173828 214.73476562 116.53173828 214.73476562 117.07421875 215.484375 C121.93402408 222.30928321 126.48556216 229.31921463 131.03686523 236.35205078 C134.24054088 241.29991441 137.46588159 246.23019033 140.75 251.125 C146.15817721 259.1909688 151.45711362 267.32848086 156.76074219 275.46337891 C160.15019127 280.65837058 163.55375907 285.84247264 167 291 C171.17046293 297.24137346 175.27542304 303.52442002 179.375 309.8125 C183.96984728 316.85355551 188.56997697 323.89014243 193.25 330.875 C194.39136933 332.58717841 195.53192654 334.29989562 196.67236328 336.01269531 C197.67541728 337.51414062 198.6822642 339.01305299 199.69091797 340.51074219 C201.5330423 343.25066335 203.36107209 345.99959718 205.1875 348.75 C205.77756836 349.62124512 206.36763672 350.49249023 206.97558594 351.39013672 C207.51344727 352.20498535 208.05130859 353.01983398 208.60546875 353.859375 C209.09168701 354.58608398 209.57790527 355.31279297 210.07885742 356.06152344 C211 358 211 358 210 361 C203.31000778 361.1873147 196.62422119 361.27195221 189.93164062 361.28686523 C187.65790826 361.30385029 185.38422228 361.34393149 183.11132812 361.40795898 C164.71243727 361.9033757 164.71243727 361.9033757 160.20605469 358.7411499 C157.05623948 355.29949921 155.57044083 351.36705851 154 347 C153.04308557 345.30822798 152.04570695 343.63837565 151 342 C150.54093262 341.24984619 150.08186523 340.49969238 149.60888672 339.72680664 C148.032271 337.17120251 146.45433277 334.61642607 144.875 332.0625 C144.30112549 331.13332764 143.72725098 330.20415527 143.13598633 329.24682617 C139.0238166 322.60594467 134.81755927 316.03627014 130.51171875 309.51953125 C129 307 129 307 129 305 C128.34 304.67 127.68 304.34 127 304 C126.1128388 302.70770733 125.28760034 301.3725252 124.49609375 300.01953125 C124.0072168 299.19203369 123.51833984 298.36453613 123.01464844 297.51196289 C122.23395996 296.17572876 122.23395996 296.17572876 121.4375 294.8125 C117.80159997 288.66560422 114.14692863 282.54796728 110.25 276.5625 C106.6770573 271.06715879 103.21199718 265.51975139 99.796875 259.92578125 C98.2262379 257.36837431 96.62029904 254.83852799 95 252.3125 C93 249 93 249 93 247 C92.34 247 91.68 247 91 247 C90.67 246.01 90.34 245.02 90 244 C85.61251463 248.17229535 81.5401577 252.46192861 77.75 257.1875 C74.32267151 261.45984223 70.74281188 265.50758865 67 269.5 C62.53520116 274.26856021 58.30297073 279.15654973 54.23046875 284.26953125 C52 287 52 287 50.28265381 288.48930359 C45.8582194 292.62486225 44.4964131 295.82065296 44.11352539 301.875 C44.07284915 304.58941116 44.06822206 307.28709597 44.09765625 310 C44.08825891 311.44590493 44.07579357 312.89179286 44.06040955 314.33764648 C44.02832623 318.11910378 44.03757262 321.89934231 44.05578613 325.68084717 C44.06895787 330.23072425 44.03016474 334.78042669 44.00020599 339.33018494 C43.96058945 346.22079947 43.98647941 353.10836356 44 360 C29.48 360 14.96 360 0 360 C-1.12500651 349.8749414 -1.12500651 349.8749414 -1.12584114 344.85272884 C-1.12844889 343.71053983 -1.13105664 342.56835081 -1.13374341 341.39155 C-1.13151268 340.16179636 -1.12928196 338.93204271 -1.12698364 337.6650238 C-1.12813751 336.32555078 -1.12972682 334.98607808 -1.13171089 333.64660603 C-1.13586846 329.9849516 -1.13382962 326.32332339 -1.13072467 322.6616689 C-1.12845587 318.70427408 -1.13195777 314.74688368 -1.13470459 310.78948975 C-1.13914728 303.04024574 -1.13819194 295.29101143 -1.13529195 287.54176705 C-1.13302959 281.23354827 -1.13272902 274.92533219 -1.13381577 268.61711311 C-1.133969 267.71771875 -1.13412223 266.81832438 -1.13428011 265.89167564 C-1.13459986 264.064128 -1.13492407 262.23658035 -1.1352527 260.40903271 C-1.13810373 243.27302112 -1.13482764 226.13701488 -1.12945233 209.00100417 C-1.12499607 194.34254501 -1.12575122 179.68409378 -1.13037109 165.02563477 C-1.13574329 147.97237758 -1.13781708 130.91912511 -1.13475883 113.8658672 C-1.13444032 112.04061925 -1.13412595 110.21537131 -1.13381577 108.39012337 C-1.13358435 107.04337525 -1.13358435 107.04337525 -1.13334826 105.6694201 C-1.13249016 99.38677917 -1.1339309 93.10414125 -1.13629532 86.82150078 C-1.13912348 79.13796093 -1.13829275 71.45443126 -1.13301457 63.77089255 C-1.13041601 59.86111163 -1.12930566 55.95134759 -1.13266373 52.04156685 C-1.14640299 34.66609379 -0.85707621 17.35806635 0 0 Z " fill="#139BB5" transform="translate(1197,1529)"/>
<path d="M0 0 C2.09957134 0.00315579 4.19772074 -0.02039579 6.29711914 -0.0456543 C27.43965196 -0.14562556 46.10199373 5.18654643 62.79907227 18.31567383 C63.81227539 19.11038086 63.81227539 19.11038086 64.84594727 19.92114258 C82.24033929 35.44045106 90.25957738 64.08763016 91.96738982 86.52726603 C92.21122287 91.67230715 92.17699599 96.81534495 92.13964844 101.96459961 C92.13879918 103.64211003 92.13928311 105.31962156 92.14097595 106.99713135 C92.14182569 111.48775917 92.12436851 115.97813941 92.10325408 120.46871042 C92.08431398 125.18517153 92.08272334 129.90164027 92.07917786 134.61813354 C92.06990773 143.52116215 92.04536319 152.42407831 92.01512939 161.32705772 C91.9814273 171.47478731 91.96505989 181.62252268 91.95004308 191.77029443 C91.91880826 212.61883065 91.86386031 233.46721302 91.79907227 254.31567383 C79.58907227 254.31567383 67.37907227 254.31567383 54.79907227 254.31567383 C53.60046199 247.72331731 52.45138186 241.26079098 51.67407227 234.62817383 C51.58770508 233.91467773 51.50133789 233.20118164 51.41235352 232.46606445 C51.20499767 230.74961885 51.00158201 229.03269792 50.79907227 227.31567383 C45.51044299 230.62358073 40.26918713 233.93934618 35.23657227 237.62817383 C30.54694627 240.95313374 25.62856012 243.77259113 20.61157227 246.56567383 C19.4706311 247.20243042 19.4706311 247.20243042 18.30664062 247.85205078 C6.53861034 254.31567383 6.53861034 254.31567383 1.79907227 254.31567383 C1.79907227 254.97567383 1.79907227 255.63567383 1.79907227 256.31567383 C-1.20092773 256.98234049 -4.20092773 257.64900716 -7.20092773 258.31567383 C-7.85496582 258.47817627 -8.50900391 258.64067871 -9.18286133 258.80810547 C-14.7848891 260.1548295 -20.19990034 260.76478347 -25.95092773 261.00317383 C-26.8285376 261.04007324 -27.70614746 261.07697266 -28.61035156 261.11499023 C-43.77855654 261.65855358 -57.18136704 259.20279404 -71.20092773 253.31567383 C-71.20092773 252.65567383 -71.20092773 251.99567383 -71.20092773 251.31567383 C-71.79905273 251.17129883 -72.39717773 251.02692383 -73.01342773 250.87817383 C-74.76243178 250.42842993 -76.48769796 249.88675042 -78.20092773 249.31567383 C-78.20092773 248.65567383 -78.20092773 247.99567383 -78.20092773 247.31567383 C-78.73717773 247.06817383 -79.27342773 246.82067383 -79.82592773 246.56567383 C-94.38292217 238.90409781 -102.02102756 223.35411245 -106.88842773 208.17114258 C-111.80692592 188.66793101 -107.38586221 168.24985099 -97.39868164 151.17749023 C-94.0148904 145.91764677 -89.73102346 141.5891069 -85.20092773 137.31567383 C-84.45584961 136.6015332 -83.71077148 135.88739258 -82.94311523 135.15161133 C-49.60721182 105.99721497 5.73687744 100.33805592 47.79907227 96.31567383 C47.65904785 95.65615723 47.51902344 94.99664063 47.37475586 94.31713867 C46.44744761 89.84129804 45.61663689 85.5177869 45.42407227 80.94067383 C44.93611945 74.68600586 42.94501206 69.17044542 40.79907227 63.31567383 C40.4677832 62.22899414 40.13649414 61.14231445 39.79516602 60.02270508 C39.10036861 57.18091872 39.10036861 57.18091872 36.79907227 56.31567383 C35.96405404 55.12279065 35.15562638 53.91120804 34.36157227 52.69067383 C29.13023026 45.56168816 21.35519664 41.16111242 12.79907227 39.31567383 C11.95860352 38.97793945 11.11813477 38.64020508 10.25219727 38.29223633 C5.57986554 36.97087555 1.1948252 36.9746041 -3.63842773 37.00317383 C-4.61690674 37.00808838 -5.59538574 37.01300293 -6.60351562 37.01806641 C-30.91642172 37.40747229 -51.85408089 47.59446599 -72.31030273 59.74926758 C-74.70375469 61.04625979 -76.54641369 61.85822116 -79.20092773 62.31567383 C-80.37305819 60.52757686 -81.53848299 58.73508258 -82.70092773 56.94067383 C-83.35061523 55.94293945 -84.00030273 54.94520508 -84.66967773 53.91723633 C-86.20092773 51.31567383 -86.20092773 51.31567383 -86.20092773 49.31567383 C-86.86092773 49.31567383 -87.52092773 49.31567383 -88.20092773 49.31567383 C-89.16179909 47.42112559 -90.11951742 45.52497801 -91.07592773 43.62817383 C-91.87643555 42.04456055 -91.87643555 42.04456055 -92.69311523 40.42895508 C-93.98780878 37.75571477 -95.14116027 35.08856053 -96.20092773 32.31567383 C-86.83763555 26.28725283 -77.28949084 21.02497086 -67.20092773 16.31567383 C-66.39059082 15.93733398 -65.58025391 15.55899414 -64.74536133 15.16918945 C-43.8569584 5.54246405 -23.12137414 -0.07226266 0 0 Z M34.73657227 127.25317383 C33.5287207 127.42719727 32.32086914 127.6012207 31.07641602 127.78051758 C28.02225003 128.22683776 28.02225003 128.22683776 25.96191406 128.79541016 C23.29634822 129.43660226 20.63149257 129.79543197 17.91625977 130.17504883 C-4.63716075 133.58860759 -32.64216112 139.55780635 -50.20092773 155.31567383 C-50.20092773 155.97567383 -50.20092773 156.63567383 -50.20092773 157.31567383 C-50.86092773 157.31567383 -51.52092773 157.31567383 -52.20092773 157.31567383 C-61.88206883 168.52290613 -64.96803942 180.482568 -64.01733398 195.14770508 C-62.62827972 204.24099844 -57.62893054 212.0098305 -50.54858398 217.78051758 C-36.85870805 226.7324664 -19.10666758 227.40000769 -3.38842773 224.31567383 C4.50286747 222.15325397 11.66371885 218.23815795 18.79907227 214.31567383 C20.17579102 213.57124023 20.17579102 213.57124023 21.58032227 212.81176758 C26.6359882 209.93102287 31.28932914 206.57037354 35.92407227 203.06567383 C36.50568115 202.62884277 37.08729004 202.19201172 37.68652344 201.74194336 C39.09741644 200.64970767 40.45392855 199.48793073 41.79907227 198.31567383 C41.79907227 197.65567383 41.79907227 196.99567383 41.79907227 196.31567383 C42.43844727 196.00629883 43.07782227 195.69692383 43.73657227 195.37817383 C45.73518048 194.48115752 45.73518048 194.48115752 46.79907227 193.31567383 C46.89324999 191.2294836 46.91650104 189.14006906 46.91259766 187.05175781 C46.91274368 186.39812256 46.91288971 185.7444873 46.91304016 185.07104492 C46.91234109 182.90125255 46.90454904 180.73154504 46.89672852 178.56176758 C46.89486431 177.06104072 46.89344042 175.56031325 46.8924408 174.05958557 C46.88861579 170.10249156 46.87878566 166.14543405 46.86773682 162.18835449 C46.85752232 158.15332533 46.85294309 154.1182903 46.84790039 150.08325195 C46.83716337 142.16070913 46.82008717 134.23819602 46.79907227 126.31567383 C42.68361076 126.27042001 38.81341475 126.6558183 34.73657227 127.25317383 Z " fill="#139BB5" transform="translate(1094.200927734375,1640.684326171875)"/>
<path d="M0 0 C0.44988281 0.42796875 0.89976562 0.8559375 1.36328125 1.296875 C1.36328125 1.956875 1.36328125 2.616875 1.36328125 3.296875 C1.9253125 3.51859375 2.48734375 3.7403125 3.06640625 3.96875 C12.45313589 9.39645081 18.51640898 21.96175555 23.36328125 31.296875 C23.83507813 32.18761719 24.306875 33.07835937 24.79296875 33.99609375 C34.28065496 53.23664996 36.55650018 75.22287604 36.48828125 96.359375 C36.49214844 97.56142578 36.49601562 98.76347656 36.5 100.00195312 C36.49806641 101.7740918 36.49806641 101.7740918 36.49609375 103.58203125 C36.49496582 104.63269775 36.49383789 105.68336426 36.49267578 106.76586914 C36.32693 111.2888525 35.813637 115.79331753 35.36328125 120.296875 C-19.74671875 120.296875 -74.85671875 120.296875 -131.63671875 120.296875 C-127.42236009 148.39259937 -120.24087142 173.5937605 -96.63671875 191.296875 C-76.8030594 204.15687399 -52.99259325 207.49325122 -29.85546875 203.109375 C-17.90441816 200.09260495 -6.88271598 195.78630262 4.0078125 190.03125 C6.76271597 188.60729524 9.46221281 187.37994055 12.36328125 186.296875 C14.56700258 190.19991033 16.76675211 194.1050299 18.95703125 198.015625 C20.39871769 200.58876155 21.85596334 203.14929321 23.33203125 205.703125 C23.87859375 206.6621875 24.42515625 207.62125 24.98828125 208.609375 C25.47554687 209.45113281 25.9628125 210.29289062 26.46484375 211.16015625 C27.36328125 213.296875 27.36328125 213.296875 26.36328125 216.296875 C24.85131836 217.44433594 24.85131836 217.44433594 22.890625 218.53125 C21.79995728 219.14021118 21.79995728 219.14021118 20.68725586 219.76147461 C19.89971924 220.18565674 19.11218262 220.60983887 18.30078125 221.046875 C17.49455322 221.48717041 16.6883252 221.92746582 15.85766602 222.38110352 C-7.59838606 234.99645109 -30.9412747 241.21080966 -57.63671875 241.296875 C-58.78551514 241.30291748 -58.78551514 241.30291748 -59.95751953 241.30908203 C-80.72434015 241.23012074 -105.22529423 234.6071976 -121.734375 221.75390625 C-123.76636399 220.09885212 -123.76636399 220.09885212 -126.94921875 218.671875 C-130.23838107 216.98904777 -132.10729999 215.00276484 -134.63671875 212.296875 C-136.07411864 210.90093857 -137.5116296 209.50511652 -138.94921875 208.109375 C-143.55651163 203.50208212 -147.91709213 198.65840765 -151.63671875 193.296875 C-151.63671875 192.636875 -151.63671875 191.976875 -151.63671875 191.296875 C-152.29671875 191.296875 -152.95671875 191.296875 -153.63671875 191.296875 C-164.56805587 171.79082668 -171.90808837 152.61419926 -174.63671875 130.296875 C-174.74886719 129.42933594 -174.86101562 128.56179688 -174.9765625 127.66796875 C-175.30871307 124.54211342 -175.4912521 121.43763227 -175.63671875 118.296875 C-175.67603516 117.48379883 -175.71535156 116.67072266 -175.75585938 115.83300781 C-176.93720815 87.67085429 -170.69185952 61.25548186 -156.953125 36.68359375 C-155.86052013 34.70263952 -154.85291327 32.71593476 -153.88671875 30.671875 C-152.63671875 28.296875 -152.63671875 28.296875 -150.63671875 27.296875 C-150.30671875 26.306875 -149.97671875 25.316875 -149.63671875 24.296875 C-148.97671875 24.296875 -148.31671875 24.296875 -147.63671875 24.296875 C-147.57484375 23.74 -147.51296875 23.183125 -147.44921875 22.609375 C-146.30042005 19.33971717 -144.11061417 17.69978347 -141.63671875 15.296875 C-140.92773438 14.54148437 -140.21875 13.78609375 -139.48828125 13.0078125 C-103.25708142 -25.00316557 -42.603346 -31.76041024 0 0 Z M-110.82421875 37.609375 C-119.48053389 47.75212809 -125.27877936 58.96158428 -128.82421875 71.734375 C-129.08396484 72.62447266 -129.34371094 73.51457031 -129.61132812 74.43164062 C-131.24569635 80.21316544 -131.95281379 85.14173034 -132.63671875 91.296875 C-89.40671875 91.296875 -46.17671875 91.296875 -1.63671875 91.296875 C-2.87046654 67.85566707 -5.37182547 48.25012521 -21.25390625 30.48828125 C-22.58503749 29.07929903 -22.58503749 29.07929903 -24.63671875 29.296875 C-24.63671875 28.636875 -24.63671875 27.976875 -24.63671875 27.296875 C-51.28791822 6.19800876 -88.5918133 13.76161313 -110.82421875 37.609375 Z " fill="#139BB5" transform="translate(1544.63671875,1660.703125)"/>
<path d="M0 0 C1.24330078 -0.020625 2.48660156 -0.04125 3.76757812 -0.0625 C23.16319441 -0.14310516 40.05946603 5.24059467 54.421875 18.4140625 C76.3006464 41.73445837 77.25390642 75.6595528 77.17602539 105.77563477 C77.17574229 107.34462482 77.17590364 108.913615 77.1764679 110.48260498 C77.17675109 114.68188959 77.17093281 118.88114478 77.16389394 123.08042264 C77.1575797 127.49127119 77.15705029 131.90212065 77.15586853 136.31297302 C77.15277875 144.63870719 77.14459756 152.96442799 77.13451904 161.2901563 C77.12328422 170.78009002 77.117829 180.27002443 77.11282361 189.75996315 C77.10241259 209.25665118 77.08409689 228.75332093 77.0625 248.25 C62.5425 248.25 48.0225 248.25 33.0625 248.25 C33.04268066 243.61855957 33.02286133 238.98711914 33.00244141 234.21533203 C32.93535175 218.86450579 32.85781161 203.51374523 32.77497292 188.16299629 C32.72503045 178.86144754 32.67858681 169.55990679 32.640625 160.25830078 C32.60749587 152.1430656 32.56755234 144.02789616 32.51970994 135.91273391 C32.49465091 131.62306103 32.47281115 127.33343059 32.45915604 123.04370499 C33.05918158 96.40541162 33.05918158 96.40541162 29.0625 70.25 C28.88332031 69.51523438 28.70414063 68.78046875 28.51953125 68.0234375 C25.94655757 58.44885664 21.54692213 49.81726004 13.0625 44.25 C12.0725 43.92 11.0825 43.59 10.0625 43.25 C10.0625 42.59 10.0625 41.93 10.0625 41.25 C-8.11433503 35.65983217 -26.18591997 36.04738004 -43.4375 44.8125 C-54.23065267 51.10718108 -63.90609666 59.687131 -72.9375 68.25 C-73.79435237 68.96827312 -74.65120474 69.68654623 -75.53402233 70.4265852 C-78.58559606 74.01133181 -78.56670959 75.83246139 -78.57673645 80.49494934 C-78.58926996 81.57329002 -78.58926996 81.57329002 -78.60205668 82.67341536 C-78.62396428 85.07679989 -78.6103878 87.47865304 -78.59692383 89.88208008 C-78.60537759 91.60694538 -78.61602195 93.33180114 -78.62869263 95.05664062 C-78.65685888 99.73608031 -78.65436385 104.41506191 -78.64639878 109.09456086 C-78.64327569 113.98601701 -78.6683023 118.87732676 -78.69035339 123.76872253 C-78.7278214 133.02985765 -78.73994302 142.29084592 -78.7429778 151.55204934 C-78.74766563 162.09617095 -78.78058014 172.64014518 -78.81587565 183.18420184 C-78.88784381 204.87278445 -78.92433231 226.56130722 -78.9375 248.25 C-85.04289632 248.41720361 -91.14841617 248.57780433 -97.25415039 248.73217773 C-99.33297448 248.78568107 -101.41175222 248.84101658 -103.49047852 248.89819336 C-106.47141523 248.97987259 -109.45245431 249.05504838 -112.43359375 249.12890625 C-113.83671059 249.16945885 -113.83671059 249.16945885 -115.26817322 249.21083069 C-116.12899002 249.23092697 -116.98980682 249.25102325 -117.87670898 249.27172852 C-119.01921364 249.30170677 -119.01921364 249.30170677 -120.18479919 249.33229065 C-121.9375 249.25 -121.9375 249.25 -122.9375 248.25 C-123.03555377 245.14023287 -123.06740559 242.05265859 -123.05775452 238.94248962 C-123.05860894 237.95341553 -123.05946337 236.96434143 -123.06034368 235.94529539 C-123.06200148 232.60405592 -123.05647223 229.26286577 -123.05102539 225.92163086 C-123.05074356 223.53727723 -123.05090118 221.15292352 -123.0514679 218.76856995 C-123.05172605 212.94868321 -123.04737472 207.12881284 -123.04103024 201.30892985 C-123.03389632 194.53944865 -123.03238635 187.76996981 -123.03124207 181.00048537 C-123.02905122 168.92732206 -123.02239026 156.8541655 -123.01293945 144.78100586 C-123.00376617 133.05021193 -122.99668493 121.31941983 -122.99243164 109.58862305 C-122.99216892 108.86603284 -122.99190619 108.14344263 -122.99163551 107.39895575 C-122.99033051 103.77408116 -122.98906679 100.14920655 -122.98782361 96.52433193 C-122.97744999 66.43288309 -122.95955637 36.34144268 -122.9375 6.25 C-110.7275 6.25 -98.5175 6.25 -85.9375 6.25 C-84.6175 17.14 -83.2975 28.03 -81.9375 39.25 C-77.53988798 35.59617023 -77.53988798 35.59617023 -73.375 31.6875 C-53.42640463 11.73890463 -28.15429905 0.11358265 0 0 Z " fill="#139CB5" transform="translate(886.9375,1640.75)"/>
<path d="M0 0 C1.24330078 -0.020625 2.48660156 -0.04125 3.76757812 -0.0625 C20.97750018 -0.13402175 35.38790642 3.83920314 49.0625 14.25 C50.09375 14.9925 51.125 15.735 52.1875 16.5 C72.66697158 36.08905977 76.37944786 66.3638355 77.0625 93.25 C77.21835626 104.32438853 77.18301718 115.40030521 77.16389394 126.47549415 C77.15756668 130.76888349 77.15704929 135.06227383 77.15586853 139.35566711 C77.15278248 147.45467268 77.14460652 155.55366446 77.13451904 163.65266401 C77.12327238 172.88630067 77.11782608 182.11993805 77.11282361 191.35357988 C77.10242106 210.31906261 77.08411023 229.2845265 77.0625 248.25 C62.5425 248.25 48.0225 248.25 33.0625 248.25 C33.0531543 243.31562988 33.04380859 238.38125977 33.03417969 233.29736328 C33.00033126 216.94866096 32.94493698 200.60008322 32.87859726 184.25148201 C32.83891773 174.34457276 32.80646923 164.43774168 32.79150391 154.53076172 C32.7784296 145.88810559 32.75131896 137.24562224 32.70788693 128.60306346 C32.68540113 124.03387977 32.6695815 119.46490814 32.67061615 114.89566422 C32.67137047 110.57977296 32.6531156 106.26434818 32.62133217 101.94857788 C32.61293299 100.37907928 32.61101374 98.80952772 32.61669731 97.24001694 C32.67215434 79.54497563 30.10932545 61.04702462 18.0625 47.25 C8.70029935 39.3449512 -2.98158027 36.57041308 -15.03125 37.53515625 C-37.26052673 39.67687997 -53.06115651 50.54373725 -69.01171875 65.6328125 C-70.9375 67.25 -70.9375 67.25 -72.9375 67.25 C-72.9375 67.91 -72.9375 68.57 -72.9375 69.25 C-73.58693479 69.64192221 -74.23636957 70.03384441 -74.9054842 70.43764305 C-77.2551121 72.15047385 -77.2551121 72.15047385 -77.44251537 75.34939003 C-77.44490373 76.63583601 -77.44729208 77.92228199 -77.44975281 79.24771118 C-77.45654849 79.96419055 -77.46334418 80.68066993 -77.4703458 81.41886079 C-77.48834142 83.82593693 -77.4778234 86.23205095 -77.4675293 88.63916016 C-77.47462428 90.36210412 -77.48348644 92.08504158 -77.49398804 93.80796814 C-77.51764254 98.49167013 -77.51686103 103.17509409 -77.51207328 107.85884142 C-77.51148119 112.75249624 -77.53415035 117.64603845 -77.55464172 122.53964233 C-77.59008987 131.81025748 -77.60607676 141.08079416 -77.6144169 150.3514694 C-77.62737292 163.97294461 -77.66558371 177.59435453 -77.70851612 191.215765 C-77.71165481 192.21265425 -77.71479349 193.20954351 -77.71802729 194.23664153 C-77.7243066 196.22347968 -77.73065015 198.21031762 -77.73705989 200.19715536 C-77.7551756 206.03334393 -77.76624473 211.86949368 -77.77135694 217.70570779 C-77.77517674 221.32765253 -77.7827847 224.9495831 -77.7911644 228.57151985 C-77.79413577 230.2578351 -77.79535804 231.94415442 -77.79475212 233.63047218 C-77.7940899 235.9224342 -77.79940055 238.21430597 -77.80619812 240.5062561 C-77.80808403 242.434794 -77.80808403 242.434794 -77.81000805 244.40229225 C-77.9375 247.25 -77.9375 247.25 -78.9375 248.25 C-80.28844982 248.34268999 -81.64417091 248.36747326 -82.99829102 248.36352539 C-83.85910782 248.36344986 -84.71992462 248.36337433 -85.60682678 248.36329651 C-86.54223801 248.35813522 -87.47764923 248.35297394 -88.44140625 248.34765625 C-89.39442123 248.3462413 -90.34743622 248.34482635 -91.32933044 248.34336853 C-94.38625165 248.33775152 -97.44310077 248.32519616 -100.5 248.3125 C-102.56705624 248.30748719 -104.63411362 248.30292391 -106.70117188 248.29882812 C-111.77997588 248.28777656 -116.8587257 248.27050055 -121.9375 248.25 C-123.07108382 244.62646562 -123.05789563 241.24096501 -123.05102539 237.45935059 C-123.05124868 236.43498421 -123.05124868 236.43498421 -123.05147648 235.38992357 C-123.05078191 233.10041246 -123.0429378 230.81098155 -123.03515625 228.52148438 C-123.03323643 226.8780217 -123.03177294 225.23455844 -123.0307312 223.59109497 C-123.02756542 220.04333928 -123.02128743 216.4956073 -123.01266479 212.94786072 C-122.99907302 207.28982731 -122.99323006 201.6318017 -122.98852539 195.97375488 C-122.97648167 182.88791291 -122.95474062 169.80209047 -122.93229675 156.71626282 C-122.91191621 144.82382606 -122.89384116 132.93139748 -122.88408184 121.03894663 C-122.88000216 116.36060294 -122.87390012 111.68228367 -122.86233521 107.00395203 C-122.80875467 85.10136068 -122.99843312 63.22362245 -123.58494568 41.32793427 C-123.80826983 32.91706404 -123.99319451 24.50862523 -124.03100586 16.09460449 C-124.03750688 15.33162694 -124.04400789 14.56864938 -124.05070591 13.78255129 C-124.05543088 8.48586177 -124.05543088 8.48586177 -122.9375 6.25 C-110.7275 6.25 -98.5175 6.25 -85.9375 6.25 C-84.6175 17.14 -83.2975 28.03 -81.9375 39.25 C-78.3075 35.95 -74.6775 32.65 -70.9375 29.25 C-49.87781012 11.74428287 -27.93256308 0.1126881 0 0 Z " fill="#139BB5" transform="translate(664.9375,1640.75)"/>
<path d="M0 0 C1.00554932 -0.00128906 2.01109863 -0.00257812 3.04711914 -0.00390625 C11.53359667 0.1154783 18.94221971 1.5457065 26.9375 4.375 C26.4058318 12.41418979 24.80159585 20.04931458 22.9375 27.875 C22.66421875 29.05320312 22.3909375 30.23140625 22.109375 31.4453125 C20.08441558 40.08116883 20.08441558 40.08116883 18.9375 42.375 C14.97914527 41.85869286 11.14251312 41.19916292 7.25 40.3125 C-7.38747272 37.38943434 -21.49136424 40.39151248 -34.0625 48.375 C-45.61651303 57.32715513 -55.52495168 69.2810087 -62.0625 82.375 C-62.38847294 83.00480459 -62.71444588 83.63460918 -63.05029678 84.28349876 C-66.628472 92.01099067 -66.6399515 99.49278343 -66.60839844 107.83056641 C-66.61714787 109.36897825 -66.6276384 110.90738102 -66.63972473 112.44577026 C-66.66743789 116.59387944 -66.67099269 120.74168952 -66.67000484 124.8898778 C-66.67314666 129.23543933 -66.69879112 133.58086865 -66.72198486 137.92636108 C-66.76245163 146.14253078 -66.78286358 154.35862129 -66.79595876 162.57487524 C-66.81186048 171.93412923 -66.85028939 181.29324909 -66.89055204 190.65242505 C-66.97282342 209.89326487 -67.02402202 229.13401933 -67.0625 248.375 C-81.2525 248.375 -95.4425 248.375 -110.0625 248.375 C-111.09882669 206.69986225 -111.21832481 165.05586127 -111.19106841 123.37071431 C-111.18672736 115.94590156 -111.18983394 108.52110579 -111.1946975 101.09629411 C-111.19928141 93.79467875 -111.19985498 86.49307057 -111.19725883 79.19145423 C-111.19573017 74.88931208 -111.19540579 70.58718125 -111.19879532 66.2850399 C-111.21271222 45.95105571 -110.8821461 25.69644425 -110.0625 5.375 C-98.1825 5.375 -86.3025 5.375 -74.0625 5.375 C-72.43139545 19.35589611 -71.17371231 33.3437114 -70.0625 47.375 C-69.50820312 46.4365625 -68.95390625 45.498125 -68.3828125 44.53125 C-67.6514246 43.31227016 -66.91963286 42.09353255 -66.1875 40.875 C-65.82269531 40.25496094 -65.45789062 39.63492187 -65.08203125 38.99609375 C-64.1302482 37.42132542 -63.10139741 35.89370947 -62.0625 34.375 C-61.4025 34.375 -60.7425 34.375 -60.0625 34.375 C-59.65414917 33.48204224 -59.65414917 33.48204224 -59.23754883 32.57104492 C-51.74569201 18.56953815 -33.54714679 7.1520557 -19.0625 2.375 C-12.62850333 0.43382616 -6.70678742 -0.00891193 0 0 Z " fill="#139BB5" transform="translate(1702.0625,1640.625)"/>
<path d="M0 0 C15.51 0 31.02 0 47 0 C47 80.52 47 161.04 47 244 C31.82 244 16.64 244 1 244 C0.67 163.48 0.34 82.96 0 0 Z " fill="#139BB4" transform="translate(463,1645)"/>
<path d="M0 0 C5.6884933 4.91278967 9.64059873 10.16190598 10.203125 17.734375 C10.34614865 26.93556319 9.14419062 33.48908222 2.8125 40.390625 C-1.61551624 44.32239804 -6.04236384 47 -12 47 C-12 47.66 -12 48.32 -12 49 C-22.42007671 49.41071835 -33.25337263 49.49749462 -42 43 C-43.010625 42.278125 -44.02125 41.55625 -45.0625 40.8125 C-48.57392668 37.82462794 -50.25188164 34.19548406 -52 30 C-52.36738281 29.21238281 -52.73476563 28.42476562 -53.11328125 27.61328125 C-54.94721509 22.20842776 -54.1589527 15.95732757 -52.09375 10.6875 C-47.7793992 3.22483915 -41.13780821 -2.28739726 -33 -5 C-21.64847756 -7.83788061 -9.90506044 -6.15604832 0 0 Z " fill="#139BB5" transform="translate(509,1548)"/>
<path d="M0 0 C0.33 0 0.66 0 1 0 C3.23156788 13.94729926 1.84372091 28.45073883 1.1875 42.5 C1.14365173 43.44408722 1.09980347 44.38817444 1.05462646 45.36087036 C0.26719453 61.98402455 -0.96329335 78.4771881 -3 95 C-3.14163574 96.15918945 -3.28327148 97.31837891 -3.42919922 98.51269531 C-8.62854898 140.00408093 -17.02681162 184.91019025 -43 219 C-43.33 218.01 -43.66 217.02 -44 216 C-42.84765625 214.046875 -42.84765625 214.046875 -41.0625 211.75 C-12.66760813 172.50319896 -7.25356227 117.99399611 -3 71 C-2.93941406 70.33309143 -2.87882812 69.66618286 -2.81640625 68.97906494 C-1.1785643 50.67106286 -0.80015845 32.47574205 -0.98535156 14.10986328 C-0.9955407 12.92129982 -0.9955407 12.92129982 -1.00593567 11.70872498 C-1.01989146 10.21539603 -1.03845626 8.72210087 -1.06230164 7.22889709 C-1.11094951 2.22189903 -1.11094951 2.22189903 0 0 Z " fill="#119AB7" transform="translate(1530,757)"/>
<path d="M0 0 C0.99 0.495 0.99 0.495 2 1 C-2.75 4 -2.75 4 -5 4 C-5.33 4.66 -5.66 5.32 -6 6 C-11.30769231 9 -11.30769231 9 -15 9 C-15.33 9.66 -15.66 10.32 -16 11 C-16.99 11 -17.98 11 -19 11 C-19.33 11.66 -19.66 12.32 -20 13 C-22.11179439 14.10905121 -24.26510471 15.139927 -26.4375 16.125 C-28.19900391 16.93324219 -28.19900391 16.93324219 -29.99609375 17.7578125 C-33 19 -33 19 -35 19 C-35.33 19.66 -35.66 20.32 -36 21 C-37.73413086 21.96142578 -37.73413086 21.96142578 -39.96484375 22.9453125 C-40.76470703 23.29980469 -41.56457031 23.65429688 -42.38867188 24.01953125 C-43.22978516 24.38433594 -44.07089844 24.74914063 -44.9375 25.125 C-46.19336914 25.68380859 -46.19336914 25.68380859 -47.47460938 26.25390625 C-53.72624771 29 -53.72624771 29 -56 29 C-56.33 29.66 -56.66 30.32 -57 31 C-59.14453125 32 -59.14453125 32 -61.8125 33 C-65.5338599 34.39985152 -65.5338599 34.39985152 -69.07421875 36.1875 C-71.47933036 37.20223269 -72.55351316 36.71688197 -75 36 C-74.12190674 35.58862793 -73.24381348 35.17725586 -72.33911133 34.75341797 C-56.56839314 27.36202037 -40.80842817 19.95021941 -25.125 12.375 C-23.97620361 11.82054199 -22.82740723 11.26608398 -21.64379883 10.69482422 C-20.54704834 10.1638916 -19.45029785 9.63295898 -18.3203125 9.0859375 C-17.27520508 8.58030273 -16.23009766 8.07466797 -15.15332031 7.55371094 C-12.9539652 6.47003984 -10.76656212 5.36191748 -8.58886719 4.23535156 C-7.50508789 3.67557617 -6.42130859 3.11580078 -5.3046875 2.5390625 C-4.33257324 2.02811035 -3.36045898 1.5171582 -2.35888672 0.99072266 C-1.5804541 0.66378418 -0.80202148 0.3368457 0 0 Z " fill="#05B7D4" transform="translate(1061,1290)"/>
<path d="M0 0 C0.33 0 0.66 0 1 0 C1.77800681 4.79995203 2.11851665 9.38562064 2.09765625 14.24609375 C2.0962413 14.90207047 2.09482635 15.55804718 2.09336853 16.23390198 C2.08783031 18.30181702 2.07529002 20.36961842 2.0625 22.4375 C2.05747699 23.85090988 2.0529155 25.26432148 2.04882812 26.67773438 C2.03788126 30.11852568 2.02066038 33.55925172 2 37 C1.67 37 1.34 37 1 37 C0.97494385 36.39639648 0.9498877 35.79279297 0.92407227 35.17089844 C0.80608497 32.36381756 0.68490208 29.5568919 0.5625 26.75 C0.51883301 25.74541748 0.47516602 24.74083496 0.43017578 23.70581055 C0.14814554 17.49361778 -0.24412597 11.32786439 -0.9140625 5.14453125 C-1 3 -1 3 0 0 Z " fill="#148BB4" transform="translate(1529,712)"/>
<path d="M0 0 C0.66 0 1.32 0 2 0 C0.26017005 5.81261371 -1.8110489 10.83169994 -5 16 C-5.33 14.68 -5.66 13.36 -6 12 C-5.34 12 -4.68 12 -4 12 C-3.896875 11.319375 -3.79375 10.63875 -3.6875 9.9375 C-2.85274981 6.37084011 -1.50527246 3.33777806 0 0 Z " fill="#1977AB" transform="translate(1264,341)"/>
<path d="M0 0 C0.66 0 1.32 0 2 0 C2.33 1.98 2.66 3.96 3 6 C2.67 5.34 2.34 4.68 2 4 C1.54625 4.45375 1.0925 4.9075 0.625 5.375 C-0.58333333 6.58333333 -1.79166667 7.79166667 -3 9 C-2.5020163 5.26512223 -2.12508244 3.18762365 0 0 Z " fill="#23519C" transform="translate(1415,0)"/>
<path d="M0 0 C0.66 0.33 1.32 0.66 2 1 C1.38245741 2.31602523 0.75571258 3.62773556 0.125 4.9375 C-0.22304687 5.66839844 -0.57109375 6.39929688 -0.9296875 7.15234375 C-2 9 -2 9 -4 10 C-3.52449439 8.51965236 -3.04448784 7.04074979 -2.5625 5.5625 C-2.29566406 4.73878906 -2.02882813 3.91507812 -1.75390625 3.06640625 C-1 1 -1 1 0 0 Z " fill="#1C6BA8" transform="translate(1299,268)"/>
<path d="M0 0 C0.66 0 1.32 0 2 0 C1.46930939 3.82097239 0.50298434 6.06171403 -2 9 C-2.20140476 5.37471432 -1.85776765 3.13498292 0 0 Z " fill="#2060A2" transform="translate(1309,245)"/>
<path d="" fill="#0F99B6" transform="translate(0,0)"/>
</svg>
