<?xml version="1.0" encoding="UTF-8"?>
<svg version="1.1" xmlns="http://www.w3.org/2000/svg" width="240" height="240">
<path d="M0 0 C79.2 0 158.4 0 240 0 C240 79.2 240 158.4 240 240 C160.8 240 81.6 240 0 240 C0 160.8 0 81.6 0 0 Z " fill="#FEFEFE" transform="translate(0,0)"/>
<path d="M0 0 C0.66 0 1.32 0 2 0 C2.33 28.38 2.66 56.76 3 86 C6.64050513 79.03246419 6.64050513 79.03246419 8 72 C8.66 72 9.32 72 10 72 C10.33 70.68 10.66 69.36 11 68 C11.66 68.33 12.32 68.66 13 69 C13.09275265 79.45738765 13.1637918 89.91467715 13.20724869 100.37239265 C13.22810775 105.22855299 13.2563947 110.08443152 13.30175781 114.94042969 C13.34527551 119.62831256 13.36914976 124.31592468 13.37950897 129.00399399 C13.38688971 130.79095598 13.40130271 132.57790344 13.42292023 134.36474991 C13.45203345 136.87125718 13.45595277 139.37665115 13.45410156 141.88330078 C13.47567322 142.98705803 13.47567322 142.98705803 13.49768066 144.1131134 C13.44957317 150.14809282 11.21709641 153.44181183 7.375 157.875 C6 159 6 159 4 159 C3.814375 159.78375 3.62875 160.5675 3.4375 161.375 C2 164 2 164 -1.625 165.3125 C-3.295625 165.6528125 -3.295625 165.6528125 -5 166 C-5 166.66 -5 167.32 -5 168 C-5.66 168 -6.32 168 -7 168 C-7 168.66 -7 169.32 -7 170 C-9.475 170.99 -9.475 170.99 -12 172 C-12 172.66 -12 173.32 -12 174 C-13.90374355 175.44963959 -15.87467159 176.81184323 -17.875 178.125 C-19.51082031 179.21167969 -19.51082031 179.21167969 -21.1796875 180.3203125 C-24 182 -24 182 -26 182 C-26 182.66 -26 183.32 -26 184 C-29.50776784 185.60355101 -32.14354879 186.22036864 -36 186 C-36 186.66 -36 187.32 -36 188 C-41.80766296 189.5056904 -46.9981863 190.21824777 -53 190 C-53 190.66 -53 191.32 -53 192 C-61.96545446 197.37927268 -71.45618965 201.27793732 -81.25366211 204.85693359 C-84.3842965 206.00254583 -87.40593463 207.18614936 -90.44140625 208.578125 C-94.51595697 210.20615624 -98.37174297 210.95812271 -102.6875 211.625 C-107.88330739 212.41452157 -107.88330739 212.41452157 -113.01416016 213.52294922 C-116.84141296 214.44235566 -120.8524544 214.40730359 -124.77539062 214.60546875 C-128.17877167 214.51170272 -128.17877167 214.51170272 -131 216 C-132.42016314 216.10335686 -133.84538393 216.13850084 -135.26928711 216.14526367 C-136.17791 216.15164352 -137.0865329 216.15802338 -138.02268982 216.16459656 C-139.01422562 216.16570938 -140.00576141 216.1668222 -141.02734375 216.16796875 C-142.55446739 216.17296135 -142.55446739 216.17296135 -144.11244202 216.17805481 C-146.27718656 216.18313227 -148.44193897 216.18546288 -150.60668945 216.18530273 C-153.89222535 216.18747013 -157.17741507 216.20556386 -160.46289062 216.22460938 C-162.56770719 216.22754709 -164.67252535 216.22952935 -166.77734375 216.23046875 C-168.23732033 216.24124702 -168.23732033 216.24124702 -169.72679138 216.25224304 C-176.03822994 216.23151933 -181.86234351 215.46991814 -188 214 C-188 213.34 -188 212.68 -188 212 C-187.26394531 211.82984375 -186.52789062 211.6596875 -185.76953125 211.484375 C-184.79371094 211.24203125 -183.81789062 210.9996875 -182.8125 210.75 C-181.84957031 210.51796875 -180.88664062 210.2859375 -179.89453125 210.046875 C-176.61433456 208.86051506 -174.68958882 207.20205006 -172 205 C-169.61466726 203.73103511 -167.25128723 202.52686189 -164.8125 201.375 C-160.07089208 199.20244679 -160.07089208 199.20244679 -156 196 C-155.01 196 -154.02 196 -153 196 C-153 195.34 -153 194.68 -153 194 C-151.989375 193.443125 -150.97875 192.88625 -149.9375 192.3125 C-142.98568854 188.63633332 -142.98568854 188.63633332 -138 183 C-136.26152244 182.04875756 -134.52275256 181.09803674 -132.78125 180.15234375 C-130.28818648 178.5395066 -128.7661826 176.35491013 -127 174 C-126.34 174 -125.68 174 -125 174 C-125 173.34 -125 172.68 -125 172 C-121.20699373 168.38341263 -119.12878606 166.99726396 -114 166 C-112.63979849 164.03241727 -112.63979849 164.03241727 -112 162 C-111.34 162 -110.68 162 -110 162 C-110 161.34 -110 160.68 -110 160 C-109.01 160 -108.02 160 -107 160 C-106.9175 159.21625 -106.835 158.4325 -106.75 157.625 C-106.5025 156.75875 -106.255 155.8925 -106 155 C-104.68596724 154.29605388 -103.3479743 153.63654342 -102 153 C-101.11235053 151.98671398 -100.26040052 150.94153874 -99.4375 149.875 C-98.633125 148.92625 -97.82875 147.9775 -97 147 C-96.01 147 -95.02 147 -94 147 C-94 146.01 -94 145.02 -94 144 C-93.34 144 -92.68 144 -92 144 C-92 143.34 -92 142.68 -92 142 C-91.34 142 -90.68 142 -90 142 C-89.71125 141.401875 -89.4225 140.80375 -89.125 140.1875 C-88 138 -88 138 -86 135 C-85.01 135 -84.02 135 -83 135 C-82.896875 134.4225 -82.79375 133.845 -82.6875 133.25 C-81.89103535 130.64338842 -80.80934723 129.0264689 -79 127 C-78.34 127 -77.68 127 -77 127 C-76.62875 126.13375 -76.62875 126.13375 -76.25 125.25 C-75 123 -75 123 -73 121.125 C-70.78873128 119.09412467 -70.78873128 119.09412467 -70.125 116.0625 C-68.97092066 112.92083956 -68.45168835 112.31588174 -65.9375 110.375 C-62.79819474 107.8368383 -62.78472589 107.58731838 -62 104 C-61.21625 103.236875 -60.4325 102.47375 -59.625 101.6875 C-56.5482187 98.537462 -55.52073597 96.08197549 -54 92 C-53.01 92 -52.02 92 -51 92 C-50.5978125 90.329375 -50.5978125 90.329375 -50.1875 88.625 C-49 85 -49 85 -46 83 C-45.525625 81.845 -45.05125 80.69 -44.5625 79.5 C-42.88584156 75.74428508 -42.50081863 75.51702141 -39 74 C-38.19471111 71.94999129 -38.19471111 71.94999129 -38 70 C-37.34 70 -36.68 70 -36 70 C-36 68.68 -36 67.36 -36 66 C-35.34 66 -34.68 66 -34 66 C-33.72929687 65.26394531 -33.45859375 64.52789062 -33.1796875 63.76953125 C-32.05142429 61.12072788 -30.77971167 59.03238933 -29.125 56.6875 C-26.70068595 53.15425398 -24.71612217 49.63029852 -22.95703125 45.7265625 C-22 44 -22 44 -20.4921875 42.56640625 C-18.62997391 40.61156948 -18.09457561 38.88217699 -17.3125 36.3125 C-17.06113281 35.50425781 -16.80976563 34.69601563 -16.55078125 33.86328125 C-16.36902344 33.24839844 -16.18726563 32.63351563 -16 32 C-15.34 32 -14.68 32 -14 32 C-13.79697266 31.16275391 -13.79697266 31.16275391 -13.58984375 30.30859375 C-12.08932984 24.43572142 -10.41280985 18.56802273 -8 13 C-7.34 13 -6.68 13 -6 13 C-6 11.68 -6 10.36 -6 9 C-5.34 9 -4.68 9 -4 9 C-3.67 7.35 -3.34 5.7 -3 4 C-2.34 4 -1.68 4 -1 4 C-0.67 2.68 -0.34 1.36 0 0 Z " fill="#0AA1CC" transform="translate(208,13)"/>
<path d="M0 0 C0.66 0 1.32 0 2 0 C2 17.82 2 35.64 2 54 C1.01 54 0.02 54 -1 54 C-1.2371875 54.56203125 -1.474375 55.1240625 -1.71875 55.703125 C-3.28947697 58.51894042 -5.21471464 60.47955416 -7.5 62.75 C-8.2940625 63.54921875 -9.088125 64.3484375 -9.90625 65.171875 C-12 67 -12 67 -14 67 C-14.268125 67.639375 -14.53625 68.27875 -14.8125 68.9375 C-16 71 -16 71 -19 72 C-20.20882096 74.00016466 -20.20882096 74.00016466 -21 76 C-21.66 76 -22.32 76 -23 76 C-23 77.32 -23 78.64 -23 80 C-29.75 84 -29.75 84 -32 84 C-32 84.66 -32 85.32 -32 86 C-33.2065625 86.4021875 -33.2065625 86.4021875 -34.4375 86.8125 C-35.7059375 87.4003125 -35.7059375 87.4003125 -37 88 C-37.495 89.485 -37.495 89.485 -38 91 C-40.25 92.7890625 -40.25 92.7890625 -43 94.625 C-46.14922541 96.62612789 -46.14922541 96.62612789 -49 99 C-58.0810291 101.51396374 -67.36248274 101.23540454 -76.6875 101.125 C-78.1790304 101.11494292 -79.67056742 101.10582192 -81.16210938 101.09765625 C-84.77487974 101.07587544 -88.38739593 101.0414985 -92 101 C-89.29230543 98.13875843 -86.59687014 96.6486112 -83.0625 94.875 C-73.42115433 89.7757994 -56.57745681 80.73237043 -53 70 C-50.7502186 67.50699899 -48.8523374 65.41399245 -45.8125 63.9375 C-43.43574336 62.70814312 -43.02796065 61.42305011 -42 59 C-41.34 58.01 -40.68 57.02 -40 56 C-39.34 56 -38.68 56 -38 56 C-37.7525 55.484375 -37.505 54.96875 -37.25 54.4375 C-36.63125 53.2309375 -36.63125 53.2309375 -36 52 C-35.70867187 51.42121094 -35.41734375 50.84242188 -35.1171875 50.24609375 C-33.18709025 46.60626469 -31.88804175 44.47477446 -28 43 C-27.505 42.01 -27.505 42.01 -27 41 C-26.34 41 -25.68 41 -25 41 C-24.855625 40.401875 -24.71125 39.80375 -24.5625 39.1875 C-24.1127561 37.43849596 -23.57107659 35.71322977 -23 34 C-22.01 34 -21.02 34 -20 34 C-19.7421875 33.27941406 -19.484375 32.55882812 -19.21875 31.81640625 C-17.93906883 28.85919431 -16.39635502 26.53695275 -14.5 23.9375 C-12.38936799 21.03538098 -10.50643494 18.26143165 -9 15 C-8.34 15 -7.68 15 -7 15 C-6.773125 14.01 -6.54625 13.02 -6.3125 12 C-5.05508624 7.57643649 -2.89775915 3.57576049 0 0 Z " fill="#006FA9" transform="translate(208,103)"/>
<path d="M0 0 C0.66 0.33 1.32 0.66 2 1 C2 27.73 2 54.46 2 82 C0.68 82 -0.64 82 -2 82 C-2 82.66 -2 83.32 -2 84 C-2.66 84 -3.32 84 -4 84 C-4 84.66 -4 85.32 -4 86 C-4.66 86 -5.32 86 -6 86 C-6 86.66 -6 87.32 -6 88 C-6.66 88 -7.32 88 -8 88 C-8.33 89.65 -8.66 91.3 -9 93 C-9.99 93 -10.98 93 -12 93 C-12 93.66 -12 94.32 -12 95 C-14.475 95.99 -14.475 95.99 -17 97 C-17 97.66 -17 98.32 -17 99 C-17.66 99 -18.32 99 -19 99 C-19 99.66 -19 100.32 -19 101 C-24.05263158 104.78947368 -24.05263158 104.78947368 -27.25 105.5 C-29.22926762 105.85101127 -29.22926762 105.85101127 -30.25 108.0625 C-30.4975 108.701875 -30.745 109.34125 -31 110 C-32.65 110 -34.3 110 -36 110 C-36 110.99 -36 111.98 -36 113 C-37.4096347 113.70180531 -38.82807641 114.38593958 -40.25 115.0625 C-41.03890625 115.44535156 -41.8278125 115.82820313 -42.640625 116.22265625 C-45.25993522 117.08564091 -46.44855176 116.93045933 -49 116 C-43.51595772 111.04413392 -38.02022438 106.11212832 -32.3984375 101.3125 C-31.93695313 100.879375 -31.47546875 100.44625 -31 100 C-31 99.67 -31 99.34 -31 99 C-32.485 99.495 -32.485 99.495 -34 100 C-34 99.34 -34 98.68 -34 98 C-32.42578125 96.44921875 -32.42578125 96.44921875 -30.3125 94.6875 C-27.05386475 91.91395056 -23.99057826 89.06534272 -21 86 C-20.32453125 85.33484375 -19.6490625 84.6696875 -18.953125 83.984375 C-17.86257812 82.90929687 -17.86257812 82.90929687 -16.75 81.8125 C-16.06421875 81.13832031 -15.3784375 80.46414062 -14.671875 79.76953125 C-12.92550889 78.09201005 -12.92550889 78.09201005 -12 76 C-11.01 76 -10.02 76 -9 76 C-9 58.18 -9 40.36 -9 22 C-13.12310974 24.06155487 -14.93097096 29.71889445 -16.5625 33.875 C-17.036875 34.90625 -17.51125 35.9375 -18 37 C-19.485 37.495 -19.485 37.495 -21 38 C-21 37.34 -21 36.68 -21 36 C-20.34 36 -19.68 36 -19 36 C-19 34.68 -19 33.36 -19 32 C-18.34 32 -17.68 32 -17 32 C-16.9175 31.484375 -16.835 30.96875 -16.75 30.4375 C-15.67859775 26.95544268 -13.86476395 24.12799115 -12 21 C-11.34 21 -10.68 21 -10 21 C-9.67 19.68 -9.34 18.36 -9 17 C-8.67 17.33 -8.34 17.66 -8 18 C-5.46690767 13.35796103 -3.53484401 9.34844008 -3 4 C-2.34 4 -1.68 4 -1 4 C-0.67 2.68 -0.34 1.36 0 0 Z " fill="#1B90C1" transform="translate(219,81)"/>
<path d="M0 0 C0.495 0.99 0.495 0.99 1 2 C0.01 2 -0.98 2 -2 2 C-2.21527344 2.5878125 -2.43054687 3.175625 -2.65234375 3.78125 C-6.48787054 10.09597236 -16.49705095 13.43360942 -23.16015625 16.17578125 C-25.26883726 17.05929658 -25.26883726 17.05929658 -28 19 C-20.65024366 20.6430593 -13.50561381 21.1932355 -6 21.1875 C-4.76286255 21.1884668 -4.76286255 21.1884668 -3.50073242 21.18945312 C0.75593999 21.19429483 0.75593999 21.19429483 4.93481445 20.50708008 C7.37767683 19.90726625 9.65440102 19.80388661 12.16796875 19.71875 C13.14314453 19.68136719 14.11832031 19.64398438 15.12304688 19.60546875 C17.17772055 19.5347534 19.23240828 19.46444546 21.28710938 19.39453125 C22.25841797 19.35714844 23.22972656 19.31976563 24.23046875 19.28125 C25.12145264 19.25095703 26.01243652 19.22066406 26.93041992 19.18945312 C28.98979868 19.22343539 28.98979868 19.22343539 30 18 C32.01964199 17.92755947 34.04167124 17.91622812 36.0625 17.9375 C37.16722656 17.94652344 38.27195312 17.95554688 39.41015625 17.96484375 C40.26480469 17.97644531 41.11945313 17.98804688 42 18 C42 17.34 42 16.68 42 16 C42.70125 15.97421875 43.4025 15.9484375 44.125 15.921875 C49.81249417 15.58186176 53.9568233 14.85948548 58.8984375 12.04296875 C62.25604216 10.37664822 65.83150404 9.63696998 69.453125 8.7265625 C72.20995409 8.02488084 72.20995409 8.02488084 75.375 6.3125 C78.18582965 4.90708517 79.90359031 4.72678738 83 5 C83 4.34 83 3.68 83 3 C84.65 3 86.3 3 88 3 C88 2.34 88 1.68 88 1 C89.98 1.495 89.98 1.495 92 2 C85.96649141 5.25809464 79.81673079 7.52196847 73.34375 9.76953125 C69.36581555 11.23337395 65.75995961 13.05287806 62 15 C57.19518953 16.82106519 52.42055967 17.73471287 47.375 18.5625 C42.14768357 19.39046058 42.14768357 19.39046058 36.98364258 20.52514648 C33.15648321 21.44130956 29.14676181 21.40734318 25.22460938 21.60546875 C21.82122833 21.51170272 21.82122833 21.51170272 19 23 C17.57983686 23.10335686 16.15461607 23.13850084 14.73071289 23.14526367 C13.82209 23.15164352 12.9134671 23.15802338 11.97731018 23.16459656 C10.98577438 23.16570938 9.99423859 23.1668222 8.97265625 23.16796875 C7.44553261 23.17296135 7.44553261 23.17296135 5.88755798 23.17805481 C3.72281344 23.18313227 1.55806103 23.18546288 -0.60668945 23.18530273 C-3.89222535 23.18747013 -7.17741507 23.20556386 -10.46289062 23.22460938 C-12.56770719 23.22754709 -14.67252535 23.22952935 -16.77734375 23.23046875 C-18.23732033 23.24124702 -18.23732033 23.24124702 -19.72679138 23.25224304 C-26.03822994 23.23151933 -31.86234351 22.46991814 -38 21 C-38 20.34 -38 19.68 -38 19 C-37.26394531 18.82984375 -36.52789062 18.6596875 -35.76953125 18.484375 C-34.79371094 18.24203125 -33.81789063 17.9996875 -32.8125 17.75 C-31.84957031 17.51796875 -30.88664062 17.2859375 -29.89453125 17.046875 C-26.61433456 15.86051506 -24.68958882 14.20205006 -22 12 C-19.61466726 10.73103511 -17.25128723 9.52686189 -14.8125 8.375 C-10.07089208 6.20244679 -10.07089208 6.20244679 -6 3 C-5.01 3 -4.02 3 -3 3 C-3 2.34 -3 1.68 -3 1 C-2.01 0.67 -1.02 0.34 0 0 Z " fill="#34CFE6" transform="translate(58,206)"/>
<path d="M0 0 C0.99 0.33 1.98 0.66 3 1 C1.28032649 4.02990095 -0.29238306 6.76327296 -3 9 C-3.66 9 -4.32 9 -5 9 C-5.185625 9.78375 -5.37125 10.5675 -5.5625 11.375 C-7 14 -7 14 -10.625 15.3125 C-11.73875 15.539375 -12.8525 15.76625 -14 16 C-14 16.66 -14 17.32 -14 18 C-14.66 18 -15.32 18 -16 18 C-16 18.66 -16 19.32 -16 20 C-17.65 20.66 -19.3 21.32 -21 22 C-21 22.66 -21 23.32 -21 24 C-22.90374355 25.44963959 -24.87467159 26.81184323 -26.875 28.125 C-27.96554688 28.84945312 -29.05609375 29.57390625 -30.1796875 30.3203125 C-33 32 -33 32 -35 32 C-35 32.66 -35 33.32 -35 34 C-38.50776784 35.60355101 -41.14354879 36.22036864 -45 36 C-45 36.66 -45 37.32 -45 38 C-46.4577353 38.335939 -47.91621106 38.66866624 -49.375 39 C-50.18710938 39.185625 -50.99921875 39.37125 -51.8359375 39.5625 C-54 40 -54 40 -56 40 C-56 39.34 -56 38.68 -56 38 C-55.13117188 37.74605469 -54.26234375 37.49210937 -53.3671875 37.23046875 C-52.21476563 36.88628906 -51.06234375 36.54210937 -49.875 36.1875 C-48.73804688 35.85105469 -47.60109375 35.51460937 -46.4296875 35.16796875 C-42.96605755 34.07699343 -42.96605755 34.07699343 -39.7578125 32.36328125 C-37 31 -37 31 -34 31 C-34 30.01 -34 29.02 -34 28 C-33.030625 27.71125 -32.06125 27.4225 -31.0625 27.125 C-27.89335797 26.35785318 -27.89335797 26.35785318 -27 24 C-23.8074307 21.87162047 -20.59175173 20.33407921 -17 19 C-17 18.34 -17 17.68 -17 17 C-16.34 17 -15.68 17 -15 17 C-15 16.34 -15 15.68 -15 15 C-13.35 14.34 -11.7 13.68 -10 13 C-10 12.34 -10 11.68 -10 11 C-9.01 10.67 -8.02 10.34 -7 10 C-6.26676204 7.98491642 -6.26676204 7.98491642 -6 6 C-5.34 6 -4.68 6 -4 6 C-4 5.34 -4 4.68 -4 4 C-3.34 4 -2.68 4 -2 4 C-2 3.34 -2 2.68 -2 2 C-1.34 2 -0.68 2 0 2 C0 1.34 0 0.68 0 0 Z " fill="#4BC0DD" transform="translate(217,163)"/>
<path d="M0 0 C0.33 0 0.66 0 1 0 C1.02543538 6.4229243 1.04290272 12.84583553 1.05493164 19.26879883 C1.05994843 21.452072 1.06676337 23.63534182 1.07543945 25.81860352 C1.08762147 28.96371283 1.09325497 32.10877757 1.09765625 35.25390625 C1.10281754 36.2239711 1.10797882 37.19403595 1.11329651 38.1934967 C1.11371077 43.24174356 0.8687892 48.02475387 0 53 C-0.33 53 -0.66 53 -1 53 C-0.98839844 51.99066406 -0.97679687 50.98132813 -0.96484375 49.94140625 C-0.86442892 36.60819935 -1.3915662 23.31758027 -2 10 C-3.32 12.64 -4.64 15.28 -6 18 C-7.32 18 -8.64 18 -10 18 C-9.505 16.515 -9.505 16.515 -9 15 C-8.67 15.33 -8.34 15.66 -8 16 C-7.3490741 14.75264433 -6.70448331 13.50198168 -6.0625 12.25 C-5.70285156 11.55390625 -5.34320313 10.8578125 -4.97265625 10.140625 C-4.04441818 8.09775567 -3.46833422 6.18884624 -3 4 C-2.01 4 -1.02 4 0 4 C0 2.68 0 1.36 0 0 Z " fill="#306FAF" transform="translate(219,83)"/>
<path d="M0 0 C0.66 0 1.32 0 2 0 C2 13.53 2 27.06 2 41 C1.67 41 1.34 41 1 41 C0.67 29.78 0.34 18.56 0 7 C-2.72735077 9.72735077 -3.87880964 11.4601971 -5.5625 14.8125 C-8.13367003 19.64474921 -11.01948504 24.1104506 -14.1875 28.5625 C-14.82957397 29.4738269 -14.82957397 29.4738269 -15.48461914 30.40356445 C-17.50418103 33.20039844 -19.09872712 35.06581808 -22 37 C-20.50354144 32.64888409 -18.16704499 29.13983562 -15.5 25.4375 C-11.89855851 20.43181409 -11.89855851 20.43181409 -9 15 C-8.34 15 -7.68 15 -7 15 C-6.773125 14.01 -6.54625 13.02 -6.3125 12 C-5.05508624 7.57643649 -2.89775915 3.57576049 0 0 Z " fill="#095396" transform="translate(208,103)"/>
<path d="M0 0 C0.66 0 1.32 0 2 0 C2 28.05 2 56.1 2 85 C1.67 85 1.34 85 1 85 C0.67 58.6 0.34 32.2 0 5 C-3.01467236 9.52200854 -4.92326569 13.12418901 -7 18 C-8.6875 20.4375 -8.6875 20.4375 -10 22 C-9.41196203 18.97580475 -8.77321882 15.98241547 -8 13 C-7.34 13 -6.68 13 -6 13 C-6 11.68 -6 10.36 -6 9 C-5.34 9 -4.68 9 -4 9 C-3.67 7.35 -3.34 5.7 -3 4 C-2.34 4 -1.68 4 -1 4 C-0.67 2.68 -0.34 1.36 0 0 Z " fill="#8CABD0" transform="translate(208,13)"/>
<path d="M0 0 C0.53625 0.226875 1.0725 0.45375 1.625 0.6875 C-11.1576087 8.25271739 -11.1576087 8.25271739 -17.375 7.6875 C-17.375 8.3475 -17.375 9.0075 -17.375 9.6875 C-10.35398463 10.49762632 -3.40024127 10.88022671 3.6640625 11.00390625 C5.17436539 11.0350779 5.17436539 11.0350779 6.71517944 11.06687927 C9.8933917 11.13163202 13.07167794 11.19090993 16.25 11.25 C18.4205802 11.29325608 20.59115324 11.33687247 22.76171875 11.38085938 C28.04940373 11.48723582 33.33716029 11.58913209 38.625 11.6875 C38.625 12.0175 38.625 12.3475 38.625 12.6875 C18.825 12.6875 -0.975 12.6875 -21.375 12.6875 C-20.375 7.6875 -20.375 7.6875 -18.66796875 6.54296875 C-17.97316406 6.32253906 -17.27835938 6.10210937 -16.5625 5.875 C-15.87542969 5.64167969 -15.18835938 5.40835938 -14.48046875 5.16796875 C-12.375 4.6875 -12.375 4.6875 -8.375 4.6875 C-8.375 4.0275 -8.375 3.3675 -8.375 2.6875 C-2.95961538 -0.38942308 -2.95961538 -0.38942308 0 0 Z " fill="#A8EAF4" transform="translate(37.375,217.3125)"/>
<path d="M0 0 C0.671875 1.671875 0.671875 1.671875 1 4 C-0.109375 6.578125 -0.109375 6.578125 -1.75 9.25 C-2.28109375 10.14203125 -2.8121875 11.0340625 -3.359375 11.953125 C-3.90078125 12.62859375 -4.4421875 13.3040625 -5 14 C-5.99 14 -6.98 14 -8 14 C-8 14.99 -8 15.98 -8 17 C-8.66 17 -9.32 17 -10 17 C-10.11601562 17.72960937 -10.23203125 18.45921875 -10.3515625 19.2109375 C-11.01103301 22.04745522 -11.94375618 24.10080635 -13.375 26.625 C-13.79523438 27.38039063 -14.21546875 28.13578125 -14.6484375 28.9140625 C-15.94820239 30.92005802 -17.17128569 32.46466232 -19 34 C-19.66 34 -20.32 34 -21 34 C-21.66 35.32 -22.32 36.64 -23 38 C-24 36 -24 36 -23.25 33.5 C-22 31 -22 31 -19 29 C-18.525625 27.845 -18.05125 26.69 -17.5625 25.5 C-15.88584156 21.74428508 -15.50081863 21.51702141 -12 20 C-11.19471111 17.94999129 -11.19471111 17.94999129 -11 16 C-10.34 16 -9.68 16 -9 16 C-9 14.68 -9 13.36 -9 12 C-8.34 12 -7.68 12 -7 12 C-6.6596875 10.9790625 -6.6596875 10.9790625 -6.3125 9.9375 C-4.64427643 6.20385676 -2.44270392 3.27836579 0 0 Z " fill="#5BA0CB" transform="translate(181,67)"/>
<path d="M0 0 C0.33 0.66 0.66 1.32 1 2 C0.01 3.485 0.01 3.485 -1 5 C-1.66 5 -2.32 5 -3 5 C-3.2475 5.61875 -3.495 6.2375 -3.75 6.875 C-5.22770762 9.38710296 -6.43955177 9.76107344 -9 11 C-9.33 11.99 -9.66 12.98 -10 14 C-10.99 14 -11.98 14 -13 14 C-13.33 15.32 -13.66 16.64 -14 18 C-14.78375 18.103125 -15.5675 18.20625 -16.375 18.3125 C-19.33045181 18.77595022 -19.33045181 18.77595022 -21 22 C-21.66 22 -22.32 22 -23 22 C-23 22.66 -23 23.32 -23 24 C-25 25.625 -25 25.625 -27 27 C-27.66 26.67 -28.32 26.34 -29 26 C-27.71937515 24.2925002 -26.38232443 22.62626404 -25 21 C-24.34 21 -23.68 21 -23 21 C-23 20.34 -23 19.68 -23 19 C-19.20699373 15.38341263 -17.12878606 13.99726396 -12 13 C-10.63979849 11.03241727 -10.63979849 11.03241727 -10 9 C-9.34 9 -8.68 9 -8 9 C-8 8.34 -8 7.68 -8 7 C-7.01 7 -6.02 7 -5 7 C-4.9175 6.21625 -4.835 5.4325 -4.75 4.625 C-4 2 -4 2 -1.9375 0.6875 C-0.9784375 0.3471875 -0.9784375 0.3471875 0 0 Z " fill="#36C7E1" transform="translate(106,166)"/>
<path d="M0 0 C0.33 0 0.66 0 1 0 C1.02505615 0.66008057 1.0501123 1.32016113 1.07592773 2.00024414 C1.19271752 5.02115369 1.31506446 8.04181422 1.4375 11.0625 C1.47681641 12.10083984 1.51613281 13.13917969 1.55664062 14.20898438 C1.77666344 19.54030641 2.1116184 24.73689893 3 30 C3.66 30 4.32 30 5 30 C5.33 29.34 5.66 28.68 6 28 C5.39254603 32.85963179 3.27241033 36.7405518 1 41 C0.67 41 0.34 41 0 41 C0 27.47 0 13.94 0 0 Z " fill="#E4EEF6" transform="translate(210,59)"/>
<path d="M0 0 C-1.98 0.66 -3.96 1.32 -6 2 C-6 2.66 -6 3.32 -6 4 C7.2 4 20.4 4 34 4 C33.67 4.66 33.34 5.32 33 6 C31.35 6 29.7 6 28 6 C27.67 6.66 27.34 7.32 27 8 C27 7.01 27 6.02 27 5 C25.47076904 5.00785522 25.47076904 5.00785522 23.91064453 5.01586914 C20.13493729 5.03394376 16.35923388 5.04544105 12.58349609 5.05493164 C10.94807289 5.05996621 9.3126542 5.06679427 7.67724609 5.07543945 C5.32909025 5.08754335 2.98099381 5.093237 0.6328125 5.09765625 C-0.46726639 5.10539818 -0.46726639 5.10539818 -1.58956909 5.11329651 C-6.77225659 5.11387171 -6.77225659 5.11387171 -9 4 C-8 1 -8 1 -6.1875 -0.25 C-3.66056586 -1.11637742 -2.47778006 -0.88492145 0 0 Z " fill="#05B0D3" transform="translate(118,201)"/>
<path d="M0 0 C0.33 0.66 0.66 1.32 1 2 C0.01 2 -0.98 2 -2 2 C-2.31324219 2.87785156 -2.31324219 2.87785156 -2.6328125 3.7734375 C-4.51135045 6.83277073 -6.75357971 7.89257358 -9.875 9.625 C-11.44894531 10.51058594 -11.44894531 10.51058594 -13.0546875 11.4140625 C-14.51261719 12.19910156 -14.51261719 12.19910156 -16 13 C-16.72960938 13.39703125 -17.45921875 13.7940625 -18.2109375 14.203125 C-20.54044025 15.24072011 -22.48102772 15.1399429 -25 15 C-22.28865476 11.72837677 -18.69590684 10.2153832 -14.9375 8.4375 C-10.12952222 6.2389966 -10.12952222 6.2389966 -6 3 C-5.01 3 -4.02 3 -3 3 C-3 2.34 -3 1.68 -3 1 C-2.01 0.67 -1.02 0.34 0 0 Z " fill="#3FD2E7" transform="translate(58,206)"/>
<path d="M0 0 C1.32 0.33 2.64 0.66 4 1 C-2.16696095 4.33015892 -8.50650346 6.68356375 -15.12109375 8.94921875 C-17.86023919 9.7196393 -17.86023919 9.7196393 -19 11 C-22.5 11.5 -22.5 11.5 -26 12 C-26.33 12.33 -26.66 12.66 -27 13 C-28.66617115 13.04063832 -30.33388095 13.042721 -32 13 C-28.02165126 10.34776751 -23.89435656 9.40871785 -19.32421875 8.09765625 C-16.0199624 7.00659158 -13.10510309 5.55474752 -10 4 C-7.125 3.8125 -7.125 3.8125 -5 4 C-5 3.34 -5 2.68 -5 2 C-3.35 2 -1.7 2 0 2 C0 1.34 0 0.68 0 0 Z " fill="#42CEE5" transform="translate(146,207)"/>
<path d="M0 0 C0.66 0.33 1.32 0.66 2 1 C-0.475 2.485 -0.475 2.485 -3 4 C8.55 4 20.1 4 32 4 C32 4.66 32 5.32 32 6 C18.8 6 5.6 6 -8 6 C-8 5.34 -8 4.68 -8 4 C-6.71349294 3.30289269 -5.42059335 2.61757124 -4.125 1.9375 C-3.40570313 1.55464844 -2.68640625 1.17179688 -1.9453125 0.77734375 C-1.30335937 0.52082031 -0.66140625 0.26429688 0 0 Z " fill="#009BC7" transform="translate(120,199)"/>
<path d="M0 0 C0.66 0.33 1.32 0.66 2 1 C0.35 1.66 -1.3 2.32 -3 3 C-3 3.66 -3 4.32 -3 5 C-6.50776784 6.60355101 -9.14354879 7.22036864 -13 7 C-13 7.66 -13 8.32 -13 9 C-14.4577353 9.335939 -15.91621106 9.66866624 -17.375 10 C-18.59316406 10.2784375 -18.59316406 10.2784375 -19.8359375 10.5625 C-22 11 -22 11 -24 11 C-24 10.34 -24 9.68 -24 9 C-23.18917969 8.76925781 -22.37835938 8.53851563 -21.54296875 8.30078125 C-14.76906578 6.30567362 -8.46578397 4.01146754 -2.14453125 0.85546875 C-1.43683594 0.57316406 -0.72914063 0.29085937 0 0 Z " fill="#83DDED" transform="translate(185,192)"/>
<path d="M0 0 C0.33 0 0.66 0 1 0 C1 7.59 1 15.18 1 23 C0.67 23 0.34 23 0 23 C0 17.06 0 11.12 0 5 C-0.66 5 -1.32 5 -2 5 C-2.12375 5.70125 -2.2475 6.4025 -2.375 7.125 C-3.19690499 10.90576296 -4.26647671 14.53295342 -6 18 C-7.32 18 -8.64 18 -10 18 C-9.505 16.515 -9.505 16.515 -9 15 C-8.67 15.33 -8.34 15.66 -8 16 C-7.3490741 14.75264433 -6.70448331 13.50198168 -6.0625 12.25 C-5.70285156 11.55390625 -5.34320313 10.8578125 -4.97265625 10.140625 C-4.04441818 8.09775567 -3.46833422 6.18884624 -3 4 C-2.01 4 -1.02 4 0 4 C0 2.68 0 1.36 0 0 Z " fill="#4D71AF" transform="translate(219,83)"/>
<path d="M0 0 C0.33 0 0.66 0 1 0 C1.125 2.375 1.125 2.375 1 5 C0.34 5.66 -0.32 6.32 -1 7 C-1.70227799 8.8727413 -2.40126752 10.74682806 -3.078125 12.62890625 C-7.6196319 24.30981595 -7.6196319 24.30981595 -11 26 C-10.07718097 20.91906699 -9.36297196 17.03556636 -6 13 C-4.96898053 10.68020619 -3.97063483 8.34570085 -3 6 C-2.01462479 3.9927542 -1.01936943 1.99019747 0 0 Z " fill="#4565A9" transform="translate(208,15)"/>
<path d="M0 0 C-2.51830747 3.12270126 -3.7261549 3.94523098 -7.75 4.75 C-9.35875 4.87375 -9.35875 4.87375 -11 5 C-11 5.66 -11 6.32 -11 7 C-12.98 7 -14.96 7 -17 7 C-17 7.66 -17 8.32 -17 9 C-17.99 9 -18.98 9 -20 9 C-20 8.01 -20 7.02 -20 6 C-18.453125 5.9071875 -18.453125 5.9071875 -16.875 5.8125 C-12.07510553 4.80607052 -10.60804878 3.20715447 -7 0 C-3.90631397 -1.23747441 -3.26848358 -1.08949453 0 0 Z " fill="#05ABD0" transform="translate(172,196)"/>
<path d="M0 0 C0.33 0 0.66 0 1 0 C1.49906516 4.67767852 0.12809298 6.76838161 -2.6875 10.4375 C-3.77611328 11.86835938 -3.77611328 11.86835938 -4.88671875 13.328125 C-7.21018855 16.26574671 -9.54996283 19.16714453 -12 22 C-12 18.02358735 -10.50767551 16.49643851 -8.25 13.25 C-5.28507203 8.91826126 -2.51243325 4.60612762 0 0 Z " fill="#045B9A" transform="translate(199,118)"/>
<path d="M0 0 C0.33 0.99 0.66 1.98 1 3 C0.34 3 -0.32 3 -1 3 C-1 4.32 -1 5.64 -1 7 C-1.66 7 -2.32 7 -3 7 C-3 7.66 -3 8.32 -3 9 C-3.66 9 -4.32 9 -5 9 C-5.0825 9.78375 -5.165 10.5675 -5.25 11.375 C-6 14 -6 14 -8.0625 15.3125 C-9.0215625 15.6528125 -9.0215625 15.6528125 -10 16 C-9.875 13.3125 -9.875 13.3125 -9 10 C-7.04072937 8.2856382 -5.04119788 6.61594832 -3 5 C-2.2127322 2.8618034 -2.2127322 2.8618034 -2 1 C-1.34 0.67 -0.68 0.34 0 0 Z " fill="#4AB9D9" transform="translate(148,116)"/>
<path d="M0 0 C0 0.99 0 1.98 0 3 C-1.32 3.33 -2.64 3.66 -4 4 C-4 4.66 -4 5.32 -4 6 C-5.57421875 7.7265625 -5.57421875 7.7265625 -7.6875 9.625 C-8.37199219 10.25664062 -9.05648437 10.88828125 -9.76171875 11.5390625 C-12.40184489 13.2622862 -13.90805678 13.29240794 -17 13 C-13.97079192 9.73777591 -10.69236102 7.46157402 -7 5 C-6.67 4.34 -6.34 3.68 -6 3 C-4.02477154 1.95191959 -2.02518491 0.9479589 0 0 Z " fill="#45D1E6" transform="translate(76,193)"/>
<path d="M0 0 C0.33 0 0.66 0 1 0 C1.31766156 4.77904175 0.56065092 7.5474776 -1.8125 11.6875 C-2.33457031 12.61949219 -2.85664063 13.55148438 -3.39453125 14.51171875 C-4.78447673 16.66596516 -6.10315167 18.29682388 -8 20 C-7.19534869 16.26345828 -5.82425115 12.80577218 -4.4375 9.25 C-3.98246094 8.07953125 -3.52742187 6.9090625 -3.05859375 5.703125 C-2.53458984 4.36507812 -2.53458984 4.36507812 -2 3 C-1.34 3 -0.68 3 0 3 C0 2.01 0 1.02 0 0 Z " fill="#5F8CBF" transform="translate(194,42)"/>
<path d="M0 0 C0.53625 0.226875 1.0725 0.45375 1.625 0.6875 C-11.1576087 8.25271739 -11.1576087 8.25271739 -17.375 7.6875 C-17.375 8.3475 -17.375 9.0075 -17.375 9.6875 C-16.715 10.0175 -16.055 10.3475 -15.375 10.6875 C-16.695 10.6875 -18.015 10.6875 -19.375 10.6875 C-19.25 8.8125 -19.25 8.8125 -18.375 6.6875 C-14.77849908 5.08905515 -12.34102757 4.6875 -8.375 4.6875 C-8.375 4.0275 -8.375 3.3675 -8.375 2.6875 C-2.95961538 -0.38942308 -2.95961538 -0.38942308 0 0 Z " fill="#A2E9F3" transform="translate(37.375,217.3125)"/>
<path d="M0 0 C0.66 0.33 1.32 0.66 2 1 C-2.02508985 6.35884744 -6.02557651 11.48831358 -11 16 C-11.66 16 -12.32 16 -13 16 C-13 14 -13 14 -10.75 11.5 C-8 9 -8 9 -5.8125 7.9375 C-3.43574336 6.70814312 -3.02796065 5.42305011 -2 3 C-1.34 2.01 -0.68 1.02 0 0 Z " fill="#028ABC" transform="translate(168,159)"/>
<path d="M0 0 C0.99 0.33 1.98 0.66 3 1 C2.4225 1.185625 1.845 1.37125 1.25 1.5625 C-3.03423618 4.2996509 -4.74869676 9.29325744 -6.5625 13.875 C-7.036875 14.90625 -7.51125 15.9375 -8 17 C-8.99 17.33 -9.98 17.66 -11 18 C-11 17.34 -11 16.68 -11 16 C-10.34 16 -9.68 16 -9 16 C-9 14.68 -9 13.36 -9 12 C-8.34 12 -7.68 12 -7 12 C-6.9175 11.484375 -6.835 10.96875 -6.75 10.4375 C-5.6660882 6.91478666 -3.95092643 4.13330608 -2 1 C-1.34 0.67 -0.68 0.34 0 0 Z " fill="#1074AE" transform="translate(209,101)"/>
<path d="M0 0 C0.33 0 0.66 0 1 0 C1.33 2.31 1.66 4.62 2 7 C2.66 7 3.32 7 4 7 C4.33 6.34 4.66 5.68 5 5 C4.39254603 9.85963179 2.27241033 13.7405518 0 18 C-0.33 17.34 -0.66 16.68 -1 16 C-0.0625 13.875 -0.0625 13.875 1 12 C0.67 11.67 0.34 11.34 0 11 C-0.07226502 9.14712498 -0.0838122 7.29166122 -0.0625 5.4375 C-0.05347656 4.42558594 -0.04445312 3.41367188 -0.03515625 2.37109375 C-0.02355469 1.58863281 -0.01195312 0.80617188 0 0 Z " fill="#CAD6E8" transform="translate(211,82)"/>
<path d="M0 0 C0.33 0.66 0.66 1.32 1 2 C0.21625 2.598125 -0.5675 3.19625 -1.375 3.8125 C-4.14574323 5.91085249 -4.14574323 5.91085249 -6 9 C-6.66 9 -7.32 9 -8 9 C-8 9.66 -8 10.32 -8 11 C-10 12.625 -10 12.625 -12 14 C-12.66 13.67 -13.32 13.34 -14 13 C-12.71937515 11.2925002 -11.38232443 9.62626404 -10 8 C-9.34 8 -8.68 8 -8 8 C-8 7.34 -8 6.68 -8 6 C-2.88888889 1.44444444 -2.88888889 1.44444444 0 0 Z " fill="#8AE0EE" transform="translate(91,179)"/>
<path d="M0 0 C0.66 0.33 1.32 0.66 2 1 C0.35 4.63 -1.3 8.26 -3 12 C-3.66 12 -4.32 12 -5 12 C-5.66 13.32 -6.32 14.64 -7 16 C-8 14 -8 14 -7.25 11.5 C-6 9 -6 9 -3 7 C-1.92863949 4.69855891 -0.92010283 2.3659787 0 0 Z " fill="#97CDE3" transform="translate(165,89)"/>
<path d="M0 0 C0.66 0 1.32 0 2 0 C0.50867052 4.72254335 0.50867052 4.72254335 -2.0625 6.125 C-2.701875 6.41375 -3.34125 6.7025 -4 7 C-4.33 7.99 -4.66 8.98 -5 10 C-7.0625 10.6875 -7.0625 10.6875 -9 11 C-7.84826645 8.53199953 -6.95216435 6.95216435 -5 5 C-4.01 5 -3.02 5 -2 5 C-2 4.01 -2 3.02 -2 2 C-1.34 2 -0.68 2 0 2 C0 1.34 0 0.68 0 0 Z " fill="#3BC3DE" transform="translate(116,155)"/>
<path d="M0 0 C0.66 0.33 1.32 0.66 2 1 C-6.261959 9.44646925 -6.261959 9.44646925 -11 13 C-11.66 12.67 -12.32 12.34 -13 12 C-10.75233212 8.56934902 -8.48693424 7.07555609 -5 5 C-3.2958946 3.37163262 -1.61974559 1.71230248 0 0 Z " fill="#0194C2" transform="translate(153,175)"/>
<path d="M0 0 C0.33 0.99 0.66 1.98 1 3 C-0.36328125 5.6640625 -0.36328125 5.6640625 -2.3125 8.625 C-2.94800781 9.60726562 -3.58351562 10.58953125 -4.23828125 11.6015625 C-6 14 -6 14 -8 15 C-6.67744617 10.37106161 -4.78449719 6.91569917 -2 3 C-1.34 2.01 -0.68 1.02 0 0 Z " fill="#3D9DC9" transform="translate(170,85)"/>
<path d="M0 0 C2.0625 0.4375 2.0625 0.4375 4 1 C-2.4150557 3.87940913 -7.97047248 5.5464821 -15 6 C-14 4 -14 4 -11.375 2.9375 C-7.92280077 1.97855577 -4.54487843 1.48655194 -1 1 C-0.67 0.67 -0.34 0.34 0 0 Z " fill="#68DAEB" transform="translate(120,218)"/>
<path d="M0 0 C0.33 0.66 0.66 1.32 1 2 C0.34 2 -0.32 2 -1 2 C-1.12375 2.721875 -1.2475 3.44375 -1.375 4.1875 C-2.26685569 8.2008506 -2.93014382 11.08747561 -6.125 13.8125 C-6.74375 14.204375 -7.3625 14.59625 -8 15 C-8 14.01 -8 13.02 -8 12 C-7.34 12 -6.68 12 -6 12 C-6 11.01 -6 10.02 -6 9 C-5.34 9 -4.68 9 -4 9 C-4 7.68 -4 6.36 -4 5 C-3.34 5 -2.68 5 -2 5 C-2 3.68 -2 2.36 -2 1 C-1.34 0.67 -0.68 0.34 0 0 Z " fill="#C4D6E8" transform="translate(193,43)"/>
<path d="M0 0 C0.81998065 2.35481623 1.13384316 3.60158317 0.328125 6 C-0.02765625 6.66 -0.3834375 7.32 -0.75 8 C-1.12125 8.6909375 -1.4925 9.381875 -1.875 10.09375 C-3.11122109 12.18845795 -4.44225229 14.13070275 -6 16 C-5.41196203 12.97580475 -4.77321882 9.98241547 -4 7 C-3.34 7 -2.68 7 -2 7 C-2 5.68 -2 4.36 -2 3 C-1.34 3 -0.68 3 0 3 C0 2.01 0 1.02 0 0 Z " fill="#C0CBE1" transform="translate(204,19)"/>
<path d="M0 0 C0.66 0.33 1.32 0.66 2 1 C1.01 2.485 1.01 2.485 0 4 C-0.66 4 -1.32 4 -2 4 C-2 4.66 -2 5.32 -2 6 C-2.99 6 -3.98 6 -5 6 C-5 6.66 -5 7.32 -5 8 C-6.32 8.33 -7.64 8.66 -9 9 C-9 8.34 -9 7.68 -9 7 C-7.35 6.34 -5.7 5.68 -4 5 C-4 4.34 -4 3.68 -4 3 C-3.34 3 -2.68 3 -2 3 C-2 2.34 -2 1.68 -2 1 C-1.34 0.67 -0.68 0.34 0 0 Z " fill="#9ADDEC" transform="translate(205,178)"/>
<path d="M0 0 C-2.75927344 2.75927344 -5.21154052 2.51783243 -9 3 C-9.33 3.33 -9.66 3.66 -10 4 C-11.66617115 4.04063832 -13.33388095 4.042721 -15 4 C-12.60939149 2.40626099 -10.69171821 1.34702924 -8.0625 0.3125 C-7.39347656 0.04050781 -6.72445312 -0.23148438 -6.03515625 -0.51171875 C-3.67169662 -1.0787676 -2.2807201 -0.76024003 0 0 Z " fill="#1EC7E1" transform="translate(129,216)"/>
<path d="M0 0 C0.33 0.99 0.66 1.98 1 3 C-1.45906075 6.87774964 -3.61740632 8.66087415 -8 10 C-6.7260411 7.96166576 -5.38938077 5.96147874 -4 4 C-3.34 4 -2.68 4 -2 4 C-1.34 2.68 -0.68 1.36 0 0 Z " fill="#3BBAD9" transform="translate(133,136)"/>
<path d="M0 0 C0.33 0.66 0.66 1.32 1 2 C-1.12081604 6.32018082 -2.79664822 9.44796499 -7 12 C-5.44298069 7.32894208 -2.91552627 3.91294315 0 0 Z " fill="#0466A2" transform="translate(193,128)"/>
<path d="M0 0 C0.99 0 1.98 0 3 0 C1.18690997 3.77727089 -0.9073259 7.37269822 -3 11 C-3.66 10.67 -4.32 10.34 -5 10 C-3.35 6.7 -1.7 3.4 0 0 Z " fill="#85C9E1" transform="translate(154,105)"/>
<path d="M0 0 C0.99 0 1.98 0 3 0 C1.63629701 2.99220268 0.05091917 5.29026529 -2.125 7.75 C-2.93324219 8.67039063 -2.93324219 8.67039063 -3.7578125 9.609375 C-4.16773438 10.06828125 -4.57765625 10.5271875 -5 11 C-5 7.06764531 -3.45054659 5.97035951 -1 3 C-0.67 2.01 -0.34 1.02 0 0 Z " fill="#0488BA" transform="translate(176,148)"/>
<path d="M0 0 C2.0625 0.4375 2.0625 0.4375 4 1 C3.01 1 2.02 1 1 1 C1 1.66 1 2.32 1 3 C-0.98 3 -2.96 3 -5 3 C-5 3.66 -5 4.32 -5 5 C-5.99 5 -6.98 5 -8 5 C-8 4.01 -8 3.02 -8 2 C-6.865625 1.855625 -5.73125 1.71125 -4.5625 1.5625 C-1.19222799 1.38828522 -1.19222799 1.38828522 0 0 Z " fill="#2AAFD2" transform="translate(160,200)"/>
<path d="M0 0 C0.66 0.33 1.32 0.66 2 1 C0.875 3.4375 0.875 3.4375 -1 6 C-4.1875 6.8125 -4.1875 6.8125 -7 7 C-4.78071806 4.09197539 -3.07030857 2.04687238 0 0 Z " fill="#009AC6" transform="translate(174,189)"/>
<path d="M0 0 C0 3 0 3 -2.3125 5.625 C-5 8 -5 8 -8 9 C-8 8.34 -8 7.68 -8 7 C-6.25 5.2734375 -6.25 5.2734375 -4 3.375 C-3.2575 2.74335938 -2.515 2.11171875 -1.75 1.4609375 C-1.1725 0.97882813 -0.595 0.49671875 0 0 Z " fill="#0185B8" transform="translate(193,172)"/>
<path d="M0 0 C0.33 0.99 0.66 1.98 1 3 C0.34 3 -0.32 3 -1 3 C-1 4.32 -1 5.64 -1 7 C-1.66 7 -2.32 7 -3 7 C-3 7.66 -3 8.32 -3 9 C-3.99 9 -4.98 9 -6 9 C-5.67 8.01 -5.34 7.02 -5 6 C-4.34 5.67 -3.68 5.34 -3 5 C-2.835 4.34 -2.67 3.68 -2.5 3 C-2.335 2.34 -2.17 1.68 -2 1 C-1.34 0.67 -0.68 0.34 0 0 Z " fill="#65C0DC" transform="translate(148,116)"/>
<path d="M0 0 C0.33 0.99 0.66 1.98 1 3 C3.64 3.33 6.28 3.66 9 4 C9 4.33 9 4.66 9 5 C5.7 5 2.4 5 -1 5 C-0.67 3.35 -0.34 1.7 0 0 Z " fill="#D0F4F9" transform="translate(17,225)"/>
<path d="M0 0 C1.98 0 3.96 0 6 0 C5.01 0.33 4.02 0.66 3 1 C3 1.66 3 2.32 3 3 C0.36 3.66 -2.28 4.32 -5 5 C-4.34 4.01 -3.68 3.02 -3 2 C-2.01 2 -1.02 2 0 2 C0 1.34 0 0.68 0 0 Z " fill="#A9E4F0" transform="translate(155,203)"/>
<path d="M0 0 C0.66 0.33 1.32 0.66 2 1 C-1.07999946 4.67230705 -3.2482602 5.56802365 -8 6 C-8 5.34 -8 4.68 -8 4 C-6.71349294 3.30289269 -5.42059335 2.61757124 -4.125 1.9375 C-3.40570313 1.55464844 -2.68640625 1.17179688 -1.9453125 0.77734375 C-1.30335937 0.52082031 -0.66140625 0.26429688 0 0 Z " fill="#01A8CF" transform="translate(127,194)"/>
<path d="M0 0 C0.66 0.33 1.32 0.66 2 1 C-0.97 5.95 -0.97 5.95 -4 11 C-5 8 -5 8 -4.00390625 5.95703125 C-3.52824219 5.24933594 -3.05257812 4.54164062 -2.5625 3.8125 C-2.08941406 3.09707031 -1.61632812 2.38164063 -1.12890625 1.64453125 C-0.75636719 1.10183594 -0.38382813 0.55914062 0 0 Z " fill="#3376B3" transform="translate(191,51)"/>
</svg>
