<?xml version="1.0" encoding="UTF-8"?>
<svg version="1.1" xmlns="http://www.w3.org/2000/svg" width="2000" height="594">
<path d="M0 0 C1.33611328 0.46019531 1.33611328 0.46019531 2.69921875 0.9296875 C35.66353332 12.92636237 59.33789558 41.02858708 73.89501953 71.89794922 C77.27329946 79.31422037 79.66621098 86.87571438 81.6875 94.75 C81.87795898 95.48645752 82.06841797 96.22291504 82.26464844 96.98168945 C86.04479396 112.62179415 87.55321111 128.06493933 87.4375 144.125 C87.43479095 145.0139798 87.43208191 145.90295959 87.42929077 146.81887817 C87.36157554 161.53746769 86.32350873 175.61371924 83 190 C82.82339844 190.80260254 82.64679688 191.60520508 82.46484375 192.43212891 C75.83303908 221.82698906 60.5046921 248.21147208 40 270 C39.02740234 271.08667969 39.02740234 271.08667969 38.03515625 272.1953125 C17.61237234 294.06846686 -15.4608347 309.31497651 -45.41078186 310.48066711 C-48.77966488 310.54884731 -52.14456468 310.5551229 -55.51391602 310.52148438 C-58.06557817 310.49997405 -60.61443582 310.52146427 -63.16601562 310.546875 C-89.02676282 310.59227283 -111.70456692 301.8992865 -130.6953125 284.15234375 C-132.78866924 282.19736144 -134.93503548 280.34485338 -137.125 278.5 C-141.38996105 274.64777712 -145.18181404 270.29545921 -149 266 C-149.33 327.71 -149.66 389.42 -150 453 C-176.4 453 -202.8 453 -230 453 C-230.02258288 395.3074998 -230.04049891 337.61500062 -230.05106533 279.92249689 C-230.05231272 273.11914831 -230.05360927 266.31579974 -230.05493164 259.51245117 C-230.0550624 258.83541819 -230.05519316 258.15838521 -230.05532788 257.46083608 C-230.05959303 235.49650481 -230.06710716 213.53217611 -230.07629722 191.56784639 C-230.08598697 168.36723687 -230.09199361 145.16662888 -230.09408849 121.96601719 C-230.09546406 108.0592355 -230.09981643 94.15246118 -230.10791647 80.24568176 C-230.11318195 70.72331566 -230.11480475 61.2009534 -230.11350138 51.67858595 C-230.11285769 46.17580795 -230.11387899 40.67304285 -230.11920547 35.17026711 C-230.12403802 30.14137526 -230.12433961 25.11250511 -230.12089889 20.08361232 C-230.12047306 18.25588074 -230.12177001 16.42814785 -230.12488318 14.60041887 C-230.12884479 12.13282422 -230.12676489 9.66530989 -230.12304783 7.19771671 C-230.12567484 6.47357524 -230.12830186 5.74943377 -230.13100848 5.00334862 C-230.1141458 0.1141458 -230.1141458 0.1141458 -229 -1 C-226.53555943 -1.09500548 -224.09925374 -1.12557985 -221.63452148 -1.11352539 C-220.86384338 -1.11367142 -220.09316528 -1.11381744 -219.2991333 -1.1139679 C-216.73975861 -1.1132686 -214.1804558 -1.10547545 -211.62109375 -1.09765625 C-209.85132385 -1.09579213 -208.08155344 -1.0943682 -206.31178284 -1.09336853 C-201.64448634 -1.08954288 -196.97722077 -1.0797122 -192.30993652 -1.06866455 C-186.714924 -1.05665707 -181.11990116 -1.05204841 -175.52487946 -1.04621124 C-167.01656477 -1.03650047 -158.50831798 -1.01734425 -150 -1 C-149.34 12.2 -148.68 25.4 -148 39 C-146.35 37.02 -144.7 35.04 -143 33 C-142.34 33 -141.68 33 -141 33 C-140.76796875 32.43539062 -140.5359375 31.87078125 -140.296875 31.2890625 C-129.95861413 13.04140928 -102.0820035 1.34544724 -83 -4 C-56.22090917 -10.83337117 -25.86501208 -9.75690847 0 0 Z M-125.99609375 66.3359375 C-140.89047384 86.13704319 -148.19811798 109.49542833 -150 134 C-150.06703125 134.84481934 -150.1340625 135.68963867 -150.203125 136.56005859 C-151.74026812 157.00480109 -151.14123996 178.06260935 -146 198 C-145.60361328 199.59714844 -145.60361328 199.59714844 -145.19921875 201.2265625 C-139.08372172 223.3716663 -126.02795257 243.07077172 -106.0390625 254.7265625 C-89.10862959 263.38368562 -70.10032275 263.57116094 -52 259 C-33.89489807 252.55829257 -21.29167591 235.89937346 -13.12109375 219.24609375 C4.71393227 181.2907207 6.44183465 132.39604021 -6.96484375 92.81396484 C-13.28313041 75.31487227 -23.82738637 59.71373963 -40 50 C-41.16789062 49.29230469 -41.16789062 49.29230469 -42.359375 48.5703125 C-70.10858495 33.24476844 -106.18969918 43.04841904 -125.99609375 66.3359375 Z " fill="#090608" transform="translate(478,141)"/>
<path d="M0 0 C27.06 0 54.12 0 82 0 C82 85.47 82 170.94 82 259 C88.77993661 258.79356191 88.77993661 258.79356191 91.3125 255.4375 C91.869375 254.633125 92.42625 253.82875 93 253 C93.66 253 94.32 253 95 253 C95.24621094 252.43410156 95.49242187 251.86820313 95.74609375 251.28515625 C97.21536224 248.60751742 98.97752435 246.66956388 101.0625 244.4375 C104.31107492 240.89831774 107.42468216 237.30439832 110.4375 233.5625 C114.29825137 228.788597 118.37437075 224.26611572 122.53125 219.75 C124.94378104 217.06262366 127.2325621 214.31034556 129.5 211.5 C132.55348679 207.71539666 135.70668301 204.07792463 139 200.5 C143.11378909 196.0301488 146.97087297 191.40955107 150.78515625 186.68359375 C153.66598507 183.19306571 156.70934403 179.86725932 159.7578125 176.5234375 C162.04515904 173.94917642 164.21548271 171.30710511 166.375 168.625 C170.05141383 164.07751948 173.91619513 159.7746464 177.89819336 155.49853516 C181.80430479 151.27820212 185.44515015 146.87450299 189.02734375 142.375 C190.92181412 140.09413271 192.78131332 137.96862978 195 136 C199.89984608 135.88049156 204.11511332 138.31830236 208.45703125 140.36328125 C212.85160185 142.39340813 217.29638932 144.29121678 221.75 146.1875 C233.19069379 151.06993399 244.59750648 156.02912029 256 161 C256 165.5309594 255.52869421 166.05001046 252.625 169.25 C251.68527344 170.30960937 251.68527344 170.30960937 250.7265625 171.390625 C249 173 249 173 247 173 C246.77699219 173.55171875 246.55398438 174.1034375 246.32421875 174.671875 C244.58445903 177.7305676 242.34235518 179.8073812 239.8125 182.25 C236.66486405 185.32913186 233.55158383 188.40122506 230.6875 191.75 C227.39419999 195.59870215 223.96003305 199.30181744 220.5 203 C219.60716309 203.95459106 219.60716309 203.95459106 218.69628906 204.9284668 C215.44805029 208.39677246 212.19246509 211.85809168 208.93359375 215.31640625 C208.26585937 216.02603516 207.598125 216.73566406 206.91015625 217.46679688 C205.62918932 218.8276657 204.34672215 220.1871245 203.0625 221.54492188 C199.56473314 225.26082081 196.24462849 229.06173185 193 233 C191.35570171 234.68873879 189.68615782 236.35305515 188 238 C183.3888832 242.51363019 178.98677195 247.10630173 174.78125 252 C172.9257479 254.08337078 170.98776899 256.04281207 169 258 C164.26900185 262.66656822 159.69282789 267.46075817 156 273 C156.54974487 273.66249756 156.54974487 273.66249756 157.1105957 274.33837891 C163.89395882 282.52158439 170.62979455 290.73086499 177.16748047 299.11206055 C180.59048126 303.49584833 184.09552852 307.80608369 187.62890625 312.1015625 C193.8599881 319.71846981 199.99175169 327.41754688 206.04736328 335.17456055 C211.19502371 341.76769311 216.4726707 348.2411047 221.80810547 354.68310547 C225.43677185 359.07382156 229.00151663 363.50501042 232.5 368 C237.23007552 374.07636169 242.10693757 380.02341351 247.01293945 385.95825195 C252.34369602 392.40770933 257.58580629 398.92026284 262.75 405.50390625 C263.23573486 406.12305908 263.72146973 406.74221191 264.22192383 407.38012695 C265.16818575 408.58742664 266.11341118 409.79553977 267.05737305 411.00463867 C267.49605713 411.56513916 267.93474121 412.12563965 268.38671875 412.703125 C268.81388184 413.25162109 269.24104492 413.80011719 269.68115234 414.36523438 C270.58429646 415.48471845 271.51906218 416.57921101 272.47900391 417.65039062 C273.72198444 419.04129399 274.87007247 420.51579093 276 422 C275 425 275 425 273.18212891 425.92871094 C272.37179199 426.19458008 271.56145508 426.46044922 270.7265625 426.734375 C269.3019873 427.21390625 269.3019873 427.21390625 267.84863281 427.703125 C266.25293457 428.22132813 266.25293457 428.22132813 264.625 428.75 C262.27809095 429.53480094 259.93178288 430.32140036 257.5859375 431.109375 C256.93729736 431.32573608 256.28865723 431.54209717 255.62036133 431.76501465 C249.696842 433.74660859 243.80436464 435.81264368 237.9140625 437.890625 C236.95476837 438.2284198 235.99547424 438.5662146 235.0071106 438.91424561 C231.12072734 440.28278482 227.23439822 441.65142933 223.35040283 443.0267334 C220.59457157 444.00158929 217.83659958 444.97015338 215.078125 445.9375 C214.25091949 446.23190979 213.42371399 446.52631958 212.57144165 446.82965088 C208.38880062 448.29042426 204.41934319 449.43937678 200 450 C194.58983111 443.5237096 189.67657396 436.7875481 184.84667969 429.87524414 C180.97991545 424.35412406 177.01536799 418.91381802 173 413.5 C168.06823797 406.84384093 163.23098309 400.13172924 158.47314453 393.3503418 C154.27286905 387.36819472 150.00128526 381.43971622 145.71459961 375.51928711 C142.46040325 371.02409607 139.22008538 366.5196832 136 362 C130.59222937 354.41325803 125.13272731 346.86409663 119.67333984 339.31445312 C116.40830397 334.7984712 113.14609197 330.28044811 109.88452148 325.76196289 C107.13002821 321.94654731 104.37248084 318.13340283 101.609375 314.32421875 C100.76536133 313.15922852 100.76536133 313.15922852 99.90429688 311.97070312 C98.8546248 310.52198216 97.80396124 309.07397863 96.75195312 307.62695312 C92.06301129 301.15116092 87.55490326 294.57930471 83 288 C82.67 339.48 82.34 390.96 82 444 C68.490625 444.020625 54.98125 444.04125 41.0625 444.0625 C36.79062744 444.071604 32.51875488 444.08070801 28.11743164 444.09008789 C22.91687012 444.09460449 22.91687012 444.09460449 20.4853363 444.09544373 C18.7803776 444.09698331 17.07542001 444.10050854 15.37046814 444.10557556 C12.79391578 444.11285276 10.21743018 444.11390743 7.64086914 444.11352539 C6.87626153 444.1171235 6.11165392 444.12072161 5.32387638 444.12442875 C0.11402634 444.11402634 0.11402634 444.11402634 -1 443 C-1.09963949 440.64936287 -1.13363568 438.32807266 -1.12584114 435.97686768 C-1.12729458 435.22975226 -1.12874802 434.48263684 -1.13024551 433.71288157 C-1.13393195 431.177383 -1.13040694 428.64194356 -1.12698364 426.10644531 C-1.12813442 424.28313287 -1.12972165 422.45982066 -1.13171089 420.63650894 C-1.13591019 415.60119705 -1.13381083 410.56590395 -1.13072467 405.53059196 C-1.12847322 400.10995222 -1.1319489 394.68931584 -1.13470459 389.26867676 C-1.13916403 378.63977588 -1.13818505 368.01088205 -1.13529195 357.3819809 C-1.13303859 348.74785809 -1.1327251 340.11373727 -1.13381577 331.47961426 C-1.133969 330.2533288 -1.13412223 329.02704335 -1.13428011 327.76359773 C-1.13459982 325.27285099 -1.13492403 322.78210425 -1.1352527 320.29135752 C-1.13802651 297.57283324 -1.13514419 274.85431265 -1.1299101 252.13578898 C-1.12516418 231.37828434 -1.1255888 210.62078583 -1.13037109 189.86328125 C-1.13571598 166.56418131 -1.1378333 143.26508481 -1.13475883 119.96598434 C-1.13444026 117.48411814 -1.13412589 115.00225194 -1.13381577 112.52038574 C-1.13366149 111.2990847 -1.13350721 110.07778367 -1.13334826 108.81947351 C-1.13248285 100.19023573 -1.13394651 91.56100013 -1.13629532 82.9317627 C-1.13909256 72.42348584 -1.13835666 61.91521646 -1.13301457 51.40694046 C-1.13037653 46.03984923 -1.12937422 40.67277048 -1.13266373 35.30567932 C-1.13562459 30.40080383 -1.13403741 25.49595251 -1.12868617 20.59107924 C-1.12756108 18.80846541 -1.12815517 17.02584958 -1.13056196 15.24323702 C-1.13356431 12.83650564 -1.13052319 10.42985912 -1.12584114 8.02313232 C-1.12818231 7.3169245 -1.13052347 6.61071668 -1.13293558 5.88310862 C-1.11415034 1.11415034 -1.11415034 1.11415034 0 0 Z " fill="#090608" transform="translate(1415,0)"/>
<path d="M0 0 C0.70511719 0.61230469 1.41023438 1.22460938 2.13671875 1.85546875 C2.93464844 2.49871094 3.73257812 3.14195312 4.5546875 3.8046875 C24.39863383 20.44898977 33.27802082 45.72802003 36.13671875 70.85546875 C37.10759637 83.68161808 37.28115679 96.47709601 37.26611328 109.33422852 C37.26747217 111.31553174 37.26925483 113.29683471 37.27142334 115.27813721 C37.27593458 120.59722314 37.27423578 125.91628942 37.27104425 131.23537564 C37.26849379 136.81755704 37.27086506 142.39973687 37.27243042 147.98191833 C37.27424175 157.33291931 37.27187043 166.68391234 37.26708984 176.03491211 C37.26162209 186.8552474 37.26343215 197.67556393 37.26891625 208.49589878 C37.27344476 217.80320826 37.27410004 227.11051208 37.27147758 236.4178223 C37.26991683 241.97039565 37.26971609 247.52296013 37.27301407 253.07553291 C37.27588987 258.27868158 37.27392256 263.48180578 37.26811981 268.68495178 C37.2667918 270.59865211 37.26718702 272.51235447 37.26938248 274.426054 C37.27209169 277.02593138 37.26871603 279.62572898 37.26370239 282.2256012 C37.26593311 282.99249081 37.26816384 283.75938042 37.27046216 284.54950911 C37.25087043 289.74131707 37.25087043 289.74131707 36.13671875 290.85546875 C33.61130873 290.95051126 31.11334749 290.98104033 28.58764648 290.96899414 C27.79746124 290.96914017 27.007276 290.96928619 26.19314575 290.96943665 C23.56884053 290.96873732 20.94460539 290.96094402 18.3203125 290.953125 C16.5057021 290.95126089 14.69109119 290.94983695 12.8764801 290.94883728 C8.09081645 290.94501154 3.30518295 290.93518079 -1.48046875 290.9241333 C-6.36002189 290.91392038 -11.23957989 290.90933992 -16.11914062 290.90429688 C-25.70053411 290.89355857 -35.28190518 290.87648148 -44.86328125 290.85546875 C-44.86824647 289.41569152 -44.86824647 289.41569152 -44.873312 287.94682789 C-44.95459119 264.50608553 -45.04699161 241.06540665 -45.15080833 217.624753 C-45.20076197 206.28866718 -45.24720567 194.95258797 -45.28515625 183.61645508 C-45.31827355 173.72679491 -45.35821099 163.83718882 -45.40607131 153.94758862 C-45.4311418 148.71940363 -45.45297849 143.49125361 -45.46662521 138.26302528 C-45.47962465 133.32428868 -45.50186369 128.38567323 -45.53066444 123.44700432 C-45.53960272 121.65138703 -45.54539744 119.85575031 -45.54749489 118.060112 C-45.56061973 108.51542838 -45.89248322 99.07312873 -46.77383423 89.56559753 C-46.85317526 88.70066345 -46.9325163 87.83572936 -47.0142616 86.94458514 C-48.49334517 72.31736134 -53.92256869 59.01470184 -64.86328125 48.85546875 C-79.8339327 36.93258836 -97.46554106 36.19114685 -115.86328125 37.85546875 C-128.55773929 39.88361853 -141.21757275 45.26751419 -150.86328125 53.85546875 C-151.19328125 54.51546875 -151.52328125 55.17546875 -151.86328125 55.85546875 C-152.52328125 55.85546875 -153.18328125 55.85546875 -153.86328125 55.85546875 C-154.13398437 56.41878906 -154.4046875 56.98210937 -154.68359375 57.5625 C-155.9236868 59.97287954 -157.30745836 62.24104903 -158.73828125 64.54296875 C-166.93755355 78.24832171 -170.00814155 93.05327113 -170.01477051 108.98594666 C-170.01900292 109.76386788 -170.02323533 110.54178911 -170.027596 111.34328371 C-170.04052495 113.9279953 -170.04662391 116.51267612 -170.05273438 119.09741211 C-170.06068404 120.95901677 -170.06907257 122.82061959 -170.0778656 124.68222046 C-170.09586836 128.67906599 -170.11090263 132.67590763 -170.12364197 136.67277336 C-170.14390707 142.98724336 -170.17154964 149.30166793 -170.20031738 155.61610413 C-170.26541449 170.14958795 -170.32102007 184.68310512 -170.37630463 199.21662903 C-170.42711818 212.55761031 -170.47992367 225.89857488 -170.54083014 239.23951441 C-170.56923425 245.52310722 -170.59280865 251.80669442 -170.61275482 258.09031951 C-170.62609754 261.98650737 -170.64351087 265.88266911 -170.66206551 269.7788353 C-170.66985033 271.59254233 -170.67590721 273.40625767 -170.68015862 275.21997643 C-170.68616442 277.68465468 -170.69819176 280.1492301 -170.71179199 282.61387634 C-170.71208798 283.34089577 -170.71238397 284.0679152 -170.71268892 284.81696552 C-170.74918697 289.74137447 -170.74918697 289.74137447 -171.86328125 290.85546875 C-198.92328125 290.85546875 -225.98328125 290.85546875 -253.86328125 290.85546875 C-253.86328125 190.86546875 -253.86328125 90.87546875 -253.86328125 -12.14453125 C-226.80328125 -12.14453125 -199.74328125 -12.14453125 -171.86328125 -12.14453125 C-169.85824616 -10.13949616 -170.60739462 -6.14427681 -170.546875 -3.390625 C-170.5260939 -2.61517838 -170.50531281 -1.83973175 -170.48390198 -1.04078674 C-170.41832323 1.44537183 -170.35948326 3.9316392 -170.30078125 6.41796875 C-170.25760392 8.09962079 -170.21398989 9.78126169 -170.16992188 11.46289062 C-170.06263346 15.59363746 -169.96138993 19.72449411 -169.86328125 23.85546875 C-168.74631193 22.90752569 -167.63068711 21.95799827 -166.515625 21.0078125 C-165.89421631 20.47921631 -165.27280762 19.95062012 -164.63256836 19.40600586 C-163.17940137 18.13250461 -161.7920718 16.7842593 -160.42578125 15.41796875 C-144.70608407 -0.30172843 -126.19599383 -10.36318687 -104.86328125 -16.14453125 C-104.23228516 -16.32129395 -103.60128906 -16.49805664 -102.95117188 -16.68017578 C-70.73064074 -25.32842282 -26.3342469 -22.05067254 0 0 Z " fill="#090608" transform="translate(1324.86328125,153.14453125)"/>
<path d="M0 0 C27.06 0 54.12 0 82 0 C82.01458252 5.76162598 82.02916504 11.52325195 82.04418945 17.45947266 C82.09465928 36.55420477 82.1611288 55.64885688 82.23571491 74.74350929 C82.28052367 86.31386016 82.31997203 97.88418127 82.34643555 109.45458984 C82.36953721 119.54900356 82.40306898 129.64332192 82.44870156 139.73765981 C82.47247101 145.07376375 82.49130569 150.4097742 82.49761391 155.74592972 C82.50373939 160.78731272 82.52400182 165.82845703 82.55427551 170.86975098 C82.56293797 172.70203354 82.56680344 174.53434746 82.56500816 176.36664963 C82.54998637 198.80960058 83.36485061 222.42451732 99 240 C112.30939757 252.49501136 127.89298404 254.80370479 145.54296875 254.34765625 C158.39120937 253.72304236 171.57482415 250.0001421 181.70703125 241.8125 C184 240 184 240 186 240 C186.33 239.01 186.66 238.02 187 237 C187.66 237 188.32 237 189 237 C189.26167969 236.443125 189.52335938 235.88625 189.79296875 235.3125 C191.13521951 232.74093867 192.69608131 230.40849969 194.3125 228 C206.04392337 209.5614219 207.13475806 189.14481661 207.20532227 167.90405273 C207.21491279 166.07023402 207.22492354 164.23641746 207.23532104 162.40260315 C207.26224897 157.4446304 207.28332376 152.48664826 207.30332303 147.52864337 C207.32525769 142.33964008 207.35260964 137.15066537 207.37937927 131.96168518 C207.42920534 122.14469444 207.47418141 112.32768776 207.51740164 102.51066595 C207.57611493 89.23850009 207.64234736 75.96637186 207.70815182 62.69423962 C207.81156864 41.79618514 207.90496269 20.89809815 208 0 C235.06 0 262.12 0 290 0 C290 100.32 290 200.64 290 304 C262.94 304 235.88 304 208 304 C207.67 291.79 207.34 279.58 207 267 C203.9371875 270.155625 203.9371875 270.155625 200.8125 273.375 C189.7909474 284.47383356 177.89320188 292.8875838 164 300 C162.35644531 300.85078125 162.35644531 300.85078125 160.6796875 301.71875 C157.18312446 303.37013881 153.6594375 304.76482909 150 306 C148.93217285 306.36399902 148.93217285 306.36399902 147.84277344 306.73535156 C122.99404807 314.67648106 87.53810939 315.34812581 63 306 C61.91162842 305.5985376 61.91162842 305.5985376 60.80126953 305.18896484 C36.57344557 296.02501725 20.57275127 280.15564265 9.83251953 256.84814453 C-4.82413503 224.31123103 -0.1510197 183.48917804 -0.10139394 148.5916543 C-0.09503698 143.34673862 -0.09454704 138.10182202 -0.09336853 132.85690308 C-0.0902909 122.97684184 -0.08212691 113.096792 -0.07201904 103.21673572 C-0.05862728 89.82910869 -0.0533291 76.44147842 -0.04751682 63.05384636 C-0.03818357 42.03588908 -0.01824123 21.01795581 0 0 Z " fill="#090608" transform="translate(729,140)"/>
<path d="M0 0 C1 3 1 3 0.29418945 4.69140625 C-0.09551025 5.30886719 -0.48520996 5.92632812 -0.88671875 6.5625 C-1.32491943 7.26842285 -1.76312012 7.9743457 -2.21459961 8.70166016 C-2.9436853 9.83933838 -2.9436853 9.83933838 -3.6875 11 C-4.18064697 11.78294434 -4.67379395 12.56588867 -5.18188477 13.37255859 C-6.2356036 15.04452322 -7.2929402 16.71421222 -8.35351562 18.38183594 C-10.0250371 21.03981284 -11.64948256 23.72210855 -13.265625 26.4140625 C-14.32260584 28.15123083 -15.37988911 29.88821518 -16.4375 31.625 C-17.18036255 32.87796875 -17.18036255 32.87796875 -17.93823242 34.15625 C-18.64749878 35.30480469 -18.64749878 35.30480469 -19.37109375 36.4765625 C-19.78286865 37.15799316 -20.19464355 37.83942383 -20.61889648 38.54150391 C-21.07466064 39.02280762 -21.5304248 39.50411133 -22 40 C-26.73565276 40 -28.17015462 38.87132085 -32.125 36.375 C-37.64966334 33.0489196 -43.19492801 30.59743259 -49.3125 28.5625 C-50.04033691 28.31612793 -50.76817383 28.06975586 -51.51806641 27.81591797 C-64.82951793 23.57758072 -81.40203212 22.81354335 -94.25 28.8125 C-101.78642144 32.94537627 -106.27678582 37.83035747 -109 46 C-109.75741611 56.64752264 -109.09630742 63.68284578 -102.0625 71.8125 C-93.40741208 80.94298855 -84.07583247 88.95210753 -74.015625 96.48632812 C-69.84862312 99.61561733 -65.70783691 102.77960407 -61.5625 105.9375 C-60.6537915 106.62956543 -59.74508301 107.32163086 -58.80883789 108.03466797 C-51.48284136 113.61970954 -44.1749437 119.22159601 -37 125 C-36.47035645 125.42522949 -35.94071289 125.85045898 -35.39501953 126.28857422 C-14.67713137 143.03506253 2.90054472 160.86475303 8 188 C8.41833709 192.59262837 8.47805746 197.14039164 8.4375 201.75 C8.42847656 202.98137695 8.41945312 204.21275391 8.41015625 205.48144531 C7.98412362 227.93691494 -0.77514798 247.13002798 -16.0625 263.5625 C-40.29848005 286.80248087 -73.57256517 294.86391592 -106.1875 294.5625 C-107.16802338 294.55857239 -108.14854675 294.55464478 -109.15878296 294.55059814 C-124.57284872 294.46373537 -139.15983449 293.51447425 -154 289 C-155.1139917 288.67104736 -155.1139917 288.67104736 -156.25048828 288.33544922 C-172.06039002 283.4934628 -186.99900759 275.11188298 -200 265 C-201.97778609 263.62718377 -203.98006697 262.31022683 -206 261 C-205.51820472 255.84772391 -204.44628423 252.44869074 -201.68359375 248.0859375 C-201.00103516 246.99410156 -200.31847656 245.90226562 -199.61523438 244.77734375 C-198.88968814 243.64299548 -198.16377583 242.50888128 -197.4375 241.375 C-196.74591797 240.27542969 -196.05433594 239.17585938 -195.34179688 238.04296875 C-193.94684645 235.82508858 -192.54760334 233.60990244 -191.14404297 231.39746094 C-187.70582673 225.96694614 -184.35635075 220.4813442 -181 215 C-177.80164262 216.53653132 -175.34154116 218.2678108 -172.625 220.5625 C-160.43968228 230.43619127 -146.40207644 239.40933187 -131 243 C-130.07703125 243.2165625 -129.1540625 243.433125 -128.203125 243.65625 C-114.38010037 246.43548247 -100.31873306 244.70997895 -88.10546875 237.51171875 C-80.60148746 232.12388803 -76.50320232 225.03251662 -75 216 C-74.19470503 202.59090242 -76.38589868 192.73181531 -85.2421875 182.37890625 C-92.38911539 174.89526899 -100.51316482 168.76718498 -108.8125 162.62304688 C-110.93643413 161.04716361 -113.04820923 159.45643631 -115.15625 157.859375 C-121.47513293 153.07875131 -127.8381315 148.38044256 -134.3125 143.8125 C-144.11135095 136.87708342 -153.21261824 129.17463248 -162 121 C-162.82371094 120.25363281 -163.64742187 119.50726563 -164.49609375 118.73828125 C-180.17108753 103.94363034 -189.71573271 84.9824115 -190.4050293 63.34008789 C-190.64486455 43.28589371 -184.74002701 24.02901158 -171 9 C-170.19949219 8.10796875 -169.39898437 7.2159375 -168.57421875 6.296875 C-162.00625147 -0.66079801 -155.39722231 -5.38372595 -147 -10 C-146.30390625 -10.39703125 -145.6078125 -10.7940625 -144.890625 -11.203125 C-102.52761263 -34.01397781 -38.98562233 -27.33747908 0 0 Z " fill="#090608" transform="translate(206,157)"/>
<path d="M0 0 C26.73 0 53.46 0 81 0 C81 146.52 81 293.04 81 444 C54.27 444 27.54 444 0 444 C0 297.48 0 150.96 0 0 Z " fill="#090608" transform="translate(598,0)"/>
<path d="M0 0 C21.83535026 10.34306065 21.83535026 10.34306065 30.40234375 14.63647461 C31.38897003 15.12891159 32.37559631 15.62134857 33.39212036 16.12870789 C36.57490559 17.71794349 39.75625956 19.31001843 42.9375 20.90234375 C45.19647516 22.03149329 47.45550959 23.16052425 49.71459961 24.28944397 C55.01515951 26.93889964 60.31469802 29.59039001 65.61385632 32.24264771 C69.80062023 34.33790602 73.98839667 36.43112987 78.17675781 38.52319336 C84.02219259 41.44298391 89.86661822 44.36478379 95.7102356 47.28820992 C97.91035772 48.3886002 100.11076747 49.48841563 102.31149292 50.5875988 C112.42559103 55.64041411 122.52443527 60.70996581 132.51293945 66.00756836 C143.4917031 71.8302083 154.6101563 77.36792612 165.73046875 82.9140625 C167.94542617 84.02060586 170.16029368 85.12732921 172.37507629 86.23422241 C178.13610318 89.11284894 183.89832809 91.98906895 189.66082764 94.86474609 C196.61133195 98.33392358 203.56030621 101.80616495 210.50954437 105.27787781 C221.0052085 110.52090128 231.50277846 115.76009019 242 121 C242 138.49 242 155.98 242 174 C238.64972656 175.59328125 235.29945313 177.1865625 231.84765625 178.828125 C215.09722669 186.84259774 198.51133433 195.18718347 181.91241455 203.50946045 C177.7724286 205.58460939 173.63128514 207.65744574 169.49023438 209.73046875 C163.3970793 212.78097891 157.30455532 215.83274412 151.21264648 218.88574219 C143.14437114 222.92904537 135.07251152 226.96516259 127 231 C124.91664985 232.04163303 122.83331324 233.08329315 120.75 234.125 C109.25 239.875 109.25 239.875 106.24804688 241.375 C103.92017929 242.53963369 101.59340053 243.70629874 99.26757812 244.875 C89.03318084 250.01281332 78.74112803 255.02406827 68.42724609 260 C55.89699941 266.04806627 43.45086482 272.25253976 31.02581787 278.51342773 C27.85872903 280.10864467 24.69047698 281.70154203 21.52197266 283.29394531 C19.89823814 284.11093946 18.27521164 284.92934202 16.65283203 285.74902344 C14.27300493 286.95097539 11.89069215 288.14786373 9.5078125 289.34375 C8.78087189 289.71238159 8.05393127 290.08101318 7.30496216 290.46081543 C2.22773955 293 2.22773955 293 0 293 C0 274.52 0 256.04 0 237 C11.385 231.555 11.385 231.555 23 226 C28.95218542 223.04595242 34.89443751 220.07585855 40.82421875 217.07763672 C55.63360279 209.59795048 70.59213701 202.42006054 85.60546875 195.359375 C94.89538951 190.9838419 104.05405552 186.45170709 113.11206055 181.61328125 C118.93663632 178.51693408 124.84368281 175.65848555 130.82641602 172.88256836 C137.37851569 169.84027853 143.83309811 166.61892584 150.28271484 163.36669922 C155.81923916 160.58202149 161.36486599 157.81548571 166.90859985 155.04519653 C170.27265675 153.36397804 173.636316 151.6819644 177 150 C179 149 181 148 183 147 C180.3689875 144.91582104 177.87302311 143.35486233 174.796875 142.01953125 C173.99072754 141.66487793 173.18458008 141.31022461 172.35400391 140.94482422 C171.49468262 140.57115723 170.63536133 140.19749023 169.75 139.8125 C161.56854905 136.18880572 153.54321852 132.35825964 145.56787109 128.30224609 C139.86745867 125.41139233 134.15229998 122.5497764 128.4375 119.6875 C127.78821533 119.36214264 127.13893066 119.03678528 126.4699707 118.7015686 C116.9523585 113.93553072 107.39081863 109.27416311 97.7746582 104.70947266 C91.90299753 101.92021176 86.07563 99.05865715 80.27392578 96.12719727 C72.96998652 92.45296518 65.58342331 88.95075704 58.20629883 85.42651367 C52.37599207 82.63645618 46.57385445 79.80450227 40.8125 76.875 C33.64274524 73.23246342 26.32838934 69.9267616 18.97387695 66.67529297 C12.40585736 63.74259022 6.36742691 60.47314195 0 57 C0 38.19 0 19.38 0 0 Z " fill="#58A646" transform="translate(1758,143)"/>
<path d="M0 0 C5.83275419 5.25746884 9.34400994 12.34168167 10.078125 20.078125 C10.26785076 28.6157843 7.97693623 35.46716008 2.61328125 42.1484375 C-2.94026272 47.86421984 -9.95791009 50.93021061 -17.875 51.3125 C-26.4075197 51.09470295 -33.2694526 47.66165059 -39.43359375 41.87109375 C-45.05549071 35.44421386 -46.50225638 28.20886503 -46.40234375 19.8828125 C-45.65991721 11.99845177 -41.97675522 5.21251973 -36.125 -0.0625 C-25.23431336 -8.41377172 -11.06628615 -7.30374886 0 0 Z M-34.5 8.6875 C-38.58183655 14.7045942 -39.78605129 20.50883883 -38.73046875 27.69921875 C-36.85597538 34.62879746 -32.38346371 39.37126423 -26.3359375 43.015625 C-21.4094457 45.06978059 -15.01118182 44.85440975 -9.9609375 43.25 C-4.17379889 40.19071968 -0.58249747 35.64482461 1.75 29.6875 C3.45992342 23.84034806 3.31577796 18.34297518 0.9296875 12.703125 C-2.3407506 6.9419559 -6.76549258 3.05733581 -13.125 0.9375 C-22.0609585 -0.03069444 -28.70657452 1.57865907 -34.5 8.6875 Z " fill="#58A646" transform="translate(1800.125,71.0625)"/>
<path d="M0 0 C2.58503771 2.75737355 2.78887356 5.09950839 3.0390625 8.8046875 C2.875 11 2.875 11 1.25 13.5 C-0.39213621 15.84579037 -0.39213621 15.84579037 0.3046875 18.08984375 C0.85369127 19.66104026 1.43091748 21.22264444 2.03515625 22.7734375 C3.05452606 25.47595282 3.50855601 28.14173686 3.875 31 C1.565 31 -0.745 31 -3.125 31 C-3.32996094 30.37351563 -3.53492188 29.74703125 -3.74609375 29.1015625 C-4.01550781 28.28429687 -4.28492188 27.46703125 -4.5625 26.625 C-4.82933594 25.81289062 -5.09617187 25.00078125 -5.37109375 24.1640625 C-6.07679729 21.98968201 -6.07679729 21.98968201 -7.125 20 C-10.15434491 19.34227572 -10.15434491 19.34227572 -13.125 19 C-13.125 22.96 -13.125 26.92 -13.125 31 C-15.435 31 -17.745 31 -20.125 31 C-20.125 20.44 -20.125 9.88 -20.125 -1 C-13.05459096 -2.17840151 -6.85982019 -2.19514246 0 0 Z M-13.125 4 C-13.125 6.64 -13.125 9.28 -13.125 12 C-9.70843976 12.16677282 -9.70843976 12.16677282 -6.125 12 C-5.465 11.34 -4.805 10.68 -4.125 10 C-4.2200739 7.9519572 -4.2200739 7.9519572 -5.125 6 C-8.35291555 3.8480563 -9.40900809 3.79913557 -13.125 4 Z " fill="#58A646" transform="translate(1791.125,79)"/>
</svg>
